<svg xmlns="http://www.w3.org/2000/svg" viewBox="0 0 83 83">
    <style>
        .PrevDatesSvg0{fill:#e73809;}
        .PrevDatesSvg1{fill:#FFE508;}
        .PrevDatesSvg2{fill:#b1006c;}
        .PrevDatesSvg3{fill:#4bd688;}
        .PrevDatesSvg4{fill:#22cf13;}
        .PrevDatesSvg5{fill:#b7a246;}
        .PrevDatesSvg6{fill:#4c4cd3;}
        .PrevDatesSvg7{fill:#eb950c;}
        .PrevDatesSvg8{fill:#6d6bff;}
        .PrevDatesSvg9{fill:#3e1f67;}
    </style>
    <path data-order="0" class="PrevDatesSvg0" style="opacity: 0; transform: translate(-29px, 0) scale(0, 0); transform-origin: center" d="M24 25.4H1.4C.6 25.4 0 24.7 0 24V1.4C0 .6.6 0 1.4 0H24c.8 0 1.4.6 1.4 1.4V24c0 .7-.7 1.4-1.4 1.4z"/>
    <path data-order="1" class="PrevDatesSvg1" d="M24 25.4H1.4C.6 25.4 0 24.7 0 24V1.4C0 .6.6 0 1.4 0H24c.8 0 1.4.6 1.4 1.4V24c0 .7-.7 1.4-1.4 1.4z"/>
    <path data-order="2" class="PrevDatesSvg2" d="M28.8 24V1.4c0-.8.6-1.4 1.4-1.4h22.5c.8 0 1.4.6 1.4 1.4V24c0 .8-.6 1.4-1.4 1.4H30.2c-.8 0-1.4-.7-1.4-1.4z"/>
    <path data-order="4" class="PrevDatesSvg4" d="M24 54.2H1.4c-.8 0-1.4-.6-1.4-1.4V30.2c0-.8.6-1.4 1.4-1.4H24c.8 0 1.4.6 1.4 1.4v22.5c0 .9-.7 1.5-1.4 1.5z"/>
    <path data-order="5" class="PrevDatesSvg5" d="M28.8 52.8V30.2c0-.8.6-1.4 1.4-1.4h22.5c.8 0 1.4.6 1.4 1.4v22.5c0 .8-.6 1.4-1.4 1.4H30.2c-.8.1-1.4-.5-1.4-1.3z"/>
    <path data-order="7" class="PrevDatesSvg7" d="M24 83H1.4C.6 83 0 82.4 0 81.6V59c0-.8.6-1.4 1.4-1.4H24c.8 0 1.4.6 1.4 1.4v22.5c0 .9-.7 1.5-1.4 1.5z"/>
    <path data-order="8" class="PrevDatesSvg8" d="M28.8 81.6V59c0-.8.6-1.4 1.4-1.4h22.5c.8 0 1.4.6 1.4 1.4v22.5c0 .8-.6 1.4-1.4 1.4H30.2c-.8.1-1.4-.5-1.4-1.3z"/>
    <path data-order="9" class="PrevDatesSvg9" d="M57.6 81.6V59c0-.8.6-1.4 1.4-1.4h22.5c.8 0 1.4.6 1.4 1.4v22.5c0 .8-.6 1.4-1.4 1.4H59c-.7.1-1.4-.5-1.4-1.3z"/>
    <path data-order="3" class="PrevDatesSvg3" d="M57.6 24V1.4c0-.8.7-1.4 1.4-1.4h22.5c.9 0 1.5.6 1.5 1.4V24c0 .8-.6 1.4-1.4 1.4H59c-.7 0-1.4-.7-1.4-1.4z"/>
    <path data-order="6" class="PrevDatesSvg6" d="M57.6 52.8V30.2c0-.8.6-1.4 1.4-1.4h22.5c.8 0 1.4.6 1.4 1.4v22.5c0 .8-.6 1.4-1.4 1.4H59c-.7.1-1.4-.5-1.4-1.3z"/>
</svg>
