<svg xmlns="http://www.w3.org/2000/svg" viewBox="0 0 83 83">
    <style>
        .PrevDatesSvg0{fill:#B2E1E7;} .PrevDatesSvg1{fill:#30B271;} .PrevDatesSvg2{fill:#A6D38D;} .PrevDatesSvg3{fill:#4583B6;} .PrevDatesSvg4{fill:#DB7093;} .PrevDatesSvg5{fill:#8EBD91;} .PrevDatesSvg6{fill:#69696A;} .PrevDatesSvg7{fill:#B4D336;}
    </style>
    <path class="PrevDatesSvg2" d="M24 25.4H1.4C.6 25.4 0 24.7 0 24V1.4C0 .6.6 0 1.4 0H24c.8 0 1.4.6 1.4 1.4V24c0 .7-.7 1.4-1.4 1.4z"/>
    <path class="PrevDatesSvg3" d="M28.8 24V1.4c0-.8.6-1.4 1.4-1.4h22.5c.8 0 1.4.6 1.4 1.4V24c0 .8-.6 1.4-1.4 1.4H30.2c-.8 0-1.4-.7-1.4-1.4z"/>
    <path class="PrevDatesSvg7" d="M57.6 24V1.4c0-.8.7-1.4 1.4-1.4h22.5c.9 0 1.5.6 1.5 1.4V24c0 .8-.6 1.4-1.4 1.4H59c-.7 0-1.4-.7-1.4-1.4z"/>
    <path class="PrevDatesSvg1" d="M24 54.2H1.4c-.8 0-1.4-.6-1.4-1.4V30.2c0-.8.6-1.4 1.4-1.4H24c.8 0 1.4.6 1.4 1.4v22.5c0 .9-.7 1.5-1.4 1.5z"/>
    <path class="PrevDatesSvg5" d="M28.8 52.8V30.2c0-.8.6-1.4 1.4-1.4h22.5c.8 0 1.4.6 1.4 1.4v22.5c0 .8-.6 1.4-1.4 1.4H30.2c-.8.1-1.4-.5-1.4-1.3z"/>
    <path class="PrevDatesSvg6" d="M57.6 52.8V30.2c0-.8.6-1.4 1.4-1.4h22.5c.8 0 1.4.6 1.4 1.4v22.5c0 .8-.6 1.4-1.4 1.4H59c-.7.1-1.4-.5-1.4-1.3z"/>
    <path class="PrevDatesSvg0" d="M24 83H1.4C.6 83 0 82.4 0 81.6V59c0-.8.6-1.4 1.4-1.4H24c.8 0 1.4.6 1.4 1.4v22.5c0 .9-.7 1.5-1.4 1.5z"/>
    <path class="PrevDatesSvg3" d="M28.8 81.6V59c0-.8.6-1.4 1.4-1.4h22.5c.8 0 1.4.6 1.4 1.4v22.5c0 .8-.6 1.4-1.4 1.4H30.2c-.8.1-1.4-.5-1.4-1.3z"/>
    <path class="PrevDatesSvg4" d="M57.6 81.6V59c0-.8.6-1.4 1.4-1.4h22.5c.8 0 1.4.6 1.4 1.4v22.5c0 .8-.6 1.4-1.4 1.4H59c-.7.1-1.4-.5-1.4-1.3z"/>
</svg>
