<svg xmlns="http://www.w3.org/2000/svg" viewBox="0 0 89 83"><path fill="#FAA51C" d="M31.8 78.1c-4.3-.1-5.8-.6-6.4-.8-.8-.4-1.3-.9-1.6-1.7-.2-.5-.5-2.2-.5-7.6V2.8c0-.8-.6-1.4-1.4-1.4H20c-.2 0-.4 0-.6.1L.8 10.7c-.7.3-1 1.2-.6 1.9l.8 1.7c.3.7 1.2 1 1.8.7 2.9-1.4 4.5-1.6 5.3-1.6.7 0 1.2.2 1.7.5.4.4.8 1 1 1.9.2 1 .5 3.7.5 10.5V68c0 6.2-.4 7.5-.5 7.8-.3.6-.8 1.2-1.6 1.6-.5.3-2 .7-6.5.8-.8 0-1.4.6-1.4 1.4v2.1c.1.7.7 1.3 1.5 1.3h29.1c.8 0 1.4-.6 1.4-1.4v-2.1c-.1-.8-.7-1.4-1.5-1.4zM85.1 41.7c-2.2-3.1-5.3-5.7-9.3-7.6 6.3-5.8 9.4-11.5 9.4-17 0-3.7-1.4-7.3-4.1-10.5C77.6 2.2 72.4 0 65.8 0 60.5 0 56 1.5 52.4 4.6c-3.5 3-6.5 7.2-8.7 12.6-.3.7 0 1.5.7 1.8l1.9.9c.6.3 1.4.1 1.8-.5 3.7-5.9 8.2-8.8 13.6-8.8 3.3 0 6 1.1 8.2 3.2 2.2 2.2 3.3 4.9 3.3 8.5 0 2.8-.6 5.3-1.9 7.6-1.2 2.3-3.3 4.3-6.1 5.9-2.8 1.7-5.7 2.7-8.5 3.1-.7.1-1.2.7-1.2 1.4V42c0 .8.6 1.4 1.4 1.4h1.8c2.8 0 5.5.6 8.2 1.7 2.7 1.2 4.8 2.5 6.3 3.9 1 1 2 2.5 2.9 4.4 1.2 2.6 1.9 5.4 1.9 8.2 0 3.8-1.3 6.9-3.9 9.7-2.6 2.7-5.6 4.1-9.1 4.1-1.5 0-2.8-.2-4.1-.6-.5-.1-1.7-.6-4.4-2-3.2-1.7-4.2-2-4.6-2.2-1.1-.3-2.2-.5-3.3-.5-1.6 0-3 .5-4.2 1.6-1.2 1.1-1.8 2.4-1.8 3.9 0 2 1.2 3.7 3.4 5.3 2.1 1.5 5.9 2.2 11.4 2.2 10.9 0 19.4-3.4 25.2-10.1 4.5-5.1 6.7-11.3 6.7-18.3-.3-5-1.6-9.4-4.2-13z"/></svg>
