<svg xmlns="http://www.w3.org/2000/svg" x="0px" y="0px" viewBox="0 0 89 83">
    <style>
        .MonthInCloudsSvg0{fill:#ff6b00;}
    </style>
    <path class="MonthInCloudsSvg0" d="M31.8,78.1c-4.3-0.1-5.8-0.6-6.4-0.8c-0.8-0.4-1.3-0.9-1.6-1.7c-0.2-0.5-0.5-2.2-0.5-7.6V2.8	c0-0.8-0.6-1.4-1.4-1.4h-1.9c-0.2,0-0.4,0-0.6,0.1L0.8,10.7c-0.7,0.3-1,1.2-0.6,1.9L1,14.3c0.3,0.7,1.2,1,1.8,0.7	c2.9-1.4,4.5-1.6,5.3-1.6c0.7,0,1.2,0.2,1.7,0.5c0.4,0.4,0.8,1,1,1.9c0.2,1,0.5,3.7,0.5,10.5V68c0,6.2-0.4,7.5-0.5,7.8	c-0.3,0.6-0.8,1.2-1.6,1.6c-0.5,0.3-2,0.7-6.5,0.8c-0.8,0-1.4,0.6-1.4,1.4v2.1C1.4,82.4,2,83,2.8,83h29.1c0.8,0,1.4-0.6,1.4-1.4	v-2.1C33.2,78.7,32.6,78.1,31.8,78.1z"/>
    <path class="MonthInCloudsSvg0" d="M85.1,41.7c-2.2-3.1-5.3-5.7-9.3-7.6c6.3-5.8,9.4-11.5,9.4-17c0-3.7-1.4-7.3-4.1-10.5C77.6,2.2,72.4,0,65.8,0	C60.5,0,56,1.5,52.4,4.6c-3.5,3-6.5,7.2-8.7,12.6c-0.3,0.7,0,1.5,0.7,1.8l1.9,0.9c0.6,0.3,1.4,0.1,1.8-0.5c3.7-5.9,8.2-8.8,13.6-8.8	c3.3,0,6,1.1,8.2,3.2c2.2,2.2,3.3,4.9,3.3,8.5c0,2.8-0.6,5.3-1.9,7.6c-1.2,2.3-3.3,4.3-6.1,5.9c-2.8,1.7-5.7,2.7-8.5,3.1	c-0.7,0.1-1.2,0.7-1.2,1.4v1.7c0,0.8,0.6,1.4,1.4,1.4h1.8c2.8,0,5.5,0.6,8.2,1.7c2.7,1.2,4.8,2.5,6.3,3.9c1,1,2,2.5,2.9,4.4	c1.2,2.6,1.9,5.4,1.9,8.2c0,3.8-1.3,6.9-3.9,9.7c-2.6,2.7-5.6,4.1-9.1,4.1c-1.5,0-2.8-0.2-4.1-0.6c-0.5-0.1-1.7-0.6-4.4-2	c-3.2-1.7-4.2-2-4.6-2.2c-1.1-0.3-2.2-0.5-3.3-0.5c-1.6,0-3,0.5-4.2,1.6c-1.2,1.1-1.8,2.4-1.8,3.9c0,2,1.2,3.7,3.4,5.3	c2.1,1.5,5.9,2.2,11.4,2.2c10.9,0,19.4-3.4,25.2-10.1c4.5-5.1,6.7-11.3,6.7-18.3C89,49.7,87.7,45.3,85.1,41.7z"/>
</svg>
