<svg xmlns="http://www.w3.org/2000/svg" viewBox="0 0 103.32 85">
    <path style="transform: translate(16px, 0)" d="M14.51,57.39H12.77L1,43,12.77,28.7h1.74L7.11,43Zm13.77,0H26.54L14.51,43l12-14.28h1.74L20.88,43Z" fill="#fff"/>
    <path style="transform: translate(-18px, 0)" d="M77.1,28.7h1.74L90.81,43l-12,14.35H77.1L84.44,43Zm13.7,0h1.74L104.32,43,92.54,57.39H90.81L98.27,43Z"  fill="#fff"/>
    <rect x="51.3" width="0.8" height="85" fill="#8a8c8e"/>
    <path d="M36.47,13.22H75.81v1.3q-4.43.14-5.66,1.41t-1.23,6V48.3q0,7.66.88,9.47t5.7,1.81v15H74.3a21.12,21.12,0,0,0-3.39-8.38A11.55,11.55,0,0,0,65.6,62a21,21,0,0,0-7.12-1.07H46.32q-8,0-11.72,4.32a18.21,18.21,0,0,0-4.48,9.39h-1.2v-15q5.66-.49,9.21-6.79A44.81,44.81,0,0,0,43,37.35a105.52,105.52,0,0,0,1.37-15,11.51,11.51,0,0,0-.88-5.17,4,4,0,0,0-2.09-2.07,20.84,20.84,0,0,0-5-.56Zm11.46,2.6q-.88,20.85-3.34,29.25T38,58.29H55.63q4.71,0,5.64-.83t.93-5.36V15.82Z" fill="#fff"/>
</svg>
