<svg xmlns="http://www.w3.org/2000/svg" x="0px" y="0px" viewBox="-958.3 500.8 82.7 82.2">
    <style>
        .TypogrSvg0{opacity:0.74;} .TypogrSvg1{fill:#FFFFFF;} .TypogrSvgSelected{fill:#D4D6D7;}
    </style>
    <path class="TypogrSvg0 TypogrSvg1" d="M-931.7,511l19.2-9.4h1.9v66.7c0,4.4,0.2,7.2,0.6,8.3c0.4,1.1,1.1,1.9,2.3,2.5c1.2,0.6,3.5,0.9,7.1,1v2.2 h-29.7V580c3.7-0.1,6.1-0.4,7.2-1c1.1-0.6,1.8-1.3,2.3-2.3c0.4-1,0.6-3.8,0.6-8.5v-42.6c0-5.7-0.2-9.4-0.6-11.1 c-0.3-1.2-0.8-2.2-1.5-2.7c-0.7-0.6-1.6-0.9-2.6-0.9c-1.4,0-3.4,0.6-6,1.8L-931.7,511z"/>
    <path class="TypogrSvg0 TypogrSvg1" d="M-891,567l-5.5,15.2h-46.6V580c13.7-12.5,23.3-22.7,28.9-30.6c5.6-7.9,8.4-15.2,8.4-21.7 c0-5-1.5-9.1-4.6-12.3c-3.1-3.2-6.7-4.8-11-4.8c-3.9,0-7.4,1.1-10.4,3.4c-3.1,2.3-5.4,5.6-6.8,10h-2.2c1-7.2,3.5-12.7,7.5-16.5 c4-3.8,9-5.8,15-5.8c6.4,0,11.8,2.1,16,6.2c4.3,4.1,6.4,9,6.4,14.6c0,4-0.9,8-2.8,12c-2.9,6.3-7.5,12.9-14,20 c-9.7,10.6-15.7,16.9-18.1,19.1h20.6c4.2,0,7.1-0.2,8.8-0.5c1.7-0.3,3.2-0.9,4.6-1.9c1.4-1,2.5-2.3,3.6-4H-891z"/>
    <path class="TypogrSvg0 TypogrSvg1" d="M-939.6,517.6c2.3-5.3,5.1-9.4,8.5-12.3c3.4-2.9,7.7-4.3,12.8-4.3c6.3,0,11.2,2.1,14.6,6.2 c2.6,3.1,3.8,6.3,3.8,9.8c0,5.7-3.6,11.7-10.8,17.8c4.9,1.9,8.5,4.6,11,8.2c2.5,3.5,3.7,7.7,3.7,12.5c0,6.8-2.2,12.7-6.5,17.8 c-5.7,6.5-13.9,9.8-24.6,9.8c-5.3,0-8.9-0.7-10.9-2c-1.9-1.3-2.9-2.7-2.9-4.2c0-1.1,0.5-2.1,1.4-3c0.9-0.9,2-1.3,3.3-1.3 c1,0,2,0.2,3,0.5c0.7,0.2,2.2,0.9,4.5,2.1c2.3,1.2,3.9,2,4.8,2.2c1.4,0.4,3,0.6,4.6,0.6c4,0,7.4-1.5,10.3-4.6 c2.9-3.1,4.4-6.7,4.4-10.9c0-3.1-0.7-6.1-2-9c-1-2.2-2.1-3.8-3.3-4.9c-1.7-1.6-4-3-6.9-4.2c-2.9-1.3-5.9-1.9-8.9-1.9h-1.9v-1.7 c3.1-0.4,6.1-1.5,9.2-3.3c3.1-1.8,5.3-4,6.7-6.6c1.4-2.6,2.1-5.4,2.1-8.4c0-4-1.3-7.2-3.8-9.7c-2.5-2.5-5.6-3.7-9.3-3.7 c-6,0-11,3.2-15.1,9.7L-939.6,517.6z"/>
    <path class="TypogrSvg0 TypogrSvg1" d="M-890.2,553.1v8.3h-10.6v20.8h-9.6v-20.8h-33.4v-7.5l36.6-52.3h6.4v51.5H-890.2z M-910.4,553.1v-39.2 l-27.7,39.2H-910.4z"/>
    <path class="TypogrSvg0 TypogrSvg1" d="M-893.9,501.7l-4.5,9.9h-23.8l-5.2,10.6c10.3,1.5,18.4,5.3,24.5,11.5c5.2,5.3,7.7,11.5,7.7,18.6 c0,4.2-0.8,8-2.5,11.5c-1.7,3.5-3.8,6.5-6.4,9c-2.6,2.5-5.4,4.5-8.6,6c-4.5,2.1-9,3.2-13.7,3.2c-4.7,0-8.2-0.8-10.3-2.4 c-2.2-1.6-3.2-3.4-3.2-5.3c0-1.1,0.4-2,1.3-2.9c0.9-0.8,2-1.3,3.4-1.3c1,0,1.9,0.2,2.6,0.5c0.8,0.3,2,1.1,3.9,2.4 c2.9,2,5.9,3,8.8,3c4.5,0,8.5-1.7,12-5.2c3.4-3.4,5.2-7.6,5.2-12.5c0-4.8-1.5-9.2-4.6-13.4c-3.1-4.1-7.3-7.3-12.7-9.6 c-4.2-1.7-10-2.8-17.3-3l15.1-30.7H-893.9z"/>
    <path class="TypogrSvg0 TypogrSvg1" d="M-892.2,500.9v2.2c-5.1,0.5-9.3,1.5-12.5,3.1c-3.2,1.5-6.4,3.9-9.6,7c-3.2,3.1-5.8,6.6-7.9,10.5 c-2.1,3.9-3.8,8.5-5.2,13.8c5.6-3.8,11.2-5.8,16.8-5.8c5.4,0,10.1,2.2,14,6.5c4,4.3,5.9,9.9,5.9,16.8c0,6.6-2,12.6-6,18 c-4.8,6.6-11.2,9.9-19.1,9.9c-5.4,0-10-1.8-13.7-5.4c-7.4-6.9-11.1-16-11.1-27c0-7.1,1.4-13.8,4.3-20.1c2.8-6.4,6.9-12,12.1-16.9 c5.3-4.9,10.3-8.2,15.1-10c4.8-1.7,9.3-2.6,13.4-2.6H-892.2z M-928.4,541.7c-0.7,5.2-1,9.5-1,12.7c0,3.7,0.7,7.8,2.1,12.1 c1.4,4.4,3.4,7.8,6.1,10.4c2,1.8,4.4,2.7,7.2,2.7c3.4,0,6.4-1.6,9.1-4.8c2.7-3.2,4-7.7,4-13.6c0-6.6-1.3-12.4-4-17.2 c-2.6-4.9-6.4-7.3-11.2-7.3c-1.5,0-3.1,0.3-4.7,0.9C-922.6,538.3-925.1,539.6-928.4,541.7z"/>
    <path class="TypogrSvg1" d="M-939.4,583v-2.2c5-0.1,9.7-1.3,14.1-3.5c4.3-2.3,8.5-6.2,12.6-11.9c4.1-5.7,6.9-11.9,8.5-18.7 c-6.1,3.9-11.6,5.9-16.5,5.9c-5.6,0-10.3-2.1-14.3-6.4c-4-4.3-5.9-10-5.9-17.1c0-6.9,2-13.1,5.9-18.5c4.8-6.6,11-9.8,18.7-9.8 c6.5,0,12,2.7,16.7,8c5.7,6.6,8.5,14.8,8.5,24.6c0,8.8-2.2,17-6.5,24.5c-4.3,7.6-10.3,13.9-18,18.9c-6.2,4.1-13.1,6.2-20.4,6.2 H-939.4z M-903.3,542.4c0.7-5,1-9.1,1-12.1c0-3.8-0.6-7.8-1.9-12.2c-1.3-4.4-3.1-7.7-5.4-10c-2.3-2.3-5-3.5-8-3.5 c-3.5,0-6.5,1.6-9.1,4.7c-2.6,3.1-3.9,7.7-3.9,13.9c0,8.2,1.7,14.6,5.2,19.2c2.5,3.3,5.6,5,9.3,5c1.8,0,3.9-0.4,6.3-1.3 C-907.3,545.2-905.2,544-903.3,542.4z"/>
    <path class="TypogrSvg0 TypogrSvg1" d="M-933.7,501.6h42.3v2.2l-26.3,78.4h-6.5l23.6-71.1h-21.7c-4.4,0-7.5,0.5-9.4,1.6c-3.3,1.8-5.9,4.5-7.9,8.3 l-1.7-0.6L-933.7,501.6z"/>
    <path class="TypogrSvg0 TypogrSvg1" d="M-922.8,541.7c-6.2-5.1-10.3-9.2-12.1-12.3c-1.8-3.1-2.7-6.3-2.7-9.7c0-5.1,2-9.5,5.9-13.2 c4-3.7,9.2-5.6,15.8-5.6c6.4,0,11.5,1.7,15.4,5.2c3.9,3.5,5.8,7.4,5.8,11.8c0,2.9-1,6-3.1,9c-2.1,3.1-6.5,6.7-13.1,10.8 c6.8,5.3,11.4,9.4,13.6,12.5c2.9,4,4.4,8.1,4.4,12.5c0,5.6-2.1,10.3-6.3,14.2c-4.2,3.9-9.8,5.9-16.7,5.9c-7.5,0-13.3-2.3-17.5-7 c-3.3-3.8-5-7.9-5-12.3c0-3.5,1.2-7,3.5-10.4C-932.6,549.7-928.5,545.9-922.8,541.7z M-920.1,543.9c-3.2,2.7-5.6,5.7-7.2,8.9 c-1.6,3.2-2.3,6.7-2.3,10.4c0,5,1.4,9,4.1,12c2.7,3,6.2,4.5,10.4,4.5c4.2,0,7.5-1.2,10.1-3.6c2.5-2.4,3.8-5.2,3.8-8.6 c0-2.8-0.7-5.3-2.2-7.5C-906.1,555.9-911.7,550.6-920.1,543.9z M-913.7,535.5c4.7-4.2,7.6-7.5,8.8-9.9c1.2-2.4,1.9-5.2,1.9-8.2 c0-4.1-1.1-7.3-3.4-9.6c-2.3-2.3-5.4-3.5-9.4-3.5c-4,0-7.2,1.1-9.7,3.4c-2.5,2.3-3.7,5-3.7,8c0,2,0.5,4,1.5,6.1 c1,2,2.5,3.9,4.4,5.8L-913.7,535.5z"/>
    <path class="TypogrSvg0 TypogrSvg1" style="opacity: 0" d="M-894.6,501.7l-4.5,9.9h-23.8l-5.2,10.6c10.3,1.5,18.4,5.3,24.5,11.5c5.2,5.3,7.7,11.5,7.7,18.6 c0,4.2-0.8,8-2.5,11.5c-1.7,3.5-3.8,6.5-6.4,9c-2.6,2.5-5.4,4.5-8.6,6c-4.5,2.1-9,3.2-13.7,3.2c-4.7,0-8.2-0.8-10.3-2.4 c-2.2-1.6-3.2-3.4-3.2-5.3c0-1.1,0.4-2,1.3-2.9c0.9-0.8,2-1.3,3.4-1.3c1,0,1.9,0.2,2.6,0.5c0.8,0.3,2,1.1,3.9,2.4 c2.9,2,5.9,3,8.8,3c4.5,0,8.5-1.7,12-5.2c3.4-3.4,5.2-7.6,5.2-12.5c0-4.8-1.5-9.2-4.6-13.4c-3.1-4.1-7.3-7.3-12.7-9.6 c-4.2-1.7-10-2.8-17.3-3l15.1-30.7H-894.6z" id="Layer_2"/>
    <path class="TypogrSvg1 TypogrSvgSelected" style="opacity: 0" d="M-922.8,541.7c-6.2-5.1-10.3-9.2-12.1-12.3c-1.8-3.1-2.7-6.3-2.7-9.7c0-5.1,2-9.5,5.9-13.2 c4-3.7,9.2-5.6,15.8-5.6c6.4,0,11.5,1.7,15.4,5.2c3.9,3.5,5.8,7.4,5.8,11.8c0,2.9-1,6-3.1,9c-2.1,3.1-6.5,6.7-13.1,10.8 c6.8,5.3,11.4,9.4,13.6,12.5c2.9,4,4.4,8.1,4.4,12.5c0,5.6-2.1,10.3-6.3,14.2c-4.2,3.9-9.8,5.9-16.7,5.9c-7.5,0-13.3-2.3-17.5-7 c-3.3-3.8-5-7.9-5-12.3c0-3.5,1.2-7,3.5-10.4C-932.6,549.7-928.5,545.9-922.8,541.7z M-920.1,543.9c-3.2,2.7-5.6,5.7-7.2,8.9 c-1.6,3.2-2.3,6.7-2.3,10.4c0,5,1.4,9,4.1,12c2.7,3,6.2,4.5,10.4,4.5c4.2,0,7.5-1.2,10.1-3.6c2.5-2.4,3.8-5.2,3.8-8.6 c0-2.8-0.7-5.3-2.2-7.5C-906.1,555.9-911.7,550.6-920.1,543.9z M-913.7,535.5c4.7-4.2,7.6-7.5,8.8-9.9c1.2-2.4,1.9-5.2,1.9-8.2 c0-4.1-1.1-7.3-3.4-9.6c-2.3-2.3-5.4-3.5-9.4-3.5c-4,0-7.2,1.1-9.7,3.4c-2.5,2.3-3.7,5-3.7,8c0,2,0.5,4,1.5,6.1 c1,2,2.5,3.9,4.4,5.8L-913.7,535.5z"/>
    <path class="TypogrSvg1 TypogrSvgSelected" d="M-894.6,501.7l-4.5,9.9h-23.8l-5.2,10.6c10.3,1.5,18.4,5.3,24.5,11.5c5.2,5.3,7.7,11.5,7.7,18.6 c0,4.2-0.8,8-2.5,11.5c-1.7,3.5-3.8,6.5-6.4,9c-2.6,2.5-5.4,4.5-8.6,6c-4.5,2.1-9,3.2-13.7,3.2c-4.7,0-8.2-0.8-10.3-2.4 c-2.2-1.6-3.2-3.4-3.2-5.3c0-1.1,0.4-2,1.3-2.9c0.9-0.8,2-1.3,3.4-1.3c1,0,1.9,0.2,2.6,0.5c0.8,0.3,2,1.1,3.9,2.4 c2.9,2,5.9,3,8.8,3c4.5,0,8.5-1.7,12-5.2c3.4-3.4,5.2-7.6,5.2-12.5c0-4.8-1.5-9.2-4.6-13.4c-3.1-4.1-7.3-7.3-12.7-9.6 c-4.2-1.7-10-2.8-17.3-3l15.1-30.7H-894.6z" id="Layer_2"/>
</svg>
