<svg xmlns="http://www.w3.org/2000/svg" viewBox="0 0 85 85"><path fill="#6D6E71" d="M42.5 85l-.1-4.6h1.1l.1 4.6h-1.1zm-1.6 0c-.4 0-.8 0-1.2-.1l.3-4.6c.4 0 .7 0 1.1.1l-.2 4.6zm4.2-.1l-.3-4.6c.4 0 .7 0 1.1-.1l.4 4.6c-.4.1-.8.1-1.2.1zm-6.9-.1c-.4 0-.8-.1-1.2-.1l.6-4.5c.4 0 .7.1 1.1.1l-.5 4.5zm9.7-.1l-.6-4.5c.4 0 .7-.1 1.1-.1l.7 4.5c-.4 0-.8 0-1.2.1zm-12.4-.3c-.4-.1-.8-.1-1.2-.2l.9-4.5c.4.1.7.1 1.1.2l-.8 4.5zm15-.2l-.9-4.5c.4-.1.7-.1 1.1-.2l1 4.5c-.4.1-.8.2-1.2.2zm-17.7-.3l-1.2-.3 1.2-4.4c.3.1.7.2 1 .3l-1 4.4zm20.4-.3L52 79.2c.3-.1.7-.2 1-.3l1.3 4.4c-.3.1-.7.2-1.1.3zm-23-.4c-.4-.1-.8-.2-1.2-.4l1.5-4.3c.3.1.7.2 1 .3l-1.3 4.4zm25.6-.3l-1.4-4.4c.3-.1.7-.2 1-.4l1.6 4.3c-.4.2-.8.3-1.2.5zm-28.2-.6c-.4-.1-.8-.3-1.1-.4l1.7-4.2c.3.1.7.3 1 .4l-1.6 4.2zm30.8-.4l-1.7-4.3c.3-.1.7-.3 1-.4l1.8 4.2c-.4.2-.7.4-1.1.5zm-33.3-.6c-.4-.2-.7-.3-1.1-.5l2-4.1c.3.2.6.3 1 .5l-1.9 4.1zm35.8-.5l-2-4.1c.3-.2.6-.3 1-.5l2.1 4.1c-.4.2-.8.4-1.1.5zm-38.2-.7c-.4-.2-.7-.4-1.1-.6l2.3-4c.3.2.6.3.9.5l-2.1 4.1zm40.6-.5l-2.2-4c.3-.2.6-.4.9-.5l2.4 3.9c-.4.2-.8.4-1.1.6zm-43-.9c-.3-.2-.7-.4-1-.6l2.5-3.8.9.6-2.4 3.8zm45.3-.5l-2.5-3.8.9-.6 2.6 3.8c-.3.1-.6.3-1 .6zM18 77.3c-.3-.2-.7-.5-1-.7l2.7-3.7.9.6-2.6 3.8zm49.9-.7l-2.7-3.7c.3-.2.6-.4.9-.7l2.8 3.6c-.4.3-.7.6-1 .8zm-52-1c-.3-.3-.6-.5-.9-.8l3-3.5c.3.2.5.5.8.7l-2.9 3.6zm54.1-.7l-3-3.5c.3-.2.5-.5.8-.7l3.1 3.4c-.3.3-.6.5-.9.8zm-56.2-1.1c-.3-.3-.6-.5-.9-.8l3.2-3.3c.3.3.5.5.8.7l-3.1 3.4zm58.2-.7l-3.2-3.3c.3-.2.5-.5.8-.8l3.3 3.2-.9.9zm-60.1-1.2c-.3-.3-.6-.6-.8-.9l3.4-3.1c.2.3.5.5.7.8l-3.3 3.2zm62-.8L70.5 68c.2-.3.5-.5.7-.8l3.5 3c-.3.3-.5.6-.8.9zM10 69.9c-.3-.3-.5-.6-.8-.9l3.6-2.9c.2.3.5.6.7.8l-3.5 3zm65.7-.8l-3.6-2.9c.2-.3.4-.6.7-.9l3.7 2.8c-.3.3-.6.6-.8 1zM8.3 67.8c-.2-.3-.5-.7-.7-1l3.8-2.6.6.9-3.7 2.7zm69-.9l-3.7-2.6.6-.9 3.8 2.5c-.2.3-.5.7-.7 1zM6.8 65.5c-.2-.3-.4-.7-.6-1l3.9-2.4.6.9-3.9 2.5zm72-.9l-3.9-2.4.6-.9 4 2.3c-.3.3-.5.7-.7 1zM5.4 63.2c-.2-.4-.4-.7-.6-1.1L8.9 60c.2.3.3.6.5 1l-4 2.2zm74.7-.9L76 60.2c.2-.3.3-.6.5-1l4.1 2c-.1.3-.3.7-.5 1.1zm-76-1.5c-.1-.4-.3-.8-.5-1.1l4.2-1.9c.1.3.3.7.5 1l-4.2 2zm77.2-1l-4.2-1.9c.1-.3.3-.7.4-1l4.2 1.7c-.1.5-.2.8-.4 1.2zM3 58.3c-.1-.4-.3-.8-.4-1.1l4.3-1.6c.1.3.3.7.4 1L3 58.3zm79.3-1L78 55.7c.1-.3.2-.7.4-1l4.3 1.5c-.1.3-.2.7-.4 1.1zM2.1 55.7c-.1-.4-.2-.8-.4-1.2l4.4-1.3c.1.3.2.7.3 1l-4.3 1.5zm81.1-1l-4.4-1.3c.1-.3.2-.7.3-1l4.4 1.2c-.1.3-.2.7-.3 1.1zM1.3 53.1L1 51.9l4.5-1c.1.4.2.7.3 1l-4.5 1.2zm82.6-1l-4.5-1c.1-.3.2-.7.2-1.1l4.5.9c0 .4-.1.8-.2 1.2zM.7 50.4c-.1-.4-.1-.8-.2-1.2l4.5-.7c.1.4.1.7.2 1.1l-4.5.8zm83.7-1l-4.5-.7c.1-.4.1-.7.2-1.1l4.5.6c0 .4-.1.8-.2 1.2zM.3 47.7c0-.4-.1-.8-.1-1.2l4.6-.4c0 .4.1.7.1 1.1l-4.6.5zm84.5-1l-4.6-.4c0-.4.1-.7.1-1.1l4.6.3c0 .4-.1.8-.1 1.2zM.1 45c0-.4 0-.8-.1-1.2l4.6-.1v1.1L.1 45zM85 44l-4.6-.2v-1.1H85V44zM4.6 42.3H0v-1.2l4.6.1v1.1zm75.8-.9v-1.1L85 40c0 .4 0 .8.1 1.2l-4.7.2zM4.7 39.9l-4.6-.3c0-.4.1-.8.1-1.2l4.6.4c-.1.4-.1.8-.1 1.1zm75.5-.9c0-.4-.1-.7-.1-1.1l4.5-.6c0 .4.1.8.1 1.2l-4.5.5zM4.9 37.5l-4.5-.6c.1-.4.1-.8.2-1.2l4.5.7c-.1.4-.1.7-.2 1.1zm75-.9c-.1-.4-.1-.7-.2-1.1l4.5-.8c.1.4.1.8.2 1.2l-4.5.7zM5.3 35.1l-4.5-.9.3-1.2 4.5 1c-.1.4-.2.7-.3 1.1zm74.2-.9c-.1-.4-.2-.7-.3-1l4.4-1.1.3 1.2-4.4.9zM5.9 32.7l-4.4-1.2.3-1.2 4.4 1.3c-.1.4-.2.8-.3 1.1zm73-.9c-.1-.3-.2-.7-.3-1l4.4-1.4c.1.4.2.8.4 1.2l-4.5 1.2zM6.6 30.4l-4.3-1.5c.1-.4.3-.8.4-1.1L7 29.4c-.2.3-.3.7-.4 1zm71.5-.9c-.1-.3-.3-.7-.4-1l4.3-1.7c.1.4.3.8.4 1.1l-4.3 1.6zM7.4 28.1l-4.2-1.7c.2-.4.3-.7.5-1.1l4.2 1.9c-.2.3-.4.6-.5.9zm69.8-.8c-.1-.3-.3-.7-.5-1l4.1-2c.2.4.3.7.5 1.1l-4.1 1.9zM8.4 25.9l-4.1-2c.2-.4.4-.7.5-1.1L8.9 25c-.2.3-.3.6-.5.9zm67.8-.8c-.2-.3-.3-.6-.5-1l4-2.2c.2.4.4.7.6 1.1l-4.1 2.1zM9.5 23.8l-4-2.3c.2-.4.4-.7.6-1l3.9 2.4c-.1.3-.3.6-.5.9zm65.5-.9l-.6-.9 3.9-2.5c.2.3.4.7.6 1L75 22.9zm-64.2-1.2L7 19.2c.2-.3.4-.7.7-1l3.8 2.6c-.3.3-.5.6-.7.9zm62.9-.8l-.6-.9 3.7-2.7c.2.3.5.7.7 1l-3.8 2.6zm-61.5-1.2L8.5 17c.2-.3.5-.6.7-1l3.6 2.9c-.2.3-.4.5-.6.8zm60-.7c-.2-.3-.5-.6-.7-.8l3.5-2.9c.3.3.5.6.8.9L72.2 19zm-58.5-1.2l-3.5-3c.3-.3.5-.6.8-.9l3.4 3.1c-.2.3-.4.6-.7.8zm56.9-.7c-.2-.3-.5-.5-.7-.8l3.3-3.2c.3.3.6.6.8.9l-3.4 3.1zM15.4 16l-3.3-3.2.9-.9 3.2 3.3-.8.8zm53.5-.7c-.3-.3-.5-.5-.8-.7l3.1-3.4c.3.3.6.6.9.8l-3.2 3.3zm-51.8-.9L14 11c.3-.3.6-.5.9-.8l3 3.5c-.3.2-.5.4-.8.7zm50.1-.7c-.3-.2-.5-.5-.8-.7l2.9-3.6c.3.3.6.5.9.8l-3 3.5zM19 12.8l-2.8-3.6c.3-.3.6-.5 1-.7l2.7 3.7c-.4.1-.7.4-.9.6zm46.3-.6l-.9-.6L67 7.8c.3.2.7.5 1 .7l-2.7 3.7zm-44.4-.9l-2.6-3.8c.3-.2.7-.5 1-.7l2.5 3.8c-.3.3-.6.5-.9.7zm42.4-.5l-.9-.6 2.4-3.9c.3.2.7.4 1 .7l-2.5 3.8zM23 10l-2.4-3.9c.3-.2.7-.4 1-.6l2.3 4c-.3.2-.6.3-.9.5zm38.2-.5c-.3-.2-.6-.4-.9-.5l2.1-4c.4.2.7.4 1.1.6l-2.3 3.9zm-36.1-.7l-2.1-4c.4-.2.7-.4 1.1-.5l2 4.1c-.4.1-.7.3-1 .4zm34-.4c-.3-.2-.6-.3-1-.5L60 3.8c.4.2.7.3 1.1.5l-2 4.1zm-31.8-.6l-1.8-4.2c.4-.2.7-.3 1.1-.5l1.7 4.2c-.4.2-.7.3-1 .5zm29.5-.4c-.3-.1-.7-.3-1-.4l1.6-4.3c.4.1.8.3 1.1.4l-1.7 4.3zm-27.3-.5L28 2.6c.4-.1.8-.3 1.1-.4l1.4 4.3c-.3.1-.6.3-1 .4zm25.1-.3c-.3-.1-.7-.2-1-.3l1.3-4.4c.4.1.8.2 1.1.3l-1.4 4.4zm-22.8-.5l-1.3-4.4 1.2-.3 1.2 4.4c-.4.1-.7.2-1.1.3zm20.4-.2c-.3-.1-.7-.2-1-.3l1-4.5 1.2.3-1.2 4.5zm-18-.4l-1-4.5c.4 0 .8-.1 1.2-.2l.9 4.5c-.4.1-.8.1-1.1.2zm15.7-.2c-.4-.1-.7-.1-1.1-.2l.8-4.5c.4.1.8.1 1.2.2l-.9 4.5zm-13.3-.2L35.9.6c.4-.1.8-.1 1.2-.2l.6 4.5c-.4.1-.8.1-1.1.2zm10.9-.2c-.4 0-.7-.1-1.1-.1l.5-4.6c.4 0 .8.1 1.2.1l-.6 4.6zM39 4.8L38.6.2c.4 0 .8-.1 1.2-.1l.3 4.6c-.4 0-.7 0-1.1.1zm6.1-.1c-.4 0-.7 0-1.1-.1l.2-4.6c.4 0 .8 0 1.2.1l-.3 4.6zm-3.7-.1L41.3 0h1.3v4.6H41.4z"/><path fill="#FFFFFF" d="M42.8 16.3h-1.5L40.9 0h2.3z"/></svg>
