<svg xmlns="http://www.w3.org/2000/svg" x="0px" y="0px" viewBox="-958.5 499.4 82.9 85">
    <style>
        .NewsSvg0{fill:#F9A33F;} .NewsSvg1{fill:#231F20;}
    </style>
    <polygon class="NewsSvg0" points="-885.8,541.9 -875.5,551.4 -888.8,555.5 -883.8,568.4 -897.5,566.3 -898.6,580.2 -910,572.4	-917,584.4 -924,572.4 -935.4,580.2 -936.5,566.3 -950.2,568.4 -945.2,555.5 -958.5,551.4 -948.2,541.9 -958.5,532.4 -945.2,528.3	-950.2,515.4 -936.5,517.5 -935.4,503.6 -924,511.4 -917,499.4 -910,511.4 -898.6,503.6 -897.5,517.5 -883.8,515.4 -888.8,528.3	-875.5,532.4"/>
    <path class="NewsSvg1" d="M-934.6,545.1l0.5,3.2c0.1,0.5,0.2,0.8,0.3,1c0.1,0.1,0.2,0.2,0.4,0.3c0.2,0.1,0.4,0.1,0.7,0l0.3-0.1l0,0.3 l-5.4,0.9l0-0.3l0.3-0.1c0.3,0,0.5-0.1,0.7-0.3c0.1-0.1,0.2-0.2,0.2-0.4c0-0.1,0-0.5-0.1-1l-1.1-6.7c-0.1-0.5-0.2-0.8-0.2-1 c-0.1-0.1-0.2-0.2-0.4-0.3c-0.2-0.1-0.4-0.1-0.7,0l-0.3,0.1l0-0.3l5.4-0.9l0,0.3l-0.3,0.1c-0.3,0-0.5,0.1-0.7,0.3 c-0.1,0.1-0.2,0.2-0.2,0.4c0,0.1,0,0.5,0.1,1l0.5,2.9l3.6-0.6l-0.5-2.9c-0.1-0.5-0.2-0.8-0.2-1c-0.1-0.1-0.2-0.2-0.4-0.3 c-0.2-0.1-0.4-0.1-0.7,0l-0.3,0.1l0-0.3l5.4-0.9l0,0.3l-0.3,0.1c-0.3,0.1-0.5,0.1-0.7,0.3c-0.1,0.1-0.2,0.2-0.2,0.4 c0,0.1,0,0.5,0.1,1l1.1,6.7c0.1,0.5,0.2,0.8,0.2,1c0.1,0.1,0.2,0.2,0.4,0.3c0.2,0.1,0.4,0.1,0.7,0l0.3-0.1l0,0.3l-5.4,0.9l0-0.3 l0.3-0.1c0.3-0.1,0.5-0.1,0.7-0.3c0.1-0.1,0.2-0.2,0.2-0.4c0-0.1,0-0.5-0.1-1l-0.5-3.2L-934.6,545.1z"/>
    <path class="NewsSvg1" d="M-922.7,542.4l1.4-0.2c1.5-0.2,2.6-0.2,3.3,0.2s1.2,1,1.3,1.9c0.1,0.6,0,1.1-0.2,1.6c-0.3,0.5-0.6,0.9-1.1,1.2 c-0.5,0.3-1.2,0.5-2.2,0.7l-5.5,0.9l0-0.3c0.6-0.1,1-0.3,1.2-0.5c0.2-0.2,0.2-0.6,0.1-1.1l-1.1-6.8c-0.1-0.7-0.3-1.2-0.4-1.3 c-0.2-0.1-0.6-0.2-1.2-0.1l0-0.3l5.3-0.9l0,0.3c-0.5,0.1-0.8,0.2-0.9,0.3c-0.1,0.1-0.2,0.2-0.3,0.4c0,0.1,0,0.5,0.1,1L-922.7,542.4 z M-922.6,543.1l0.5,3.1c0.1,0.5,0.2,0.8,0.4,1c0.2,0.2,0.4,0.2,0.8,0.2c0.6-0.1,1-0.4,1.2-0.8c0.2-0.4,0.3-1,0.2-1.6 c-0.1-0.6-0.3-1-0.7-1.4s-0.7-0.5-1-0.6C-921.5,542.9-921.9,543-922.6,543.1z"/>
    <path class="NewsSvg1" d="M-910.6,541.1l-1.8,0.3l0.5,3.2c0.1,0.5,0.2,0.8,0.2,0.9c0.1,0.1,0.2,0.2,0.4,0.3c0.2,0.1,0.4,0.1,0.8,0 l0.3-0.1l0,0.3l-5.4,0.9l0-0.3l0.3-0.1c0.3-0.1,0.6-0.1,0.7-0.3c0.1-0.1,0.2-0.3,0.2-0.4c0-0.2,0-0.5-0.1-0.9l-1.1-6.7 c-0.1-0.5-0.2-0.8-0.2-0.9s-0.2-0.2-0.4-0.3c-0.2-0.1-0.4-0.1-0.8,0l-0.3,0.1l0-0.3l5.4-0.9l0,0.3l-0.3,0.1 c-0.3,0.1-0.6,0.1-0.7,0.3c-0.1,0.1-0.2,0.3-0.2,0.4c0,0.2,0,0.5,0.1,0.9l0.5,2.9l1.8-0.3c-0.1-1.5,0.3-2.8,1.2-3.9 c0.9-1.1,2.1-1.7,3.5-2c1.1-0.2,2.1-0.1,3,0.3c0.9,0.4,1.6,0.9,2.2,1.6c0.6,0.7,0.9,1.6,1.1,2.5c0.2,1.5,0,2.8-0.8,4.1 c-0.8,1.2-2,2-3.7,2.2c-1.6,0.3-3,0-4.1-0.8C-909.5,543.7-910.2,542.6-910.6,541.1z M-905.9,535.2c-0.9,0.1-1.5,0.7-1.8,1.5 c-0.4,0.9-0.4,2.1-0.1,3.8c0.3,1.5,0.7,2.7,1.3,3.4s1.3,1,2.2,0.9c0.9-0.2,1.5-0.7,1.8-1.6c0.3-0.9,0.4-2.1,0.1-3.6 C-903,536.3-904.1,534.9-905.9,535.2z"/>
    <path class="NewsSvg1" d="M-896.1,540.3l-0.3,0.1c-0.1-0.6-0.4-1.2-0.7-2l-0.7-1.6c-0.4-0.9-0.6-1.6-0.7-2.1c-0.1-0.4,0-0.7,0.2-1 s0.5-0.4,0.8-0.5c0.4-0.1,0.7,0,1,0.2c0.3,0.2,0.5,0.5,0.5,0.9c0.1,0.4,0.1,1.1,0,2.2l-0.1,1.7 C-896.2,538.7-896.2,539.5-896.1,540.3z M-896.1,541.4c0.3-0.1,0.6,0,0.9,0.2c0.3,0.2,0.4,0.5,0.5,0.8c0.1,0.3,0,0.6-0.2,0.9 s-0.5,0.4-0.8,0.5s-0.6,0-0.9-0.2c-0.3-0.2-0.4-0.5-0.5-0.8c-0.1-0.3,0-0.6,0.2-0.9C-896.7,541.6-896.4,541.4-896.1,541.4z"/>
</svg>
