<svg xmlns="http://www.w3.org/2000/svg" viewBox="0 0 242 164"><style>.st0{fill:url(#SVGID_1_);} .st1{fill:url(#SVGID_2_);} .st2{fill:url(#SVGID_3_);} .st3{fill:url(#SVGID_4_);} .st4{fill:url(#SVGID_5_);} .st5{fill:url(#SVGID_6_);} .st6{fill:url(#SVGID_7_);} .st7{fill:url(#SVGID_8_);} .st8{fill:url(#SVGID_9_);} .st9{fill:url(#SVGID_10_);} .st10{fill:url(#SVGID_11_);} .st11{fill:url(#SVGID_12_);} .st12{fill:url(#SVGID_13_);} .st13{fill:url(#SVGID_14_);} .st14{fill:url(#SVGID_15_);}</style><linearGradient id="SVGID_1_" x1="152.9" x2="152.9" y1="-245.75" y2="-88.747" gradientUnits="userSpaceOnUse" gradientTransform="translate(0 246.11)"><stop offset="0" stop-color="#F8C514"/><stop offset="1" stop-color="#F49F0C"/></linearGradient><circle cx="152.9" cy="18.5" r="16.8" class="st0"/><linearGradient id="SVGID_2_" x1="221.145" x2="221.145" y1="-238.248" y2="-81.244" gradientUnits="userSpaceOnUse" gradientTransform="translate(0 246.11)"><stop offset="0" stop-color="#F8C514"/><stop offset="1" stop-color="#F49F0C"/></linearGradient><path d="M200.3 159.1h41.6v4.9h-41.6z" class="st1"/><linearGradient id="SVGID_3_" x1="171.5" x2="171.5" y1="-244.465" y2="-90.68" gradientUnits="userSpaceOnUse" gradientTransform="matrix(1.0444 .0025 -.0025 1.0422 -5.87 253.408)"><stop offset="0" stop-color="#F8C514"/><stop offset="1" stop-color="#F49F0C"/></linearGradient><path d="M218.2 159.1l-93.6-93.8 2.3-2.3 95.7 95.8z" class="st2"/><linearGradient id="SVGID_4_" x1="146.1" x2="146.1" y1="-245.75" y2="-88.747" gradientUnits="userSpaceOnUse" gradientTransform="translate(0 246.11)"><stop offset="0" stop-color="#F8C514"/><stop offset="1" stop-color="#F49F0C"/></linearGradient><path d="M138.7 84.3V59c0-4.1 3.3-7.4 7.4-7.4 4.1 0 7.4 3.3 7.4 7.4v25.3c0 4.1-3.3 7.4-7.4 7.4-4.1 0-7.4-3.3-7.4-7.4z" class="st3"/><linearGradient id="SVGID_5_" x1="155.05" x2="155.05" y1="-245.75" y2="-88.747" gradientUnits="userSpaceOnUse" gradientTransform="translate(0 246.11)"><stop offset="0" stop-color="#F8C514"/><stop offset="1" stop-color="#F49F0C"/></linearGradient><path d="M158.8 107.4l-17.9-17.9c-2.9-2.9-2.9-7.5 0-10.4 2.9-2.9 7.5-2.9 10.4 0L169.2 97c2.9 2.9 2.9 7.5 0 10.4-2.9 2.9-7.6 2.9-10.4 0z" class="st4"/><linearGradient id="SVGID_6_" x1="116.7" x2="116.7" y1="-245.75" y2="-88.747" gradientUnits="userSpaceOnUse" gradientTransform="translate(0 246.11)"><stop offset="0" stop-color="#F8C514"/><stop offset="1" stop-color="#F49F0C"/></linearGradient><path d="M79.9 81.4v-4.3c0-3.5 1.4-6.8 3.8-9.3l17.1-17.1-12.3-12.2c-2.1-2.1-3.2-4.9-3.2-7.8 0-3.6 2.9-6.6 6.6-6.6h28.6c3.5 0 6.8 1.4 9.3 3.8l19.9 19.9c2.5 2.5 3.8 5.8 3.8 9.3v3.6l-10.1-4.6-27.2 27.2-18.1-1.9H79.9z" class="st5"/><linearGradient id="SVGID_7_" x1="88.9" x2="88.9" y1="-244.76" y2="-89.482" gradientUnits="userSpaceOnUse" gradientTransform="translate(0 246.11)"><stop offset="0" stop-color="#F8C514"/><stop offset="1" stop-color="#F49F0C"/></linearGradient><circle cx="88.9" cy="81.5" r="9" class="st6"/><g class="footLeft"><linearGradient id="SVGID_8_" x1="76.582" x2="76.582" y1="-245.768" y2="-88.765" gradientUnits="userSpaceOnUse" gradientTransform="matrix(1 .00622 -.00622 1 -.8 245.65)"><stop offset="0" stop-color="#F8C514"/><stop offset="1" stop-color="#F49F0C"/></linearGradient><path d="M57.7 141l24.8-24.4c3.5-3.5 9.3-3.4 12.8.1s3.4 9.3-.1 12.8l-24.8 24.4c-3.5 3.5-9.3 3.4-12.8-.1-3.4-3.6-3.4-9.3.1-12.8z" class="st7"/><linearGradient id="SVGID_9_" x1="88.882" x2="88.882" y1="-245.768" y2="-88.765" gradientUnits="userSpaceOnUse" gradientTransform="matrix(1 .00622 -.00622 1 -.8 245.65)"><stop offset="0" stop-color="#F8C514"/><stop offset="1" stop-color="#F49F0C"/></linearGradient><path d="M79.8 122.9l.3-41.4c0-5 4.2-9 9.1-8.9 5 0 9 4.2 8.9 9.1l-.3 41.3c0 5-4.2 9-9.1 8.9-4.9 0-8.9-4-8.9-9z" class="st8"/></g><linearGradient id="SVGID_10_" x1="98.9" x2="98.9" y1="-147.07" y2="9.933" gradientUnits="userSpaceOnUse" gradientTransform="matrix(1 0 0 -1 0 14.29)"><stop offset="0" stop-color="#F49F0C"/><stop offset="1" stop-color="#F8C514"/></linearGradient><path d="M88.9 76.9h20v13.6h-20z" class="st9"/><linearGradient id="SVGID_11_" x1="107" x2="107" y1="-245.379" y2="-89.023" gradientUnits="userSpaceOnUse" gradientTransform="translate(0 246.11)"><stop offset="0" stop-color="#F8C514"/><stop offset="1" stop-color="#F49F0C"/></linearGradient><circle cx="107" cy="81.4" r="9.1" class="st10"/><g class="footRight"><linearGradient id="SVGID_12_" x1="136.3" x2="136.3" y1="-245.75" y2="-88.747" gradientUnits="userSpaceOnUse" gradientTransform="translate(0 246.11)"><stop offset="0" stop-color="#F8C514"/><stop offset="1" stop-color="#F49F0C"/></linearGradient><path d="M127.3 147.5v-36.8c0-5 4.1-9 9-9 5 0 9 4.1 9 9v36.8c0 5-4.1 9-9 9-5 .1-9-4-9-9z" class="st11"/><linearGradient id="SVGID_13_" x1="121.65" x2="121.65" y1="-245.75" y2="-88.747" gradientUnits="userSpaceOnUse" gradientTransform="translate(0 246.11)"><stop offset="0" stop-color="#F8C514"/><stop offset="1" stop-color="#F49F0C"/></linearGradient><path d="M129.9 117.1l-29.3-29.3c-3.5-3.5-3.5-9.3 0-12.8s9.3-3.5 12.8 0l29.3 29.3c3.5 3.5 3.5 9.3 0 12.8-3.5 3.6-9.2 3.6-12.8 0z" class="st12"/></g><linearGradient id="SVGID_14_" x1="146.1" x2="146.1" y1="-245.75" y2="-88.747" gradientUnits="userSpaceOnUse" gradientTransform="translate(0 246.11)"><stop offset="0" stop-color="#F8C514"/><stop offset="1" stop-color="#F49F0C"/></linearGradient><circle cx="146.1" cy="59" r="7.4" class="st13"/><linearGradient id="SVGID_15_" x1="146.1" x2="146.1" y1="-245.75" y2="-88.747" gradientUnits="userSpaceOnUse" gradientTransform="translate(0 246.11)"><stop offset="0" stop-color="#F8C514"/><stop offset="1" stop-color="#F49F0C"/></linearGradient><circle cx="146.1" cy="84.3" r="7.4" class="st14"/></svg>
