<svg xmlns="http://www.w3.org/2000/svg" x="0px" y="0px" viewBox="-958.3 500.8 82.7 82.2">
    <style>
        .SlashesSvg0{fill:#00dbff;} .SlashesSvg1{fill:#FFFFFF;} .SlashesSvgSelected{fill:#ff6b00;}
    </style>
    <polygon class="SlashesSvg0" points="-942.1,500.8 -945.1,500.8 -957.1,535.4 -954.1,535.4"/>
    <polygon class="SlashesSvg0" points="-920.8,500.8 -923.8,500.8 -935.7,535.4 -932.7,535.4"/>
    <polygon class="SlashesSvg1" points="-898.2,535.4 -901.2,535.4 -913.2,500.8 -910.2,500.8"/>
    <polygon class="SlashesSvg0" points="-877.1,535.4 -880.1,535.4 -892.1,500.8 -889.1,500.8"/>
    <polygon class="SlashesSvg1" points="-942.1,548.4 -945.1,548.4 -957.1,583 -954.1,583"/>
    <polygon class="SlashesSvg1 SlashesSvgSelected" points="-920.8,548.4 -923.8,548.4 -935.7,583 -932.7,583"/>
    <polygon class="SlashesSvg1" points="-898.2,583 -901.2,583 -913.2,548.4 -910.2,548.4"/>
    <polygon class="SlashesSvg0" points="-876.9,548.4 -879.9,548.4 -891.9,583 -888.9,583"/>
</svg>
