<svg xmlns="http://www.w3.org/2000/svg" x="0px" y="0px" viewBox="-958.3 500.8 82.7 82.2">
    <style>
        .HalfYearSvg0{fill:#FFFFFF;}
    </style>
    <path class="HalfYearSvg0" d="M-877.4,558.1l-1.4,3.1h-7.3l-1.6,3.3c3.2,0.5,5.7,1.7,7.6,3.5c1.6,1.6,2.4,3.6,2.4,5.8c0,1.3-0.3,2.5-0.8,3.6 c-0.5,1.1-1.2,2-2,2.8c-0.8,0.8-1.7,1.4-2.6,1.9c-1.4,0.7-2.8,1-4.3,1c-1.5,0-2.5-0.2-3.2-0.7c-0.7-0.5-1-1-1-1.6 c0-0.3,0.1-0.6,0.4-0.9c0.3-0.3,0.6-0.4,1-0.4c0.3,0,0.6,0,0.8,0.1s0.6,0.3,1.2,0.7c0.9,0.6,1.8,0.9,2.7,0.9c1.4,0,2.6-0.5,3.7-1.6 s1.6-2.4,1.6-3.9c0-1.5-0.5-2.9-1.4-4.1c-0.9-1.3-2.3-2.3-3.9-3c-1.3-0.5-3.1-0.9-5.3-0.9l4.7-9.5H-877.4z" id="Layer_3"/>
    <path class="HalfYearSvg0" d="M-876.3,516.7v2.6h-3.3v6.4h-3v-6.4h-10.3V517l11.3-16.2h2v15.9H-876.3z M-882.5,516.7v-12.1l-8.6,12.1H-882.5 z" id="Layer_2"/>
    <g>
        <path class="HalfYearSvg0" d="M-940.8,516.7v2.6h-3.3v6.4h-3v-6.4h-10.3V517l11.3-16.2h2v15.9H-940.8z M-947.1,516.7v-12.1l-8.6,12.1H-947.1 z"/>
        <path class="HalfYearSvg0" d="M-937.6,526.2v-0.7c1.6,0,3-0.4,4.4-1.1c1.3-0.7,2.6-1.9,3.9-3.7c1.3-1.8,2.1-3.7,2.6-5.8 c-1.9,1.2-3.6,1.8-5.1,1.8c-1.7,0-3.2-0.7-4.4-2c-1.2-1.3-1.8-3.1-1.8-5.3c0-2.1,0.6-4,1.8-5.7c1.5-2,3.4-3,5.8-3 c2,0,3.7,0.8,5.2,2.5c1.8,2.1,2.6,4.6,2.6,7.6c0,2.7-0.7,5.2-2,7.6c-1.3,2.3-3.2,4.3-5.6,5.8c-1.9,1.3-4,1.9-6.3,1.9H-937.6z M-926.4,513.7c0.2-1.6,0.3-2.8,0.3-3.7c0-1.2-0.2-2.4-0.6-3.8c-0.4-1.4-1-2.4-1.7-3.1c-0.7-0.7-1.6-1.1-2.5-1.1 c-1.1,0-2,0.5-2.8,1.4c-0.8,1-1.2,2.4-1.2,4.3c0,2.5,0.5,4.5,1.6,5.9c0.8,1,1.7,1.5,2.9,1.5c0.6,0,1.2-0.1,2-0.4 C-927.7,514.5-927,514.2-926.4,513.7z"/>
        <path class="HalfYearSvg0" d="M-916.5,522.2c0.6,0,1,0.2,1.4,0.6c0.4,0.4,0.6,0.9,0.6,1.4c0,0.6-0.2,1-0.6,1.4c-0.4,0.4-0.9,0.6-1.4,0.6 s-1-0.2-1.4-0.6c-0.4-0.4-0.6-0.9-0.6-1.4c0-0.6,0.2-1,0.6-1.4C-917.5,522.4-917.1,522.2-916.5,522.2z"/>
        <path class="HalfYearSvg0" d="M-908.2,501.3h13.1v0.7l-8.1,24.2h-2l7.3-22h-6.7c-1.4,0-2.3,0.2-2.9,0.5c-1,0.6-1.8,1.4-2.4,2.6l-0.5-0.2 L-908.2,501.3z"/>
        <path class="HalfYearSvg0" d="M-942,558.1l-1.4,3.1h-7.3l-1.6,3.3c3.2,0.5,5.7,1.7,7.6,3.5c1.6,1.6,2.4,3.6,2.4,5.8c0,1.3-0.3,2.5-0.8,3.6 c-0.5,1.1-1.2,2-2,2.8c-0.8,0.8-1.7,1.4-2.6,1.9c-1.4,0.7-2.8,1-4.3,1c-1.5,0-2.5-0.2-3.2-0.7c-0.7-0.5-1-1-1-1.6 c0-0.3,0.1-0.6,0.4-0.9c0.3-0.3,0.6-0.4,1-0.4c0.3,0,0.6,0,0.8,0.1c0.2,0.1,0.6,0.3,1.2,0.7c0.9,0.6,1.8,0.9,2.7,0.9 c1.4,0,2.6-0.5,3.7-1.6s1.6-2.4,1.6-3.9c0-1.5-0.5-2.9-1.4-4.1c-0.9-1.3-2.3-2.3-3.9-3c-1.3-0.5-3.1-0.9-5.3-0.9l4.7-9.5H-942z"/>
        <path class="HalfYearSvg0" d="M-938.2,570.4c0-2.8,0.4-5.2,1.3-7.2c0.8-2,2-3.5,3.3-4.5c1.1-0.8,2.2-1.2,3.3-1.2c1.9,0,3.6,1,5,2.9 c1.9,2.4,2.8,5.6,2.8,9.6c0,2.8-0.4,5.2-1.2,7.2c-0.8,2-1.9,3.4-3.1,4.3c-1.3,0.9-2.5,1.3-3.7,1.3c-2.3,0-4.3-1.4-5.8-4.1 C-937.6,576.5-938.2,573.7-938.2,570.4z M-934.7,570.9c0,3.4,0.4,6.1,1.2,8.2c0.7,1.8,1.7,2.7,3.1,2.7c0.6,0,1.3-0.3,2-0.9 s1.2-1.6,1.6-2.9c0.6-2.1,0.8-5,0.8-8.7c0-2.8-0.3-5.1-0.9-7c-0.4-1.4-1-2.4-1.7-2.9c-0.5-0.4-1.1-0.6-1.8-0.6 c-0.8,0-1.5,0.4-2.2,1.1c-0.9,1-1.5,2.6-1.8,4.7C-934.5,566.7-934.7,568.8-934.7,570.9z"/>
        <path class="HalfYearSvg0" d="M-916.5,579c0.6,0,1,0.2,1.4,0.6c0.4,0.4,0.6,0.9,0.6,1.4c0,0.6-0.2,1-0.6,1.4c-0.4,0.4-0.9,0.6-1.4,0.6 s-1-0.2-1.4-0.6c-0.4-0.4-0.6-0.9-0.6-1.4c0-0.6,0.2-1,0.6-1.4C-917.5,579.2-917.1,579-916.5,579z"/>
        <path class="HalfYearSvg0" d="M-895,577.8l-1.7,4.7h-14.4v-0.7c4.2-3.9,7.2-7,8.9-9.5c1.7-2.4,2.6-4.7,2.6-6.7c0-1.5-0.5-2.8-1.4-3.8 c-0.9-1-2.1-1.5-3.4-1.5c-1.2,0-2.3,0.4-3.2,1.1s-1.7,1.7-2.1,3.1h-0.7c0.3-2.2,1.1-3.9,2.3-5.1c1.2-1.2,2.8-1.8,4.7-1.8 c2,0,3.6,0.6,5,1.9c1.3,1.3,2,2.8,2,4.5c0,1.2-0.3,2.5-0.9,3.7c-0.9,1.9-2.3,4-4.3,6.2c-3,3.3-4.9,5.2-5.6,5.9h6.4 c1.3,0,2.2,0,2.7-0.1c0.5-0.1,1-0.3,1.4-0.6c0.4-0.3,0.8-0.7,1.1-1.3H-895z"/>
        <rect x="-958.1" y="541" class="HalfYearSvg0" width="82.2" height="1"/>
    </g>
</svg>
