<svg xmlns="http://www.w3.org/2000/svg" x="0px" y="0px" viewBox="-958.3 500.8 82.7 82.2">
    <style>
        .SumColumnsSvg0{fill:#FFFFFF;} .SumColumnsSvg1{fill:#F6932F;}
    </style>
    <path class="SumColumnsSvg0" d="M-954.1,500.9v0.2c-0.2,0-0.3,0-0.4,0.1c-0.1,0.1-0.1,0.1-0.2,0.2s0,0.3,0,0.5v2.2c0,0.3,0,0.4,0,0.5 c0,0.1,0.1,0.1,0.2,0.2c0.1,0.1,0.2,0.1,0.4,0.1v0.2h-2v-0.2c0.2,0,0.4,0,0.5-0.1c0.1-0.1,0.1-0.3,0.1-0.7v-0.9l-0.2,0 c0,0-0.1,0-0.1,0l-1.3,1.8h-1v-0.2c0.1,0,0.3,0,0.3-0.1c0.1,0,0.2-0.2,0.3-0.4l1-1.3c-0.7-0.2-1-0.6-1-1.1c0-0.3,0.1-0.5,0.4-0.7 c0.2-0.2,0.7-0.3,1.3-0.3H-954.1z M-955.5,501.3c-0.1,0-0.2,0-0.3,0c-0.3,0-0.5,0.1-0.7,0.2c-0.1,0.1-0.2,0.3-0.2,0.5 c0,0.3,0.1,0.5,0.3,0.7s0.5,0.3,0.8,0.3c0,0,0.1,0,0.1,0V501.3z"/>
    <path class="SumColumnsSvg0" d="M-952.3,502.7h1.8v-0.9c0-0.3,0-0.4,0-0.5c0-0.1-0.1-0.1-0.2-0.2c-0.1-0.1-0.2-0.1-0.4-0.1v-0.2h2v0.2 c-0.2,0-0.3,0-0.4,0.1c-0.1,0-0.1,0.1-0.2,0.2c0,0.1,0,0.3,0,0.5v2.2c0,0.3,0,0.4,0,0.5c0,0.1,0.1,0.2,0.2,0.2 c0.1,0.1,0.2,0.1,0.4,0.1v0.2h-2v-0.2c0.2,0,0.4,0,0.5-0.1c0.1-0.1,0.1-0.3,0.1-0.7v-1h-1.8v1c0,0.3,0,0.4,0,0.5 c0,0.1,0.1,0.2,0.2,0.2c0.1,0.1,0.2,0.1,0.4,0.1v0.2h-2v-0.2c0.3,0,0.4,0,0.5-0.1c0.1-0.1,0.1-0.3,0.1-0.6v-2.2c0-0.3,0-0.4,0-0.5 c0-0.1-0.1-0.1-0.2-0.2c-0.1-0.1-0.2-0.1-0.4-0.1v-0.2h2v0.2c-0.2,0-0.3,0-0.4,0.1c-0.1,0-0.1,0.1-0.2,0.2c0,0.1,0,0.3,0,0.5 V502.7z"/>
    <path class="SumColumnsSvg0" d="M-946.1,502.8c0.7,0.2,1.1,0.5,1.1,1c0,0.4-0.2,0.6-0.5,0.8c-0.3,0.2-0.7,0.3-1.3,0.3h-2v-0.2 c0.3,0,0.4-0.1,0.5-0.1c0.1-0.1,0.1-0.3,0.1-0.6v-2.2c0-0.3,0-0.5,0-0.6c0-0.1-0.1-0.1-0.1-0.2c-0.1,0-0.2-0.1-0.4-0.1v-0.2h1.9 c0.4,0,0.7,0,0.9,0.1c0.2,0.1,0.4,0.2,0.6,0.3c0.1,0.2,0.2,0.4,0.2,0.6C-945.3,502.4-945.6,502.7-946.1,502.8z M-947.5,502.7 c0.1,0,0.2,0,0.2,0c0.4,0,0.7-0.1,0.9-0.2c0.2-0.2,0.3-0.3,0.3-0.6c0-0.3-0.1-0.4-0.3-0.6c-0.2-0.1-0.5-0.2-0.9-0.2h-0.2V502.7z M-947.5,504.6c0.1,0,0.3,0.1,0.5,0.1c0.4,0,0.6-0.1,0.8-0.2s0.3-0.4,0.3-0.6c0-0.3-0.1-0.5-0.3-0.6c-0.2-0.1-0.5-0.2-0.9-0.2 c-0.1,0-0.2,0-0.3,0V504.6z"/>
    <path class="SumColumnsSvg0" d="M-942.2,504.4c-0.4,0.3-0.7,0.5-0.8,0.6c-0.2,0.1-0.3,0.1-0.5,0.1c-0.3,0-0.5-0.1-0.7-0.3 c-0.2-0.2-0.3-0.4-0.3-0.8c0-0.2,0-0.4,0.1-0.5c0.1-0.2,0.3-0.4,0.6-0.6c0.3-0.2,0.8-0.4,1.5-0.7v-0.2c0-0.4-0.1-0.7-0.2-0.8 c-0.1-0.2-0.3-0.2-0.6-0.2c-0.2,0-0.3,0.1-0.4,0.2c-0.1,0.1-0.2,0.2-0.2,0.3l0,0.3c0,0.1,0,0.2-0.1,0.3c-0.1,0.1-0.2,0.1-0.3,0.1 c-0.1,0-0.2,0-0.3-0.1c-0.1-0.1-0.1-0.2-0.1-0.3c0-0.3,0.1-0.5,0.4-0.7s0.6-0.3,1.1-0.3c0.4,0,0.7,0.1,0.9,0.2 c0.2,0.1,0.3,0.2,0.4,0.4c0.1,0.1,0.1,0.4,0.1,0.8v1.4c0,0.4,0,0.6,0,0.7c0,0.1,0,0.1,0.1,0.2c0,0,0.1,0,0.1,0c0,0,0.1,0,0.1,0 c0.1,0,0.2-0.1,0.4-0.3v0.2c-0.3,0.4-0.6,0.7-1,0.7c-0.1,0-0.3-0.1-0.3-0.2C-942.2,504.8-942.2,504.7-942.2,504.4z M-942.2,504.1 v-1.6c-0.4,0.2-0.7,0.3-0.9,0.4c-0.2,0.1-0.4,0.3-0.5,0.4c-0.1,0.1-0.2,0.3-0.2,0.5c0,0.2,0.1,0.4,0.2,0.5 c0.1,0.1,0.3,0.2,0.4,0.2C-942.9,504.6-942.6,504.4-942.2,504.1z"/>
    <path class="SumColumnsSvg0" d="M-940.8,501.3l1.3-0.5h0.2v1c0.2-0.4,0.4-0.6,0.6-0.8c0.2-0.1,0.4-0.2,0.7-0.2c0.4,0,0.8,0.2,1,0.5 c0.3,0.4,0.5,0.9,0.5,1.5c0,0.7-0.2,1.3-0.6,1.7c-0.3,0.4-0.8,0.6-1.3,0.6c-0.2,0-0.4,0-0.6-0.1c-0.1,0-0.3-0.1-0.4-0.3v1.2 c0,0.3,0,0.5,0.1,0.5c0,0.1,0.1,0.1,0.2,0.2c0.1,0,0.2,0.1,0.5,0.1v0.2h-2.1v-0.2h0.1c0.2,0,0.3,0,0.4-0.1c0.1,0,0.1-0.1,0.1-0.2 c0-0.1,0-0.3,0-0.6v-3.9c0-0.3,0-0.4,0-0.5c0-0.1-0.1-0.1-0.1-0.2c-0.1,0-0.1-0.1-0.2-0.1c-0.1,0-0.2,0-0.3,0.1L-940.8,501.3z M-939.4,502v1.5c0,0.3,0,0.5,0,0.7c0,0.2,0.1,0.3,0.3,0.5c0.2,0.1,0.4,0.2,0.6,0.2c0.3,0,0.5-0.1,0.7-0.3 c0.2-0.3,0.4-0.7,0.4-1.3c0-0.6-0.1-1.1-0.4-1.4c-0.2-0.2-0.4-0.3-0.7-0.3c-0.1,0-0.3,0-0.4,0.1 C-938.9,501.6-939.1,501.8-939.4,502z"/>
    <path class="SumColumnsSvg0" d="M-934.7,502.7l0.5,0c1.2,0,1.8,0.4,1.8,1.1c0,0.3-0.1,0.6-0.4,0.8c-0.3,0.2-0.7,0.3-1.3,0.3h-2v-0.2 c0.3,0,0.4,0,0.5-0.1c0.1-0.1,0.1-0.3,0.1-0.6v-2.2c0-0.3,0-0.5,0-0.6c0-0.1-0.1-0.1-0.2-0.2c-0.1,0-0.2-0.1-0.4-0.1v-0.2h2.1v0.2 c-0.3,0-0.5,0-0.5,0.1c-0.1,0-0.1,0.1-0.2,0.1c0,0.1-0.1,0.3-0.1,0.6V502.7z M-934.7,504.6c0.2,0,0.3,0.1,0.5,0.1 c0.3,0,0.5-0.1,0.7-0.2c0.2-0.2,0.3-0.4,0.3-0.6c0-0.6-0.4-0.9-1.2-0.9c-0.1,0-0.2,0-0.3,0V504.6z"/>
    <path class="SumColumnsSvg0" d="M-956.2,514.4l1.2-0.5h0.2v2.5c0.3-0.2,0.5-0.4,0.8-0.4c0.4,0,0.7,0.2,1,0.6c0.3,0.4,0.4,0.9,0.4,1.5 c0,0.6-0.1,1.1-0.4,1.5c-0.3,0.4-0.6,0.6-1,0.6c-0.3,0-0.6-0.1-0.8-0.4v1.3c0,0.3,0,0.5,0.1,0.6c0,0.1,0.1,0.1,0.2,0.2 c0.1,0,0.3,0.1,0.6,0.1v0.2h-2.2V522c0.3,0,0.5,0,0.6-0.1c0.1-0.1,0.1-0.3,0.1-0.7v-1.3c-0.2,0.3-0.5,0.4-0.8,0.4 c-0.4,0-0.8-0.2-1-0.6c-0.3-0.4-0.4-0.9-0.4-1.6c0-0.6,0.1-1,0.4-1.5c0.3-0.4,0.6-0.6,1-0.6c0.3,0,0.6,0.1,0.8,0.4v-1.1 c0-0.4,0-0.6-0.1-0.7c0-0.1-0.1-0.2-0.2-0.2c-0.1,0-0.2,0-0.3,0.1L-956.2,514.4z M-955.5,516.8c-0.2-0.4-0.4-0.5-0.6-0.5 c-0.3,0-0.4,0.2-0.6,0.5c-0.1,0.3-0.2,0.8-0.2,1.5c0,0.6,0.1,1,0.2,1.3c0.1,0.3,0.3,0.4,0.6,0.4c0.2,0,0.4-0.1,0.6-0.4V516.8z M-954.8,519.5c0.1,0.2,0.2,0.3,0.3,0.4c0.1,0.1,0.2,0.1,0.4,0.1c0.2,0,0.4-0.1,0.6-0.4c0.1-0.3,0.2-0.7,0.2-1.4 c0-1.3-0.3-1.9-0.8-1.9c-0.2,0-0.4,0.1-0.7,0.4V519.5z"/>
    <path class="SumColumnsSvg0" d="M-951.2,517.7c0,0.6,0.1,1.1,0.4,1.4c0.3,0.3,0.6,0.5,1,0.5c0.3,0,0.5-0.1,0.7-0.2c0.2-0.1,0.4-0.4,0.5-0.8 l0.1,0.1c-0.1,0.4-0.2,0.8-0.5,1.1c-0.3,0.3-0.7,0.5-1.1,0.5c-0.5,0-0.9-0.2-1.3-0.6c-0.3-0.4-0.5-0.9-0.5-1.5 c0-0.7,0.2-1.2,0.5-1.6c0.4-0.4,0.8-0.6,1.3-0.6c0.5,0,0.8,0.2,1.1,0.5c0.3,0.3,0.4,0.7,0.4,1.2H-951.2z M-951.2,517.4h1.9 c0-0.3,0-0.4-0.1-0.6c-0.1-0.2-0.2-0.3-0.3-0.4c-0.1-0.1-0.3-0.1-0.5-0.1c-0.2,0-0.5,0.1-0.7,0.3 C-951.1,516.8-951.2,517.1-951.2,517.4z"/>
    <path class="SumColumnsSvg0" d="M-945.3,518.1c0.7,0.2,1.1,0.5,1.1,1c0,0.4-0.2,0.6-0.5,0.8c-0.3,0.2-0.7,0.3-1.3,0.3h-2V520 c0.3,0,0.4-0.1,0.5-0.1c0.1-0.1,0.1-0.3,0.1-0.6v-2.2c0-0.3,0-0.5,0-0.6c0-0.1-0.1-0.1-0.1-0.2c-0.1,0-0.2-0.1-0.4-0.1v-0.2h1.9 c0.4,0,0.7,0,0.9,0.1c0.2,0.1,0.4,0.2,0.6,0.3c0.1,0.2,0.2,0.4,0.2,0.6C-944.4,517.6-944.7,517.9-945.3,518.1z M-946.6,517.9 c0.1,0,0.2,0,0.2,0c0.4,0,0.7-0.1,0.9-0.2c0.2-0.2,0.3-0.3,0.3-0.6c0-0.3-0.1-0.4-0.3-0.6c-0.2-0.1-0.5-0.2-0.9-0.2h-0.2V517.9z M-946.6,519.8c0.1,0,0.3,0.1,0.5,0.1c0.4,0,0.6-0.1,0.8-0.2s0.3-0.4,0.3-0.6c0-0.3-0.1-0.5-0.3-0.6c-0.2-0.1-0.5-0.2-0.9-0.2 c-0.1,0-0.2,0-0.3,0V519.8z"/>
    <path class="SumColumnsSvg0" d="M-943.8,516.5l1.3-0.5h0.2v1c0.2-0.4,0.4-0.6,0.6-0.8c0.2-0.1,0.4-0.2,0.7-0.2c0.4,0,0.8,0.2,1,0.5 c0.3,0.4,0.5,0.9,0.5,1.5c0,0.7-0.2,1.3-0.6,1.7c-0.3,0.4-0.8,0.6-1.3,0.6c-0.2,0-0.4,0-0.6-0.1c-0.1,0-0.3-0.1-0.4-0.3v1.2 c0,0.3,0,0.5,0.1,0.5c0,0.1,0.1,0.1,0.2,0.2c0.1,0,0.2,0.1,0.5,0.1v0.2h-2.1V522h0.1c0.2,0,0.3,0,0.4-0.1c0.1,0,0.1-0.1,0.1-0.2 c0-0.1,0-0.3,0-0.6v-3.9c0-0.3,0-0.4,0-0.5c0-0.1-0.1-0.1-0.1-0.2c-0.1,0-0.1-0.1-0.2-0.1c-0.1,0-0.2,0-0.3,0.1L-943.8,516.5z M-942.4,517.2v1.5c0,0.3,0,0.5,0,0.7c0,0.2,0.1,0.3,0.3,0.5c0.2,0.1,0.4,0.2,0.6,0.2c0.3,0,0.5-0.1,0.7-0.3 c0.2-0.3,0.4-0.7,0.4-1.3c0-0.6-0.1-1.1-0.4-1.4c-0.2-0.2-0.4-0.3-0.7-0.3c-0.1,0-0.3,0-0.4,0.1C-942,516.8-942.2,517-942.4,517.2 z"/>
    <path class="SumColumnsSvg0" d="M-936.7,519.6c-0.4,0.3-0.7,0.5-0.8,0.6c-0.2,0.1-0.3,0.1-0.5,0.1c-0.3,0-0.5-0.1-0.7-0.3 c-0.2-0.2-0.3-0.4-0.3-0.8c0-0.2,0-0.4,0.1-0.5c0.1-0.2,0.3-0.4,0.6-0.6c0.3-0.2,0.8-0.4,1.5-0.7v-0.2c0-0.4-0.1-0.7-0.2-0.8 c-0.1-0.2-0.3-0.2-0.6-0.2c-0.2,0-0.3,0.1-0.4,0.2c-0.1,0.1-0.2,0.2-0.2,0.3l0,0.3c0,0.1,0,0.2-0.1,0.3c-0.1,0.1-0.2,0.1-0.3,0.1 c-0.1,0-0.2,0-0.3-0.1c-0.1-0.1-0.1-0.2-0.1-0.3c0-0.3,0.1-0.5,0.4-0.7c0.3-0.2,0.6-0.3,1.1-0.3c0.4,0,0.7,0.1,0.9,0.2 c0.2,0.1,0.3,0.2,0.4,0.4c0.1,0.1,0.1,0.4,0.1,0.8v1.4c0,0.4,0,0.6,0,0.7c0,0.1,0,0.1,0.1,0.2c0,0,0.1,0,0.1,0c0,0,0.1,0,0.1,0 c0.1,0,0.2-0.1,0.4-0.3v0.2c-0.3,0.4-0.6,0.7-1,0.7c-0.1,0-0.3-0.1-0.3-0.2C-936.6,520-936.7,519.9-936.7,519.6z M-936.7,519.3 v-1.6c-0.4,0.2-0.7,0.3-0.9,0.4c-0.2,0.1-0.4,0.3-0.5,0.4c-0.1,0.1-0.2,0.3-0.2,0.5c0,0.2,0.1,0.4,0.2,0.5 c0.1,0.1,0.3,0.2,0.4,0.2C-937.3,519.8-937,519.6-936.7,519.3z"/>
    <path class="SumColumnsSvg0" d="M-934.4,516.1h3.6v0.2c-0.2,0-0.3,0-0.4,0.1c-0.1,0-0.1,0.1-0.2,0.1c0,0.1-0.1,0.3-0.1,0.6v2.2 c0,0.3,0,0.5,0,0.6c0,0.1,0.1,0.1,0.2,0.2c0.1,0,0.2,0.1,0.4,0.1v0.2h-2.1V520c0.2,0,0.4,0,0.5,0c0.1,0,0.2-0.1,0.2-0.2 c0.1-0.1,0.1-0.3,0.1-0.6v-2.8h-1.4v1.7c0,0.6,0,1.1-0.1,1.4c-0.1,0.3-0.2,0.5-0.3,0.6c-0.2,0.1-0.4,0.2-0.6,0.2 c-0.4,0-0.6-0.2-0.6-0.5c0-0.1,0-0.2,0.1-0.3c0.1-0.1,0.1-0.1,0.2-0.1c0.1,0,0.2,0,0.3,0.1c0.1,0.1,0.2,0.2,0.3,0.2 c0.1,0,0.2-0.1,0.3-0.3c0.1-0.2,0.1-0.6,0.1-1.2v-0.9c0-0.5,0-0.7-0.1-0.8c-0.1-0.1-0.2-0.2-0.5-0.2V516.1z"/>
    <path class="SumColumnsSvg0" d="M-929,517.9l0.5,0c1.2,0,1.8,0.4,1.8,1.1c0,0.3-0.1,0.6-0.4,0.8c-0.3,0.2-0.7,0.3-1.3,0.3h-2V520 c0.3,0,0.4,0,0.5-0.1c0.1-0.1,0.1-0.3,0.1-0.6v-2.2c0-0.3,0-0.5,0-0.6c0-0.1-0.1-0.1-0.2-0.2c-0.1,0-0.2-0.1-0.4-0.1v-0.2h2.1v0.2 c-0.3,0-0.5,0-0.5,0.1c-0.1,0-0.1,0.1-0.2,0.1c0,0.1-0.1,0.3-0.1,0.6V517.9z M-929,519.9c0.2,0,0.3,0.1,0.5,0.1 c0.3,0,0.5-0.1,0.7-0.2c0.2-0.2,0.3-0.4,0.3-0.6c0-0.6-0.4-0.9-1.2-0.9c-0.1,0-0.2,0-0.3,0V519.9z"/>
    <path class="SumColumnsSvg0" d="M-955.2,534.4l1.3-3h1.4v0.2c-0.2,0-0.3,0-0.4,0.1c-0.1,0-0.1,0.1-0.2,0.1c0,0.1-0.1,0.3-0.1,0.6v2.2 c0,0.3,0,0.5,0,0.5c0,0.1,0.1,0.1,0.2,0.2c0.1,0,0.2,0.1,0.4,0.1v0.2h-2v-0.2c0.2,0,0.4,0,0.5-0.1c0.1-0.1,0.1-0.3,0.1-0.7V532 l-1.4,3.4h-0.2l-1.5-3.4v2.5c0,0.3,0,0.5,0,0.5c0,0.1,0.1,0.1,0.2,0.2c0.1,0,0.2,0.1,0.4,0.1v0.2h-1.6v-0.2c0.3,0,0.4,0,0.5-0.1 c0.1-0.1,0.1-0.3,0.1-0.6v-2.2c0-0.3,0-0.5,0-0.6c0-0.1-0.1-0.1-0.2-0.2c-0.1,0-0.2-0.1-0.4-0.1v-0.2h1.4L-955.2,534.4z"/>
    <path class="SumColumnsSvg0" d="M-949.8,534.8c-0.4,0.3-0.7,0.5-0.8,0.6c-0.2,0.1-0.3,0.1-0.5,0.1c-0.3,0-0.5-0.1-0.7-0.3 c-0.2-0.2-0.3-0.4-0.3-0.8c0-0.2,0-0.4,0.1-0.5c0.1-0.2,0.3-0.4,0.6-0.6c0.3-0.2,0.8-0.4,1.5-0.7v-0.2c0-0.4-0.1-0.7-0.2-0.8 c-0.1-0.2-0.3-0.2-0.6-0.2c-0.2,0-0.3,0.1-0.4,0.2c-0.1,0.1-0.2,0.2-0.2,0.3l0,0.3c0,0.1,0,0.2-0.1,0.3c-0.1,0.1-0.2,0.1-0.3,0.1 c-0.1,0-0.2,0-0.3-0.1c-0.1-0.1-0.1-0.2-0.1-0.3c0-0.3,0.1-0.5,0.4-0.7c0.3-0.2,0.6-0.3,1.1-0.3c0.4,0,0.7,0.1,0.9,0.2 c0.2,0.1,0.3,0.2,0.4,0.4c0.1,0.1,0.1,0.4,0.1,0.8v1.4c0,0.4,0,0.6,0,0.7c0,0.1,0,0.1,0.1,0.2c0,0,0.1,0,0.1,0c0,0,0.1,0,0.1,0 c0.1,0,0.2-0.1,0.4-0.3v0.2c-0.3,0.4-0.6,0.7-1,0.7c-0.1,0-0.3-0.1-0.3-0.2C-949.7,535.2-949.8,535.1-949.8,534.8z M-949.8,534.5 V533c-0.4,0.2-0.7,0.3-0.9,0.4c-0.2,0.1-0.4,0.3-0.5,0.4c-0.1,0.1-0.2,0.3-0.2,0.5c0,0.2,0.1,0.4,0.2,0.5c0.1,0.1,0.3,0.2,0.4,0.2 C-950.5,535-950.2,534.8-949.8,534.5z"/>
    <path class="SumColumnsSvg0" d="M-948.3,531.7l1.3-0.5h0.2v1c0.2-0.4,0.4-0.6,0.6-0.8c0.2-0.1,0.4-0.2,0.7-0.2c0.4,0,0.8,0.2,1,0.5 c0.3,0.4,0.5,0.9,0.5,1.5c0,0.7-0.2,1.3-0.6,1.7c-0.3,0.4-0.8,0.6-1.3,0.6c-0.2,0-0.4,0-0.6-0.1c-0.1,0-0.3-0.1-0.4-0.3v1.2 c0,0.3,0,0.5,0.1,0.5c0,0.1,0.1,0.1,0.2,0.2c0.1,0,0.2,0.1,0.5,0.1v0.2h-2.1v-0.2h0.1c0.2,0,0.3,0,0.4-0.1c0.1,0,0.1-0.1,0.1-0.2 c0-0.1,0-0.3,0-0.6v-3.9c0-0.3,0-0.4,0-0.5c0-0.1-0.1-0.1-0.1-0.2c-0.1,0-0.1-0.1-0.2-0.1c-0.1,0-0.2,0-0.3,0.1L-948.3,531.7z M-946.9,532.5v1.5c0,0.3,0,0.5,0,0.7c0,0.2,0.1,0.3,0.3,0.5c0.2,0.1,0.4,0.2,0.6,0.2c0.3,0,0.5-0.1,0.7-0.3 c0.2-0.3,0.4-0.7,0.4-1.3c0-0.6-0.1-1.1-0.4-1.4c-0.2-0.2-0.4-0.3-0.7-0.3c-0.1,0-0.3,0-0.4,0.1 C-946.5,532-946.7,532.2-946.9,532.5z"/>
    <path class="SumColumnsSvg0" d="M-943.7,531.3h3.5l0.2,1.1h-0.2c0-0.2-0.1-0.4-0.2-0.5c-0.1-0.1-0.2-0.2-0.3-0.2c-0.1,0-0.3-0.1-0.5-0.1h-0.4 v2.8c0,0.3,0,0.5,0.1,0.6c0,0.1,0.1,0.1,0.2,0.2c0.1,0,0.3,0,0.6,0.1v0.2h-2.2v-0.2c0.3,0,0.5-0.1,0.6-0.1 c0.1-0.1,0.1-0.3,0.1-0.7v-2.8h-0.4c-0.3,0-0.4,0-0.5,0c-0.1,0-0.2,0.1-0.3,0.2c-0.1,0.1-0.2,0.3-0.2,0.5h-0.2L-943.7,531.3z"/>
    <path class="SumColumnsSvg0" d="M-955.5,550c-0.4,0.3-0.7,0.5-0.8,0.6c-0.2,0.1-0.3,0.1-0.5,0.1c-0.3,0-0.5-0.1-0.7-0.3 c-0.2-0.2-0.3-0.4-0.3-0.8c0-0.2,0-0.4,0.1-0.5c0.1-0.2,0.3-0.4,0.6-0.6c0.3-0.2,0.8-0.4,1.5-0.7v-0.2c0-0.4-0.1-0.7-0.2-0.8 c-0.1-0.2-0.3-0.2-0.6-0.2c-0.2,0-0.3,0.1-0.4,0.2c-0.1,0.1-0.2,0.2-0.2,0.3l0,0.3c0,0.1,0,0.2-0.1,0.3c-0.1,0.1-0.2,0.1-0.3,0.1 c-0.1,0-0.2,0-0.3-0.1c-0.1-0.1-0.1-0.2-0.1-0.3c0-0.3,0.1-0.5,0.4-0.7c0.3-0.2,0.6-0.3,1.1-0.3c0.4,0,0.7,0.1,0.9,0.2 c0.2,0.1,0.3,0.2,0.4,0.4c0.1,0.1,0.1,0.4,0.1,0.8v1.4c0,0.4,0,0.6,0,0.7c0,0.1,0,0.1,0.1,0.2c0,0,0.1,0,0.1,0c0,0,0.1,0,0.1,0 c0.1,0,0.2-0.1,0.4-0.3v0.2c-0.3,0.4-0.6,0.7-1,0.7c-0.1,0-0.3-0.1-0.3-0.2C-955.5,550.5-955.5,550.3-955.5,550z M-955.5,549.8 v-1.6c-0.4,0.2-0.7,0.3-0.9,0.4c-0.2,0.1-0.4,0.3-0.5,0.4c-0.1,0.1-0.2,0.3-0.2,0.5c0,0.2,0.1,0.4,0.2,0.5 c0.1,0.1,0.3,0.2,0.4,0.2C-956.2,550.2-955.9,550-955.5,549.8z"/>
    <path class="SumColumnsSvg0" d="M-950.8,546.8h-1.8v2.8c0,0.3,0,0.5,0,0.6c0,0.1,0.1,0.1,0.2,0.2c0.1,0,0.2,0.1,0.4,0.1v0.2h-2v-0.2 c0.3,0,0.4,0,0.5-0.1c0.1-0.1,0.1-0.3,0.1-0.6v-2.2c0-0.3,0-0.5,0-0.6c0-0.1-0.1-0.1-0.2-0.2c-0.1,0-0.2-0.1-0.4-0.1v-0.2h4.5v0.2 c-0.2,0-0.3,0-0.4,0.1c-0.1,0-0.1,0.1-0.2,0.1c0,0.1-0.1,0.3-0.1,0.6v2.2c0,0.3,0,0.5,0,0.6c0,0.1,0.1,0.1,0.2,0.2 c0.1,0,0.2,0.1,0.4,0.1v0.2h-2v-0.2c0.2,0,0.4,0,0.5-0.1c0.1-0.1,0.1-0.3,0.1-0.7V546.8z"/>
    <path class="SumColumnsSvg0" d="M-949.3,547l1.3-0.5h0.2v1c0.2-0.4,0.4-0.6,0.6-0.8c0.2-0.1,0.4-0.2,0.7-0.2c0.4,0,0.8,0.2,1,0.5 c0.3,0.4,0.5,0.9,0.5,1.5c0,0.7-0.2,1.3-0.6,1.7c-0.3,0.4-0.8,0.6-1.3,0.6c-0.2,0-0.4,0-0.6-0.1c-0.1,0-0.3-0.1-0.4-0.3v1.2 c0,0.3,0,0.5,0.1,0.5c0,0.1,0.1,0.1,0.2,0.2c0.1,0,0.2,0.1,0.5,0.1v0.2h-2.1v-0.2h0.1c0.2,0,0.3,0,0.4-0.1c0.1,0,0.1-0.1,0.1-0.2 c0-0.1,0-0.3,0-0.6v-3.9c0-0.3,0-0.4,0-0.5c0-0.1-0.1-0.1-0.1-0.2c-0.1,0-0.1-0.1-0.2-0.1c-0.1,0-0.2,0-0.3,0.1L-949.3,547z M-947.9,547.7v1.5c0,0.3,0,0.5,0,0.7c0,0.2,0.1,0.3,0.3,0.5c0.2,0.1,0.4,0.2,0.6,0.2c0.3,0,0.5-0.1,0.7-0.3 c0.2-0.3,0.4-0.7,0.4-1.3c0-0.6-0.1-1.1-0.4-1.4c-0.2-0.2-0.4-0.3-0.7-0.3c-0.1,0-0.3,0-0.4,0.1 C-947.4,547.2-947.6,547.4-947.9,547.7z"/>
    <path class="SumColumnsSvg0" d="M-943.7,548.1c0,0.6,0.1,1.1,0.4,1.4c0.3,0.3,0.6,0.5,1,0.5c0.3,0,0.5-0.1,0.7-0.2c0.2-0.1,0.4-0.4,0.5-0.8 l0.1,0.1c-0.1,0.4-0.2,0.8-0.5,1.1c-0.3,0.3-0.7,0.5-1.1,0.5c-0.5,0-0.9-0.2-1.3-0.6c-0.3-0.4-0.5-0.9-0.5-1.5 c0-0.7,0.2-1.2,0.5-1.6c0.4-0.4,0.8-0.6,1.3-0.6c0.5,0,0.8,0.2,1.1,0.5c0.3,0.3,0.4,0.7,0.4,1.2H-943.7z M-943.7,547.8h1.9 c0-0.3,0-0.4-0.1-0.6c-0.1-0.2-0.2-0.3-0.3-0.4c-0.1-0.1-0.3-0.1-0.5-0.1c-0.2,0-0.5,0.1-0.7,0.3 C-943.6,547.2-943.7,547.5-943.7,547.8z"/>
    <path class="SumColumnsSvg0" d="M-940,546.5h3.6v0.2c-0.2,0-0.3,0-0.4,0.1c-0.1,0-0.1,0.1-0.2,0.1c0,0.1-0.1,0.3-0.1,0.6v2.2 c0,0.3,0,0.5,0,0.6c0,0.1,0.1,0.1,0.2,0.2c0.1,0,0.2,0.1,0.4,0.1v0.2h-2.1v-0.2c0.2,0,0.4,0,0.5,0c0.1,0,0.2-0.1,0.2-0.2 c0.1-0.1,0.1-0.3,0.1-0.6v-2.8h-1.4v1.7c0,0.6,0,1.1-0.1,1.4c-0.1,0.3-0.2,0.5-0.3,0.6c-0.2,0.1-0.4,0.2-0.6,0.2 c-0.4,0-0.6-0.2-0.6-0.5c0-0.1,0-0.2,0.1-0.3c0.1-0.1,0.1-0.1,0.2-0.1c0.1,0,0.2,0,0.3,0.1c0.1,0.1,0.2,0.2,0.3,0.2 c0.1,0,0.2-0.1,0.3-0.3c0.1-0.2,0.1-0.6,0.1-1.2v-0.9c0-0.5,0-0.7-0.1-0.8c-0.1-0.1-0.2-0.2-0.5-0.2V546.5z"/>
    <path class="SumColumnsSvg0" d="M-934.6,548.4l0.5,0c1.2,0,1.8,0.4,1.8,1.1c0,0.3-0.1,0.6-0.4,0.8c-0.3,0.2-0.7,0.3-1.3,0.3h-2v-0.2 c0.3,0,0.4,0,0.5-0.1c0.1-0.1,0.1-0.3,0.1-0.6v-2.2c0-0.3,0-0.5,0-0.6c0-0.1-0.1-0.1-0.2-0.2c-0.1,0-0.2-0.1-0.4-0.1v-0.2h2.1v0.2 c-0.3,0-0.5,0-0.5,0.1c-0.1,0-0.1,0.1-0.2,0.1c0,0.1-0.1,0.3-0.1,0.6V548.4z M-934.6,550.3c0.2,0,0.3,0.1,0.5,0.1 c0.3,0,0.5-0.1,0.7-0.2c0.2-0.2,0.3-0.4,0.3-0.6c0-0.6-0.4-0.9-1.2-0.9c-0.1,0-0.2,0-0.3,0V550.3z"/>
    <path class="SumColumnsSvg0" d="M-955.2,564.8l1.3-3h1.4v0.2c-0.2,0-0.3,0-0.4,0.1c-0.1,0-0.1,0.1-0.2,0.1c0,0.1-0.1,0.3-0.1,0.6v2.2 c0,0.3,0,0.5,0,0.5c0,0.1,0.1,0.1,0.2,0.2c0.1,0,0.2,0.1,0.4,0.1v0.2h-2v-0.2c0.2,0,0.4,0,0.5-0.1c0.1-0.1,0.1-0.3,0.1-0.7v-2.5 l-1.4,3.4h-0.2l-1.5-3.4v2.5c0,0.3,0,0.5,0,0.5c0,0.1,0.1,0.1,0.2,0.2c0.1,0,0.2,0.1,0.4,0.1v0.2h-1.6v-0.2c0.3,0,0.4,0,0.5-0.1 c0.1-0.1,0.1-0.3,0.1-0.6v-2.2c0-0.3,0-0.5,0-0.6c0-0.1-0.1-0.1-0.2-0.2c-0.1,0-0.2-0.1-0.4-0.1v-0.2h1.4L-955.2,564.8z"/>
    <path class="SumColumnsSvg0" d="M-949.8,565.2c-0.4,0.3-0.7,0.5-0.8,0.6c-0.2,0.1-0.3,0.1-0.5,0.1c-0.3,0-0.5-0.1-0.7-0.3 c-0.2-0.2-0.3-0.4-0.3-0.8c0-0.2,0-0.4,0.1-0.5c0.1-0.2,0.3-0.4,0.6-0.6c0.3-0.2,0.8-0.4,1.5-0.7V563c0-0.4-0.1-0.7-0.2-0.8 c-0.1-0.2-0.3-0.2-0.6-0.2c-0.2,0-0.3,0.1-0.4,0.2c-0.1,0.1-0.2,0.2-0.2,0.3l0,0.3c0,0.1,0,0.2-0.1,0.3c-0.1,0.1-0.2,0.1-0.3,0.1 c-0.1,0-0.2,0-0.3-0.1c-0.1-0.1-0.1-0.2-0.1-0.3c0-0.3,0.1-0.5,0.4-0.7c0.3-0.2,0.6-0.3,1.1-0.3c0.4,0,0.7,0.1,0.9,0.2 c0.2,0.1,0.3,0.2,0.4,0.4c0.1,0.1,0.1,0.4,0.1,0.8v1.4c0,0.4,0,0.6,0,0.7c0,0.1,0,0.1,0.1,0.2c0,0,0.1,0,0.1,0c0,0,0.1,0,0.1,0 c0.1,0,0.2-0.1,0.4-0.3v0.2c-0.3,0.4-0.6,0.7-1,0.7c-0.1,0-0.3-0.1-0.3-0.2C-949.7,565.7-949.8,565.5-949.8,565.2z M-949.8,565 v-1.6c-0.4,0.2-0.7,0.3-0.9,0.4c-0.2,0.1-0.4,0.3-0.5,0.4c-0.1,0.1-0.2,0.3-0.2,0.5c0,0.2,0.1,0.4,0.2,0.5 c0.1,0.1,0.3,0.2,0.4,0.2C-950.5,565.4-950.2,565.3-949.8,565z"/>
    <path class="SumColumnsSvg0" d="M-946.8,564.6l1.8-2c0-0.2,0-0.4-0.1-0.5c-0.1-0.1-0.2-0.1-0.4-0.1v-0.2h1.9v0.2c-0.2,0-0.3,0-0.4,0.1 c-0.1,0-0.1,0.1-0.2,0.1c0,0.1-0.1,0.3-0.1,0.6v2.2c0,0.3,0,0.5,0,0.6c0,0.1,0.1,0.1,0.2,0.2c0.1,0,0.2,0.1,0.4,0.1v0.2h-2v-0.2 c0.2,0,0.4,0,0.5-0.1c0.1-0.1,0.1-0.3,0.1-0.7V563l-1.8,2c0,0.3,0,0.4,0.1,0.5c0.1,0.1,0.2,0.1,0.4,0.1v0.2h-1.9v-0.2 c0.3,0,0.4,0,0.5-0.1c0.1-0.1,0.1-0.3,0.1-0.6v-2.2c0-0.3,0-0.5,0-0.6c0-0.1-0.1-0.1-0.2-0.2c-0.1,0-0.2-0.1-0.4-0.1v-0.2h2v0.2 c-0.2,0-0.3,0-0.4,0.1c-0.1,0-0.1,0.1-0.2,0.1c0,0.1-0.1,0.3-0.1,0.6V564.6z M-947.4,560.1c0-0.1,0-0.2,0.1-0.3 c0.1-0.1,0.1-0.1,0.2-0.1c0.2,0,0.4,0.2,0.5,0.6c0.1,0.2,0.2,0.3,0.3,0.4c0.1,0.1,0.2,0.1,0.3,0.1c0.2,0,0.3,0,0.4-0.1 c0.1-0.1,0.2-0.2,0.3-0.4c0.1-0.3,0.3-0.5,0.5-0.5c0.1,0,0.2,0,0.2,0.1c0.1,0.1,0.1,0.1,0.1,0.2c0,0.2-0.2,0.4-0.4,0.6 c-0.3,0.2-0.6,0.3-1,0.3c-0.5,0-0.9-0.1-1.1-0.3C-947.2,560.6-947.4,560.4-947.4,560.1z"/>
    <path class="SumColumnsSvg0" d="M-956.5,579.8l1.8-2c0-0.2,0-0.4-0.1-0.5c-0.1-0.1-0.2-0.1-0.4-0.1V577h1.9v0.2c-0.2,0-0.3,0-0.4,0.1 c-0.1,0-0.1,0.1-0.2,0.1c0,0.1-0.1,0.3-0.1,0.6v2.2c0,0.3,0,0.5,0,0.6c0,0.1,0.1,0.1,0.2,0.2c0.1,0,0.2,0.1,0.4,0.1v0.2h-2v-0.2 c0.2,0,0.4,0,0.5-0.1c0.1-0.1,0.1-0.3,0.1-0.7v-1.9l-1.8,2c0,0.3,0,0.4,0.1,0.5c0.1,0.1,0.2,0.1,0.4,0.1v0.2h-1.9v-0.2 c0.3,0,0.4,0,0.5-0.1c0.1-0.1,0.1-0.3,0.1-0.6v-2.2c0-0.3,0-0.5,0-0.6c0-0.1-0.1-0.1-0.2-0.2c-0.1,0-0.2-0.1-0.4-0.1V577h2v0.2 c-0.2,0-0.3,0-0.4,0.1c-0.1,0-0.1,0.1-0.2,0.1c0,0.1-0.1,0.3-0.1,0.6V579.8z"/>
    <path class="SumColumnsSvg0" d="M-950.6,579.1h-1v1c0,0.3,0,0.5,0,0.6c0,0.1,0.1,0.1,0.2,0.2s0.2,0.1,0.4,0.1v0.2h-2v-0.2c0.2,0,0.3,0,0.4,0 c0.1,0,0.1-0.1,0.2-0.2c0-0.1,0.1-0.3,0.1-0.6v-2.2c0-0.4,0-0.6-0.1-0.7c-0.1-0.1-0.2-0.1-0.5-0.1V577h2v0.2c-0.2,0-0.3,0-0.4,0.1 c-0.1,0-0.1,0.1-0.2,0.2c0,0.1,0,0.3,0,0.6v0.9h1c0.1-0.6,0.3-1,0.7-1.4c0.4-0.4,0.8-0.5,1.3-0.5c0.6,0,1.1,0.2,1.4,0.6 c0.4,0.4,0.5,0.9,0.5,1.5c0,0.4-0.1,0.7-0.3,1.1c-0.2,0.4-0.4,0.7-0.7,0.8c-0.3,0.2-0.6,0.3-1,0.3c-0.6,0-1-0.2-1.4-0.6 C-950.4,580.1-950.6,579.6-950.6,579.1z M-948.8,577.1c-0.3,0-0.5,0.1-0.7,0.4c-0.2,0.3-0.3,0.6-0.3,1.2c0,0.6,0.1,1.1,0.4,1.5 c0.2,0.4,0.5,0.6,0.9,0.6c0.7,0,1-0.5,1-1.6c0-0.6-0.1-1.1-0.3-1.5C-948.1,577.3-948.4,577.1-948.8,577.1z"/>
    <path class="SumColumnsSvg0" d="M-944.8,578.8h1.8v-0.9c0-0.3,0-0.4,0-0.5c0-0.1-0.1-0.1-0.2-0.2c-0.1-0.1-0.2-0.1-0.4-0.1V577h2v0.2 c-0.2,0-0.3,0-0.4,0.1c-0.1,0-0.1,0.1-0.2,0.2c0,0.1,0,0.3,0,0.5v2.2c0,0.3,0,0.4,0,0.5c0,0.1,0.1,0.2,0.2,0.2 c0.1,0.1,0.2,0.1,0.4,0.1v0.2h-2v-0.2c0.2,0,0.4,0,0.5-0.1c0.1-0.1,0.1-0.3,0.1-0.7v-1h-1.8v1c0,0.3,0,0.4,0,0.5 c0,0.1,0.1,0.2,0.2,0.2c0.1,0.1,0.2,0.1,0.4,0.1v0.2h-2v-0.2c0.3,0,0.4,0,0.5-0.1c0.1-0.1,0.1-0.3,0.1-0.6v-2.2c0-0.3,0-0.4,0-0.5 c0-0.1-0.1-0.1-0.2-0.2c-0.1-0.1-0.2-0.1-0.4-0.1V577h2v0.2c-0.2,0-0.3,0-0.4,0.1c-0.1,0-0.1,0.1-0.2,0.2c0,0.1,0,0.3,0,0.5V578.8 z"/>
    <path class="SumColumnsSvg0" d="M-940,578.8l0.5,0c1.2,0,1.8,0.4,1.8,1.1c0,0.3-0.1,0.6-0.4,0.8c-0.3,0.2-0.7,0.3-1.3,0.3h-2v-0.2 c0.3,0,0.4,0,0.5-0.1c0.1-0.1,0.1-0.3,0.1-0.6v-2.2c0-0.3,0-0.5,0-0.6c0-0.1-0.1-0.1-0.2-0.2c-0.1,0-0.2-0.1-0.4-0.1V577h2.1v0.2 c-0.3,0-0.5,0-0.5,0.1c-0.1,0-0.1,0.1-0.2,0.1c0,0.1-0.1,0.3-0.1,0.6V578.8z M-940,580.7c0.2,0,0.3,0.1,0.5,0.1 c0.3,0,0.5-0.1,0.7-0.2c0.2-0.2,0.3-0.4,0.3-0.6c0-0.6-0.4-0.9-1.2-0.9c-0.1,0-0.2,0-0.3,0V580.7z"/>
    <g>
        <path class="SumColumnsSvg0" d="M-908.6,503.7l1.8-2c0-0.2,0-0.4-0.1-0.5c-0.1-0.1-0.2-0.1-0.4-0.1v-0.2h1.9v0.2c-0.2,0-0.3,0-0.4,0.1 c-0.1,0-0.1,0.1-0.2,0.1c0,0.1-0.1,0.3-0.1,0.6v2.2c0,0.3,0,0.5,0,0.6c0,0.1,0.1,0.1,0.2,0.2c0.1,0,0.2,0.1,0.4,0.1v0.2h-2v-0.2 c0.2,0,0.4,0,0.5-0.1c0.1-0.1,0.1-0.3,0.1-0.7v-1.9l-1.8,2c0,0.3,0,0.4,0.1,0.5s0.2,0.1,0.4,0.1v0.2h-1.9v-0.2 c0.3,0,0.4,0,0.5-0.1c0.1-0.1,0.1-0.3,0.1-0.6v-2.2c0-0.3,0-0.5,0-0.6c0-0.1-0.1-0.1-0.2-0.2c-0.1,0-0.2-0.1-0.4-0.1v-0.2h2v0.2 c-0.2,0-0.3,0-0.4,0.1c-0.1,0-0.1,0.1-0.2,0.1c0,0.1-0.1,0.3-0.1,0.6V503.7z"/>
        <path class="SumColumnsSvg0" d="M-902.7,503h-1v1c0,0.3,0,0.5,0,0.6c0,0.1,0.1,0.1,0.2,0.2c0.1,0,0.2,0.1,0.4,0.1v0.2h-2v-0.2 c0.2,0,0.3,0,0.4,0c0.1,0,0.1-0.1,0.2-0.2c0-0.1,0.1-0.3,0.1-0.6v-2.2c0-0.4,0-0.6-0.1-0.7s-0.2-0.1-0.5-0.1v-0.2h2v0.2 c-0.2,0-0.3,0-0.4,0.1c-0.1,0-0.1,0.1-0.2,0.2c0,0.1,0,0.3,0,0.6v0.9h1c0.1-0.6,0.3-1,0.7-1.4c0.4-0.4,0.8-0.5,1.3-0.5 c0.6,0,1.1,0.2,1.4,0.6c0.4,0.4,0.5,0.9,0.5,1.5c0,0.4-0.1,0.7-0.3,1.1c-0.2,0.4-0.4,0.7-0.7,0.8c-0.3,0.2-0.6,0.3-1,0.3 c-0.6,0-1-0.2-1.4-0.6C-902.5,504.1-902.7,503.6-902.7,503z M-900.9,501.1c-0.3,0-0.5,0.1-0.7,0.4c-0.2,0.3-0.3,0.6-0.3,1.2 c0,0.6,0.1,1.1,0.4,1.5c0.2,0.4,0.5,0.6,0.9,0.6c0.7,0,1-0.5,1-1.6c0-0.6-0.1-1.1-0.3-1.5C-900.2,501.3-900.5,501.1-900.9,501.1z"/>
        <path class="SumColumnsSvg0" d="M-898,500.9h3.6v0.2c-0.2,0-0.3,0-0.4,0.1c-0.1,0-0.1,0.1-0.2,0.1c0,0.1-0.1,0.3-0.1,0.6v2.2 c0,0.3,0,0.5,0,0.6c0,0.1,0.1,0.1,0.2,0.2c0.1,0,0.2,0.1,0.4,0.1v0.2h-2.1v-0.2c0.2,0,0.4,0,0.5,0c0.1,0,0.2-0.1,0.2-0.2 c0.1-0.1,0.1-0.3,0.1-0.6v-2.8h-1.4v1.7c0,0.6,0,1.1-0.1,1.4c-0.1,0.3-0.2,0.5-0.3,0.6c-0.2,0.1-0.4,0.2-0.6,0.2 c-0.4,0-0.6-0.2-0.6-0.5c0-0.1,0-0.2,0.1-0.3c0.1-0.1,0.1-0.1,0.2-0.1c0.1,0,0.2,0,0.3,0.1c0.1,0.1,0.2,0.2,0.3,0.2 c0.1,0,0.2-0.1,0.3-0.3c0.1-0.2,0.1-0.6,0.1-1.2v-0.9c0-0.5,0-0.7-0.1-0.8c-0.1-0.1-0.2-0.2-0.5-0.2V500.9z"/>
        <path class="SumColumnsSvg0" d="M-892.6,502.7l0.5,0c1.2,0,1.8,0.4,1.8,1.1c0,0.3-0.1,0.6-0.4,0.8c-0.3,0.2-0.7,0.3-1.3,0.3h-2v-0.2 c0.3,0,0.4,0,0.5-0.1c0.1-0.1,0.1-0.3,0.1-0.6v-2.2c0-0.3,0-0.5,0-0.6c0-0.1-0.1-0.1-0.2-0.2c-0.1,0-0.2-0.1-0.4-0.1v-0.2h2.1v0.2 c-0.3,0-0.5,0-0.5,0.1c-0.1,0-0.1,0.1-0.2,0.1c0,0.1-0.1,0.3-0.1,0.6V502.7z M-892.6,504.6c0.2,0,0.3,0.1,0.5,0.1 c0.3,0,0.5-0.1,0.7-0.2c0.2-0.2,0.3-0.4,0.3-0.6c0-0.6-0.4-0.9-1.2-0.9c-0.1,0-0.2,0-0.3,0V504.6z"/>
        <path class="SumColumnsSvg0" d="M-907.6,519.6c-0.4,0.3-0.7,0.5-0.8,0.6c-0.2,0.1-0.3,0.1-0.5,0.1c-0.3,0-0.5-0.1-0.7-0.3 c-0.2-0.2-0.3-0.4-0.3-0.8c0-0.2,0-0.4,0.1-0.5c0.1-0.2,0.3-0.4,0.6-0.6c0.3-0.2,0.8-0.4,1.5-0.7v-0.2c0-0.4-0.1-0.7-0.2-0.8 c-0.1-0.2-0.3-0.2-0.6-0.2c-0.2,0-0.3,0.1-0.4,0.2c-0.1,0.1-0.2,0.2-0.2,0.3l0,0.3c0,0.1,0,0.2-0.1,0.3c-0.1,0.1-0.2,0.1-0.3,0.1 c-0.1,0-0.2,0-0.3-0.1c-0.1-0.1-0.1-0.2-0.1-0.3c0-0.3,0.1-0.5,0.4-0.7c0.3-0.2,0.6-0.3,1.1-0.3c0.4,0,0.7,0.1,0.9,0.2 c0.2,0.1,0.3,0.2,0.4,0.4c0.1,0.1,0.1,0.4,0.1,0.8v1.4c0,0.4,0,0.6,0,0.7c0,0.1,0,0.1,0.1,0.2c0,0,0.1,0,0.1,0c0,0,0.1,0,0.1,0 c0.1,0,0.2-0.1,0.4-0.3v0.2c-0.3,0.4-0.6,0.7-1,0.7c-0.1,0-0.3-0.1-0.3-0.2C-907.5,520-907.6,519.9-907.6,519.6z M-907.6,519.3 v-1.6c-0.4,0.2-0.7,0.3-0.9,0.4c-0.2,0.1-0.4,0.3-0.5,0.4c-0.1,0.1-0.2,0.3-0.2,0.5c0,0.2,0.1,0.4,0.2,0.5 c0.1,0.1,0.3,0.2,0.4,0.2C-908.2,519.8-907.9,519.6-907.6,519.3z"/>
        <path class="SumColumnsSvg0" d="M-894.3,580.5c-0.4,0.3-0.7,0.5-0.8,0.6c-0.2,0.1-0.3,0.1-0.5,0.1c-0.3,0-0.5-0.1-0.7-0.3 c-0.2-0.2-0.3-0.4-0.3-0.8c0-0.2,0-0.4,0.1-0.5c0.1-0.2,0.3-0.4,0.6-0.6c0.3-0.2,0.8-0.4,1.5-0.7v-0.2c0-0.4-0.1-0.7-0.2-0.8 c-0.1-0.2-0.3-0.2-0.6-0.2c-0.2,0-0.3,0.1-0.4,0.2c-0.1,0.1-0.2,0.2-0.2,0.3l0,0.3c0,0.1,0,0.2-0.1,0.3c-0.1,0.1-0.2,0.1-0.3,0.1 c-0.1,0-0.2,0-0.3-0.1c-0.1-0.1-0.1-0.2-0.1-0.3c0-0.3,0.1-0.5,0.4-0.7c0.3-0.2,0.6-0.3,1.1-0.3c0.4,0,0.7,0.1,0.9,0.2 c0.2,0.1,0.3,0.2,0.4,0.4c0.1,0.1,0.1,0.4,0.1,0.8v1.4c0,0.4,0,0.6,0,0.7c0,0.1,0,0.1,0.1,0.2c0,0,0.1,0,0.1,0c0,0,0.1,0,0.1,0 c0.1,0,0.2-0.1,0.4-0.3v0.2c-0.3,0.4-0.6,0.7-1,0.7c-0.1,0-0.3-0.1-0.3-0.2C-894.2,580.9-894.3,580.7-894.3,580.5z M-894.3,580.2 v-1.6c-0.4,0.2-0.7,0.3-0.9,0.4c-0.2,0.1-0.4,0.3-0.5,0.4c-0.1,0.1-0.2,0.3-0.2,0.5c0,0.2,0.1,0.4,0.2,0.5 c0.1,0.1,0.3,0.2,0.4,0.2C-894.9,580.6-894.6,580.5-894.3,580.2z"/>
        <path class="SumColumnsSvg0" d="M-903.2,518.1c0.7,0.2,1.1,0.5,1.1,1c0,0.4-0.2,0.6-0.5,0.8c-0.3,0.2-0.7,0.3-1.3,0.3h-2V520 c0.3,0,0.4-0.1,0.5-0.1c0.1-0.1,0.1-0.3,0.1-0.6v-2.2c0-0.3,0-0.5,0-0.6c0-0.1-0.1-0.1-0.1-0.2c-0.1,0-0.2-0.1-0.4-0.1v-0.2h1.9 c0.4,0,0.7,0,0.9,0.1c0.2,0.1,0.4,0.2,0.6,0.3c0.1,0.2,0.2,0.4,0.2,0.6C-902.4,517.6-902.6,517.9-903.2,518.1z M-904.5,517.9 c0.1,0,0.2,0,0.2,0c0.4,0,0.7-0.1,0.9-0.2c0.2-0.2,0.3-0.3,0.3-0.6c0-0.3-0.1-0.4-0.3-0.6c-0.2-0.1-0.5-0.2-0.9-0.2h-0.2V517.9z M-904.5,519.8c0.1,0,0.3,0.1,0.5,0.1c0.4,0,0.6-0.1,0.8-0.2s0.3-0.4,0.3-0.6c0-0.3-0.1-0.5-0.3-0.6c-0.2-0.1-0.5-0.2-0.9-0.2 c-0.1,0-0.2,0-0.3,0V519.8z"/>
        <path class="SumColumnsSvg0" d="M-898.3,516.1l0.2,1.1h-0.2c-0.1-0.4-0.2-0.6-0.3-0.7c-0.1-0.1-0.4-0.1-0.7-0.1h-0.9v2.8c0,0.3,0,0.5,0,0.6 c0,0.1,0.1,0.1,0.2,0.2c0.1,0,0.2,0.1,0.4,0.1v0.2h-2V520c0.3,0,0.5-0.1,0.6-0.1c0.1-0.1,0.1-0.3,0.1-0.7v-2.2c0-0.3,0-0.5,0-0.6 c0-0.1-0.1-0.1-0.2-0.2c-0.1,0-0.2-0.1-0.5-0.1v-0.2H-898.3z"/>
        <path class="SumColumnsSvg0" d="M-898,516.1h1.9v0.2h-0.1c-0.1,0-0.2,0-0.3,0.1c-0.1,0.1-0.1,0.1-0.1,0.2c0,0.1,0,0.3,0.1,0.5l1,2.1l0.9-2.3 c0.1-0.1,0.1-0.2,0.1-0.4c0-0.1,0-0.1,0-0.1c0,0-0.1-0.1-0.1-0.1c-0.1,0-0.1,0-0.3,0v-0.2h1.3v0.2c-0.1,0-0.2,0-0.3,0.1 c-0.1,0-0.1,0.1-0.2,0.2c0,0-0.1,0.2-0.2,0.3l-1.7,4.1c-0.2,0.4-0.4,0.7-0.6,0.9c-0.3,0.2-0.5,0.3-0.8,0.3c-0.2,0-0.3-0.1-0.4-0.2 c-0.1-0.1-0.2-0.2-0.2-0.3c0-0.1,0-0.2,0.1-0.3c0.1-0.1,0.2-0.1,0.3-0.1c0.1,0,0.2,0,0.4,0.1c0.1,0,0.2,0.1,0.2,0.1 c0.1,0,0.2,0,0.3-0.1c0.1-0.1,0.2-0.3,0.3-0.5l0.3-0.7l-1.5-3.1c0-0.1-0.1-0.2-0.2-0.3c-0.1-0.1-0.1-0.2-0.2-0.2 c-0.1,0-0.2-0.1-0.3-0.1V516.1z"/>
        <path class="SumColumnsSvg0" d="M-889.7,518.7c-0.1,0.5-0.3,1-0.6,1.2c-0.3,0.3-0.7,0.4-1.1,0.4c-0.5,0-0.9-0.2-1.2-0.6 c-0.3-0.4-0.5-0.9-0.5-1.6c0-0.6,0.2-1.2,0.6-1.6c0.4-0.4,0.8-0.6,1.4-0.6c0.4,0,0.7,0.1,1,0.3c0.3,0.2,0.4,0.4,0.4,0.7 c0,0.1,0,0.2-0.1,0.3c-0.1,0.1-0.2,0.1-0.3,0.1c-0.2,0-0.3-0.1-0.4-0.2c-0.1-0.1-0.1-0.2-0.1-0.4c0-0.2-0.1-0.3-0.2-0.4 c-0.1-0.1-0.2-0.1-0.4-0.1c-0.3,0-0.5,0.1-0.7,0.3c-0.2,0.3-0.4,0.7-0.4,1.2c0,0.5,0.1,0.9,0.4,1.3c0.2,0.4,0.6,0.6,1,0.6 c0.3,0,0.6-0.1,0.8-0.3c0.2-0.1,0.3-0.4,0.5-0.7L-889.7,518.7z"/>
        <path class="SumColumnsSvg0" d="M-889.2,516.1h3.5l0.2,1.1h-0.2c0-0.2-0.1-0.4-0.2-0.5c-0.1-0.1-0.2-0.2-0.3-0.2s-0.3-0.1-0.5-0.1h-0.4v2.8 c0,0.3,0,0.5,0.1,0.6c0,0.1,0.1,0.1,0.2,0.2c0.1,0,0.3,0,0.6,0.1v0.2h-2.2V520c0.3,0,0.5-0.1,0.6-0.1c0.1-0.1,0.1-0.3,0.1-0.7 v-2.8h-0.4c-0.3,0-0.4,0-0.5,0c-0.1,0-0.2,0.1-0.3,0.2c-0.1,0.1-0.2,0.3-0.2,0.5h-0.2L-889.2,516.1z"/>
        <path class="SumColumnsSvg0" d="M-906.4,533.9c-0.1,0.5-0.3,1-0.6,1.2c-0.3,0.3-0.7,0.4-1.1,0.4c-0.5,0-0.9-0.2-1.2-0.6 c-0.3-0.4-0.5-0.9-0.5-1.6c0-0.6,0.2-1.2,0.6-1.6c0.4-0.4,0.8-0.6,1.4-0.6c0.4,0,0.7,0.1,1,0.3c0.3,0.2,0.4,0.4,0.4,0.7 c0,0.1,0,0.2-0.1,0.3c-0.1,0.1-0.2,0.1-0.3,0.1c-0.2,0-0.3-0.1-0.4-0.2c-0.1-0.1-0.1-0.2-0.1-0.4c0-0.2-0.1-0.3-0.2-0.4 c-0.1-0.1-0.2-0.1-0.4-0.1c-0.3,0-0.5,0.1-0.7,0.3c-0.2,0.3-0.4,0.7-0.4,1.2c0,0.5,0.1,0.9,0.4,1.3c0.2,0.4,0.6,0.6,1,0.6 c0.3,0,0.6-0.1,0.8-0.3c0.2-0.1,0.3-0.4,0.5-0.7L-906.4,533.9z"/>
        <path class="SumColumnsSvg0" d="M-905,532.9c0,0.6,0.1,1.1,0.4,1.4c0.3,0.3,0.6,0.5,1,0.5c0.3,0,0.5-0.1,0.7-0.2c0.2-0.1,0.4-0.4,0.5-0.8 l0.1,0.1c-0.1,0.4-0.2,0.8-0.5,1.1c-0.3,0.3-0.7,0.5-1.1,0.5c-0.5,0-0.9-0.2-1.3-0.6c-0.3-0.4-0.5-0.9-0.5-1.5 c0-0.7,0.2-1.2,0.5-1.6c0.4-0.4,0.8-0.6,1.3-0.6c0.5,0,0.8,0.2,1.1,0.5c0.3,0.3,0.4,0.7,0.4,1.2H-905z M-905,532.6h1.9 c0-0.3,0-0.4-0.1-0.6c-0.1-0.2-0.2-0.3-0.3-0.4c-0.1-0.1-0.3-0.1-0.5-0.1c-0.2,0-0.5,0.1-0.7,0.3C-904.9,532-905,532.3-905,532.6z"/>
        <path class="SumColumnsSvg0" d="M-900.4,533.2h1.8v-0.9c0-0.3,0-0.4,0-0.5c0-0.1-0.1-0.1-0.2-0.2c-0.1-0.1-0.2-0.1-0.4-0.1v-0.2h2v0.2 c-0.2,0-0.3,0-0.4,0.1c-0.1,0-0.1,0.1-0.2,0.2c0,0.1,0,0.3,0,0.5v2.2c0,0.3,0,0.4,0,0.5c0,0.1,0.1,0.2,0.2,0.2 c0.1,0.1,0.2,0.1,0.4,0.1v0.2h-2v-0.2c0.2,0,0.4,0,0.5-0.1c0.1-0.1,0.1-0.3,0.1-0.7v-1h-1.8v1c0,0.3,0,0.4,0,0.5 c0,0.1,0.1,0.2,0.2,0.2c0.1,0.1,0.2,0.1,0.4,0.1v0.2h-2v-0.2c0.3,0,0.4,0,0.5-0.1c0.1-0.1,0.1-0.3,0.1-0.6v-2.2c0-0.3,0-0.4,0-0.5 c0-0.1-0.1-0.1-0.2-0.2c-0.1-0.1-0.2-0.1-0.4-0.1v-0.2h2v0.2c-0.2,0-0.3,0-0.4,0.1c-0.1,0-0.1,0.1-0.2,0.2c0,0.1,0,0.3,0,0.5 V533.2z"/>
        <path class="SumColumnsSvg0" d="M-896.8,531.3h3.5l0.2,1.1h-0.2c0-0.2-0.1-0.4-0.2-0.5c-0.1-0.1-0.2-0.2-0.3-0.2c-0.1,0-0.3-0.1-0.5-0.1h-0.4 v2.8c0,0.3,0,0.5,0.1,0.6c0,0.1,0.1,0.1,0.2,0.2c0.1,0,0.3,0,0.6,0.1v0.2h-2.2v-0.2c0.3,0,0.5-0.1,0.6-0.1 c0.1-0.1,0.1-0.3,0.1-0.7v-2.8h-0.4c-0.3,0-0.4,0-0.5,0c-0.1,0-0.2,0.1-0.3,0.2c-0.1,0.1-0.2,0.3-0.2,0.5h-0.2L-896.8,531.3z"/>
        <path class="SumColumnsSvg0" d="M-889.2,531.3v0.2c-0.2,0-0.3,0-0.4,0.1c-0.1,0.1-0.1,0.1-0.2,0.2c0,0.1,0,0.3,0,0.5v2.2c0,0.3,0,0.4,0,0.5 c0,0.1,0.1,0.1,0.2,0.2c0.1,0.1,0.2,0.1,0.4,0.1v0.2h-2v-0.2c0.2,0,0.4,0,0.5-0.1c0.1-0.1,0.1-0.3,0.1-0.7v-0.9l-0.2,0 c0,0-0.1,0-0.1,0l-1.3,1.8h-1v-0.2c0.1,0,0.3,0,0.3-0.1c0.1,0,0.2-0.2,0.3-0.4l1-1.3c-0.7-0.2-1-0.6-1-1.1c0-0.3,0.1-0.5,0.4-0.7 c0.2-0.2,0.7-0.3,1.3-0.3H-889.2z M-890.5,531.7c-0.1,0-0.2,0-0.3,0c-0.3,0-0.5,0.1-0.7,0.2c-0.1,0.1-0.2,0.3-0.2,0.5 c0,0.3,0.1,0.5,0.3,0.7s0.5,0.3,0.8,0.3c0,0,0.1,0,0.1,0V531.7z"/>
        <path class="SumColumnsSvg0" d="M-888.3,532.5c0.3-0.9,0.9-1.3,1.7-1.3c0.6,0,1,0.2,1.4,0.6c0.4,0.4,0.5,0.9,0.5,1.5c0,0.6-0.2,1.1-0.5,1.5 c-0.4,0.5-0.9,0.7-1.5,0.7c-0.6,0-1.1-0.3-1.5-0.8c-0.3-0.5-0.5-1.2-0.5-1.9c0-0.6,0.1-1.1,0.3-1.6c0.2-0.5,0.4-0.9,0.5-1.1 s0.4-0.4,0.7-0.6c0.2-0.1,0.7-0.2,1.3-0.2c0.5,0,0.7,0,0.8,0c0.1,0,0.2-0.1,0.3-0.2h0.2c-0.1,0.3-0.2,0.5-0.4,0.6 c-0.1,0.1-0.3,0.2-0.4,0.3c-0.2,0-0.4,0.1-0.9,0.1c-0.4,0-0.8,0-0.9,0.1c-0.2,0.1-0.3,0.2-0.5,0.4c-0.2,0.2-0.3,0.5-0.4,0.8 C-888.2,531.7-888.3,532.1-888.3,532.5z M-886.7,531.5c-0.3,0-0.5,0.1-0.7,0.4c-0.2,0.2-0.3,0.6-0.3,1.2c0,0.7,0.1,1.3,0.4,1.6 c0.3,0.4,0.6,0.6,0.9,0.6c0.3,0,0.6-0.1,0.7-0.4c0.2-0.3,0.3-0.7,0.3-1.2c0-0.6-0.1-1.1-0.3-1.5 C-886.1,531.7-886.4,531.5-886.7,531.5z"/>
        <path class="SumColumnsSvg0" d="M-884.4,531.7l1.3-0.5h0.2v1c0.2-0.4,0.4-0.6,0.6-0.8c0.2-0.1,0.4-0.2,0.7-0.2c0.4,0,0.8,0.2,1,0.5 c0.3,0.4,0.5,0.9,0.5,1.5c0,0.7-0.2,1.3-0.6,1.7c-0.3,0.4-0.8,0.6-1.3,0.6c-0.2,0-0.4,0-0.6-0.1c-0.1,0-0.3-0.1-0.4-0.3v1.2 c0,0.3,0,0.5,0.1,0.5c0,0.1,0.1,0.1,0.2,0.2c0.1,0,0.2,0.1,0.5,0.1v0.2h-2.1v-0.2h0.1c0.2,0,0.3,0,0.4-0.1c0.1,0,0.1-0.1,0.1-0.2 c0-0.1,0-0.3,0-0.6v-3.9c0-0.3,0-0.4,0-0.5c0-0.1-0.1-0.1-0.1-0.2c-0.1,0-0.1-0.1-0.2-0.1c-0.1,0-0.2,0-0.3,0.1L-884.4,531.7z M-882.9,532.5v1.5c0,0.3,0,0.5,0,0.7c0,0.2,0.1,0.3,0.3,0.5c0.2,0.1,0.4,0.2,0.6,0.2c0.3,0,0.5-0.1,0.7-0.3 c0.2-0.3,0.4-0.7,0.4-1.3c0-0.6-0.1-1.1-0.4-1.4c-0.2-0.2-0.4-0.3-0.7-0.3c-0.1,0-0.3,0-0.4,0.1 C-882.5,532-882.7,532.2-882.9,532.5z"/>
        <path class="SumColumnsSvg0" d="M-878.2,533.2l0.5,0c1.2,0,1.8,0.4,1.8,1.1c0,0.3-0.1,0.6-0.4,0.8c-0.3,0.2-0.7,0.3-1.3,0.3h-2v-0.2 c0.3,0,0.4,0,0.5-0.1c0.1-0.1,0.1-0.3,0.1-0.6v-2.2c0-0.3,0-0.5,0-0.6c0-0.1-0.1-0.1-0.2-0.2c-0.1,0-0.2-0.1-0.4-0.1v-0.2h2.1v0.2 c-0.3,0-0.5,0-0.5,0.1c-0.1,0-0.1,0.1-0.2,0.1c0,0.1-0.1,0.3-0.1,0.6V533.2z M-878.2,535.1c0.2,0,0.3,0.1,0.5,0.1 c0.3,0,0.5-0.1,0.7-0.2c0.2-0.2,0.3-0.4,0.3-0.6c0-0.6-0.4-0.9-1.2-0.9c-0.1,0-0.2,0-0.3,0V535.1z"/>
        <path class="SumColumnsSvg0" d="M-907.9,546.4c0.6,0,1.1,0.2,1.5,0.7c0.3,0.4,0.5,0.9,0.5,1.4c0,0.4-0.1,0.7-0.3,1.1 c-0.2,0.4-0.4,0.7-0.7,0.8c-0.3,0.2-0.7,0.3-1,0.3c-0.6,0-1.1-0.2-1.5-0.7c-0.3-0.4-0.5-0.9-0.5-1.4c0-0.4,0.1-0.7,0.3-1.1 c0.2-0.4,0.4-0.6,0.7-0.8C-908.5,546.5-908.2,546.4-907.9,546.4z M-908,546.7c-0.2,0-0.3,0-0.5,0.1c-0.2,0.1-0.3,0.3-0.4,0.5 c-0.1,0.2-0.1,0.5-0.1,0.9c0,0.6,0.1,1.1,0.4,1.5c0.2,0.4,0.5,0.6,0.9,0.6c0.3,0,0.5-0.1,0.7-0.4c0.2-0.2,0.3-0.6,0.3-1.2 c0-0.7-0.2-1.3-0.5-1.7C-907.4,546.9-907.7,546.7-908,546.7z"/>
        <path class="SumColumnsSvg0" d="M-901.2,550.6h-1.2c-0.4-0.5-0.7-1.1-1-1.7c-0.1-0.1-0.1-0.2-0.2-0.3c-0.1-0.1-0.1-0.1-0.2-0.1 c0,0-0.1,0-0.2,0v1.1c0,0.3,0,0.5,0.1,0.6c0,0.1,0.1,0.1,0.2,0.2s0.2,0.1,0.4,0.1v0.2h-2v-0.2c0.3,0,0.4,0,0.5-0.1 c0.1-0.1,0.1-0.3,0.1-0.6v-2.2c0-0.3,0-0.5,0-0.6c0-0.1-0.1-0.1-0.2-0.2c-0.1,0-0.2-0.1-0.4-0.1v-0.2h2v0.2c-0.2,0-0.4,0-0.5,0.1 c-0.1,0-0.1,0.1-0.2,0.1c0,0.1-0.1,0.3-0.1,0.6v0.8c0.1,0,0.1,0,0.1,0c0.2,0,0.4-0.1,0.5-0.2c0.2-0.1,0.3-0.3,0.4-0.7 c0.1-0.3,0.2-0.5,0.3-0.6c0.1-0.1,0.2-0.2,0.3-0.3c0.1-0.1,0.3-0.1,0.4-0.1c0.2,0,0.3,0,0.4,0.1c0.1,0.1,0.1,0.2,0.1,0.3 c0,0.1,0,0.2-0.1,0.3c-0.1,0.1-0.2,0.1-0.3,0.1c-0.1,0-0.1,0-0.2-0.1c-0.1,0-0.2-0.1-0.3-0.1c-0.1,0-0.2,0.1-0.3,0.4 c-0.1,0.3-0.2,0.4-0.2,0.5c0,0.1-0.1,0.2-0.3,0.3c0.1,0,0.2,0.1,0.3,0.2c0.1,0.1,0.3,0.4,0.6,0.9c0.2,0.4,0.4,0.7,0.5,0.8 c0.1,0.1,0.3,0.2,0.5,0.2V550.6z"/>
        <path class="SumColumnsSvg0" d="M-901.1,546.5h3.5l0.2,1.1h-0.2c0-0.2-0.1-0.4-0.2-0.5c-0.1-0.1-0.2-0.2-0.3-0.2c-0.1,0-0.3-0.1-0.5-0.1h-0.4 v2.8c0,0.3,0,0.5,0.1,0.6c0,0.1,0.1,0.1,0.2,0.2c0.1,0,0.3,0,0.6,0.1v0.2h-2.2v-0.2c0.3,0,0.5-0.1,0.6-0.1 c0.1-0.1,0.1-0.3,0.1-0.7v-2.8h-0.4c-0.3,0-0.4,0-0.5,0c-0.1,0-0.2,0.1-0.3,0.2c-0.1,0.1-0.2,0.3-0.2,0.5h-0.2L-901.1,546.5z"/>
        <path class="SumColumnsSvg0" d="M-893.4,546.5v0.2c-0.2,0-0.3,0-0.4,0.1c-0.1,0.1-0.1,0.1-0.2,0.2c0,0.1,0,0.3,0,0.5v2.2c0,0.3,0,0.4,0,0.5 c0,0.1,0.1,0.1,0.2,0.2c0.1,0.1,0.2,0.1,0.4,0.1v0.2h-2v-0.2c0.2,0,0.4,0,0.5-0.1c0.1-0.1,0.1-0.3,0.1-0.7v-0.9l-0.2,0 c0,0-0.1,0-0.1,0l-1.3,1.8h-1v-0.2c0.1,0,0.3,0,0.3-0.1c0.1,0,0.2-0.2,0.3-0.4l1-1.3c-0.7-0.2-1-0.6-1-1.1c0-0.3,0.1-0.5,0.4-0.7 c0.2-0.2,0.7-0.3,1.3-0.3H-893.4z M-894.8,546.9c-0.1,0-0.2,0-0.3,0c-0.3,0-0.5,0.1-0.7,0.2c-0.1,0.1-0.2,0.3-0.2,0.5 c0,0.3,0.1,0.5,0.3,0.7s0.5,0.3,0.8,0.3c0,0,0.1,0,0.1,0V546.9z"/>
        <path class="SumColumnsSvg0" d="M-892.5,547.7c0.3-0.9,0.9-1.3,1.7-1.3c0.6,0,1,0.2,1.4,0.6c0.4,0.4,0.5,0.9,0.5,1.5c0,0.6-0.2,1.1-0.5,1.5 c-0.4,0.5-0.9,0.7-1.5,0.7c-0.6,0-1.1-0.3-1.5-0.8c-0.3-0.5-0.5-1.2-0.5-1.9c0-0.6,0.1-1.1,0.3-1.6c0.2-0.5,0.4-0.9,0.5-1.1 c0.2-0.3,0.4-0.4,0.7-0.6c0.2-0.1,0.7-0.2,1.3-0.2c0.5,0,0.7,0,0.8,0c0.1,0,0.2-0.1,0.3-0.2h0.2c-0.1,0.3-0.2,0.5-0.4,0.6 c-0.1,0.1-0.3,0.2-0.4,0.3c-0.2,0-0.4,0.1-0.9,0.1c-0.4,0-0.8,0-0.9,0.1c-0.2,0.1-0.3,0.2-0.5,0.4c-0.2,0.2-0.3,0.5-0.4,0.8 C-892.5,546.9-892.5,547.3-892.5,547.7z M-891,546.7c-0.3,0-0.5,0.1-0.7,0.4c-0.2,0.2-0.3,0.6-0.3,1.2c0,0.7,0.1,1.3,0.4,1.6 c0.3,0.4,0.6,0.6,0.9,0.6c0.3,0,0.6-0.1,0.7-0.4c0.2-0.3,0.3-0.7,0.3-1.2c0-0.6-0.1-1.1-0.3-1.5 C-890.3,546.9-890.6,546.7-891,546.7z"/>
        <path class="SumColumnsSvg0" d="M-888.6,547l1.3-0.5h0.2v1c0.2-0.4,0.4-0.6,0.6-0.8c0.2-0.1,0.4-0.2,0.7-0.2c0.4,0,0.8,0.2,1,0.5 c0.3,0.4,0.5,0.9,0.5,1.5c0,0.7-0.2,1.3-0.6,1.7c-0.3,0.4-0.8,0.6-1.3,0.6c-0.2,0-0.4,0-0.6-0.1c-0.1,0-0.3-0.1-0.4-0.3v1.2 c0,0.3,0,0.5,0.1,0.5c0,0.1,0.1,0.1,0.2,0.2c0.1,0,0.2,0.1,0.5,0.1v0.2h-2.1v-0.2h0.1c0.2,0,0.3,0,0.4-0.1c0.1,0,0.1-0.1,0.1-0.2 c0-0.1,0-0.3,0-0.6v-3.9c0-0.3,0-0.4,0-0.5c0-0.1-0.1-0.1-0.1-0.2c-0.1,0-0.1-0.1-0.2-0.1c-0.1,0-0.2,0-0.3,0.1L-888.6,547z M-887.1,547.7v1.5c0,0.3,0,0.5,0,0.7c0,0.2,0.1,0.3,0.3,0.5c0.2,0.1,0.4,0.2,0.6,0.2c0.3,0,0.5-0.1,0.7-0.3 c0.2-0.3,0.4-0.7,0.4-1.3c0-0.6-0.1-1.1-0.4-1.4c-0.2-0.2-0.4-0.3-0.7-0.3c-0.1,0-0.3,0-0.4,0.1 C-886.7,547.2-886.9,547.4-887.1,547.7z"/>
        <path class="SumColumnsSvg0" d="M-882.4,548.4l0.5,0c1.2,0,1.8,0.4,1.8,1.1c0,0.3-0.1,0.6-0.4,0.8c-0.3,0.2-0.7,0.3-1.3,0.3h-2v-0.2 c0.3,0,0.4,0,0.5-0.1c0.1-0.1,0.1-0.3,0.1-0.6v-2.2c0-0.3,0-0.5,0-0.6c0-0.1-0.1-0.1-0.2-0.2c-0.1,0-0.2-0.1-0.4-0.1v-0.2h2.1v0.2 c-0.3,0-0.5,0-0.5,0.1c-0.1,0-0.1,0.1-0.2,0.1c0,0.1-0.1,0.3-0.1,0.6V548.4z M-882.4,550.3c0.2,0,0.3,0.1,0.5,0.1 c0.3,0,0.5-0.1,0.7-0.2c0.2-0.2,0.3-0.4,0.3-0.6c0-0.6-0.4-0.9-1.2-0.9c-0.1,0-0.2,0-0.3,0V550.3z"/>
        <path class="SumColumnsSvg1" d="M-908.6,563.6h1.8v-0.9c0-0.3,0-0.4,0-0.5c0-0.1-0.1-0.1-0.2-0.2c-0.1-0.1-0.2-0.1-0.4-0.1v-0.2h2v0.2 c-0.2,0-0.3,0-0.4,0.1c-0.1,0-0.1,0.1-0.2,0.2c0,0.1,0,0.3,0,0.5v2.2c0,0.3,0,0.4,0,0.5c0,0.1,0.1,0.2,0.2,0.2 c0.1,0.1,0.2,0.1,0.4,0.1v0.2h-2v-0.2c0.2,0,0.4,0,0.5-0.1c0.1-0.1,0.1-0.3,0.1-0.7v-1h-1.8v1c0,0.3,0,0.4,0,0.5 c0,0.1,0.1,0.2,0.2,0.2c0.1,0.1,0.2,0.1,0.4,0.1v0.2h-2v-0.2c0.3,0,0.4,0,0.5-0.1c0.1-0.1,0.1-0.3,0.1-0.6v-2.2c0-0.3,0-0.4,0-0.5 c0-0.1-0.1-0.1-0.2-0.2c-0.1-0.1-0.2-0.1-0.4-0.1v-0.2h2v0.2c-0.2,0-0.3,0-0.4,0.1c-0.1,0-0.1,0.1-0.2,0.2c0,0.1,0,0.3,0,0.5 V563.6z"/>
        <path class="SumColumnsSvg1" d="M-903,561.6c0.6,0,1.1,0.2,1.5,0.7c0.3,0.4,0.5,0.9,0.5,1.4c0,0.4-0.1,0.7-0.3,1.1c-0.2,0.4-0.4,0.7-0.7,0.8 c-0.3,0.2-0.7,0.3-1,0.3c-0.6,0-1.1-0.2-1.5-0.7c-0.3-0.4-0.5-0.9-0.5-1.4c0-0.4,0.1-0.7,0.3-1.1c0.2-0.4,0.4-0.6,0.7-0.8 C-903.6,561.7-903.3,561.6-903,561.6z M-903.1,561.9c-0.2,0-0.3,0-0.5,0.1c-0.2,0.1-0.3,0.3-0.4,0.5c-0.1,0.2-0.1,0.5-0.1,0.9 c0,0.6,0.1,1.1,0.4,1.5c0.2,0.4,0.5,0.6,0.9,0.6c0.3,0,0.5-0.1,0.7-0.4c0.2-0.2,0.3-0.6,0.3-1.2c0-0.7-0.2-1.3-0.5-1.7 C-902.5,562.1-902.8,561.9-903.1,561.9z"/>
        <path class="SumColumnsSvg1" d="M-896.9,561.8v0.2c-0.2,0-0.3,0-0.4,0.1c-0.1,0.1-0.1,0.1-0.2,0.2c0,0.1,0,0.3,0,0.5v2.2c0,0.3,0,0.4,0,0.5 c0,0.1,0.1,0.1,0.2,0.2c0.1,0.1,0.2,0.1,0.4,0.1v0.2h-2v-0.2c0.2,0,0.4,0,0.5-0.1c0.1-0.1,0.1-0.3,0.1-0.7V564l-0.2,0 c0,0-0.1,0-0.1,0l-1.3,1.8h-1v-0.2c0.1,0,0.3,0,0.3-0.1c0.1,0,0.2-0.2,0.3-0.4l1-1.3c-0.7-0.2-1-0.6-1-1.1c0-0.3,0.1-0.5,0.4-0.7 c0.2-0.2,0.7-0.3,1.3-0.3H-896.9z M-898.2,562.1c-0.1,0-0.2,0-0.3,0c-0.3,0-0.5,0.1-0.7,0.2c-0.1,0.1-0.2,0.3-0.2,0.5 c0,0.3,0.1,0.5,0.3,0.7c0.2,0.2,0.5,0.3,0.8,0.3c0,0,0.1,0,0.1,0V562.1z"/>
        <path class="SumColumnsSvg1" d="M-896,562.9c0.3-0.9,0.9-1.3,1.7-1.3c0.6,0,1,0.2,1.4,0.6c0.4,0.4,0.5,0.9,0.5,1.5c0,0.6-0.2,1.1-0.5,1.5 c-0.4,0.5-0.9,0.7-1.5,0.7c-0.6,0-1.1-0.3-1.5-0.8c-0.3-0.5-0.5-1.2-0.5-1.9c0-0.6,0.1-1.1,0.3-1.6c0.2-0.5,0.4-0.9,0.5-1.1 c0.2-0.3,0.4-0.4,0.7-0.6c0.2-0.1,0.7-0.2,1.3-0.2c0.5,0,0.7,0,0.8,0c0.1,0,0.2-0.1,0.3-0.2h0.2c-0.1,0.3-0.2,0.5-0.4,0.6 c-0.1,0.1-0.3,0.2-0.4,0.3c-0.2,0-0.4,0.1-0.9,0.1c-0.4,0-0.8,0-0.9,0.1c-0.2,0.1-0.3,0.2-0.5,0.4c-0.2,0.2-0.3,0.5-0.4,0.8 C-895.9,562.1-896,562.5-896,562.9z M-894.4,561.9c-0.3,0-0.5,0.1-0.7,0.4s-0.3,0.6-0.3,1.2c0,0.7,0.1,1.3,0.4,1.6 c0.3,0.4,0.6,0.6,0.9,0.6c0.3,0,0.6-0.1,0.7-0.4c0.2-0.3,0.3-0.7,0.3-1.2c0-0.6-0.1-1.1-0.3-1.5 C-893.8,562.1-894.1,561.9-894.4,561.9z"/>
        <path class="SumColumnsSvg1" d="M-892,562.2l1.3-0.5h0.2v1c0.2-0.4,0.4-0.6,0.6-0.8c0.2-0.1,0.4-0.2,0.7-0.2c0.4,0,0.8,0.2,1,0.5 c0.3,0.4,0.5,0.9,0.5,1.5c0,0.7-0.2,1.3-0.6,1.7c-0.3,0.4-0.8,0.6-1.3,0.6c-0.2,0-0.4,0-0.6-0.1c-0.1,0-0.3-0.1-0.4-0.3v1.2 c0,0.3,0,0.5,0.1,0.5c0,0.1,0.1,0.1,0.2,0.2c0.1,0,0.2,0.1,0.5,0.1v0.2h-2.1v-0.2h0.1c0.2,0,0.3,0,0.4-0.1c0.1,0,0.1-0.1,0.1-0.2 c0-0.1,0-0.3,0-0.6V563c0-0.3,0-0.4,0-0.5c0-0.1-0.1-0.1-0.1-0.2c-0.1,0-0.1-0.1-0.2-0.1c-0.1,0-0.2,0-0.3,0.1L-892,562.2z M-890.6,562.9v1.5c0,0.3,0,0.5,0,0.7c0,0.2,0.1,0.3,0.3,0.5c0.2,0.1,0.4,0.2,0.6,0.2c0.3,0,0.5-0.1,0.7-0.3 c0.2-0.3,0.4-0.7,0.4-1.3c0-0.6-0.1-1.1-0.4-1.4c-0.2-0.2-0.4-0.3-0.7-0.3c-0.1,0-0.3,0-0.4,0.1 C-890.2,562.4-890.4,562.6-890.6,562.9z"/>
        <path class="SumColumnsSvg1" d="M-885.9,563.6l0.5,0c1.2,0,1.8,0.4,1.8,1.1c0,0.3-0.1,0.6-0.4,0.8c-0.3,0.2-0.7,0.3-1.3,0.3h-2v-0.2 c0.3,0,0.4,0,0.5-0.1c0.1-0.1,0.1-0.3,0.1-0.6v-2.2c0-0.3,0-0.5,0-0.6c0-0.1-0.1-0.1-0.2-0.2c-0.1,0-0.2-0.1-0.4-0.1v-0.2h2.1v0.2 c-0.3,0-0.5,0-0.5,0.1c-0.1,0-0.1,0.1-0.2,0.1c0,0.1-0.1,0.3-0.1,0.6V563.6z M-885.9,565.5c0.2,0,0.3,0.1,0.5,0.1 c0.3,0,0.5-0.1,0.7-0.2c0.2-0.2,0.3-0.4,0.3-0.6c0-0.6-0.4-0.9-1.2-0.9c-0.1,0-0.2,0-0.3,0V565.5z"/>
        <path class="SumColumnsSvg0" d="M-909.3,577h3.6v0.2c-0.2,0-0.3,0-0.4,0.1c-0.1,0-0.1,0.1-0.2,0.1c0,0.1-0.1,0.3-0.1,0.6v2 c0,0.4,0,0.7,0.1,0.8c0.1,0.1,0.2,0.1,0.5,0.2v1.3h-0.2c0-0.2-0.1-0.5-0.2-0.6c-0.1-0.2-0.3-0.3-0.5-0.4c-0.2-0.1-0.5-0.1-0.9-0.1 h-1.1c-0.3,0-0.6,0-0.8,0.1c-0.2,0.1-0.3,0.2-0.5,0.4c-0.1,0.2-0.2,0.4-0.2,0.7h-0.2v-1.3c0.2,0,0.5-0.1,0.7-0.3 c0.2-0.2,0.4-0.5,0.5-1.1c0.2-0.5,0.2-1.1,0.2-1.6c0-0.5-0.2-0.8-0.7-0.8V577z M-908.3,577.3v0.2c0,1.5-0.3,2.5-0.8,3.3h1.5 c0.3,0,0.4,0,0.5-0.1c0,0,0.1-0.2,0.1-0.5v-2.9H-908.3z"/>
        <path class="SumColumnsSvg0" d="M-904.5,578.5c0,0.6,0.1,1.1,0.4,1.4c0.3,0.3,0.6,0.5,1,0.5c0.3,0,0.5-0.1,0.7-0.2c0.2-0.1,0.4-0.4,0.5-0.8 l0.1,0.1c-0.1,0.4-0.2,0.8-0.5,1.1c-0.3,0.3-0.7,0.5-1.1,0.5c-0.5,0-0.9-0.2-1.3-0.6c-0.3-0.4-0.5-0.9-0.5-1.5 c0-0.7,0.2-1.2,0.5-1.6c0.4-0.4,0.8-0.6,1.3-0.6c0.5,0,0.8,0.2,1.1,0.5c0.3,0.3,0.4,0.7,0.4,1.2H-904.5z M-904.5,578.2h1.9 c0-0.3,0-0.4-0.1-0.6c-0.1-0.2-0.2-0.3-0.3-0.4c-0.1-0.1-0.3-0.1-0.5-0.1c-0.2,0-0.5,0.1-0.7,0.3 C-904.4,577.6-904.5,577.9-904.5,578.2z"/>
        <path class="SumColumnsSvg0" d="M-897.1,581h-1.2c-0.4-0.5-0.7-1.1-1-1.7c-0.1-0.1-0.1-0.2-0.2-0.3c-0.1-0.1-0.1-0.1-0.2-0.1c0,0-0.1,0-0.2,0 v1.1c0,0.3,0,0.5,0.1,0.6c0,0.1,0.1,0.1,0.2,0.2c0.1,0,0.2,0.1,0.4,0.1v0.2h-2v-0.2c0.3,0,0.4,0,0.5-0.1c0.1-0.1,0.1-0.3,0.1-0.6 v-2.2c0-0.3,0-0.5,0-0.6c0-0.1-0.1-0.1-0.2-0.2c-0.1,0-0.2-0.1-0.4-0.1V577h2v0.2c-0.2,0-0.4,0-0.5,0.1c-0.1,0-0.1,0.1-0.2,0.1 c0,0.1-0.1,0.3-0.1,0.6v0.8c0.1,0,0.1,0,0.1,0c0.2,0,0.4-0.1,0.5-0.2c0.2-0.1,0.3-0.3,0.4-0.7c0.1-0.3,0.2-0.5,0.3-0.6 c0.1-0.1,0.2-0.2,0.3-0.3c0.1-0.1,0.3-0.1,0.4-0.1c0.2,0,0.3,0,0.4,0.1c0.1,0.1,0.1,0.2,0.1,0.3c0,0.1,0,0.2-0.1,0.3 c-0.1,0.1-0.2,0.1-0.3,0.1c-0.1,0-0.1,0-0.2-0.1c-0.1,0-0.2-0.1-0.3-0.1c-0.1,0-0.2,0.1-0.3,0.4c-0.1,0.3-0.2,0.4-0.2,0.5 c0,0.1-0.1,0.2-0.3,0.3c0.1,0,0.2,0.1,0.3,0.2c0.1,0.1,0.3,0.4,0.6,0.9c0.2,0.4,0.4,0.7,0.5,0.8c0.1,0.1,0.3,0.2,0.5,0.2V581z"/>
        <path class="SumColumnsSvg0" d="M-892,578.1c0.3-0.9,0.9-1.3,1.7-1.3c0.6,0,1,0.2,1.4,0.6c0.4,0.4,0.5,0.9,0.5,1.5c0,0.6-0.2,1.1-0.5,1.5 c-0.4,0.5-0.9,0.7-1.5,0.7c-0.6,0-1.1-0.3-1.5-0.8c-0.3-0.5-0.5-1.2-0.5-1.9c0-0.6,0.1-1.1,0.3-1.6c0.2-0.5,0.4-0.9,0.5-1.1 c0.2-0.3,0.4-0.4,0.7-0.6c0.2-0.1,0.7-0.2,1.3-0.2c0.5,0,0.7,0,0.8,0c0.1,0,0.2-0.1,0.3-0.2h0.2c-0.1,0.3-0.2,0.5-0.4,0.6 c-0.1,0.1-0.3,0.2-0.4,0.3c-0.2,0-0.4,0.1-0.9,0.1c-0.4,0-0.8,0-0.9,0.1c-0.2,0.1-0.3,0.2-0.5,0.4c-0.2,0.2-0.3,0.5-0.4,0.8 C-891.9,577.4-892,577.7-892,578.1z M-890.4,577.1c-0.3,0-0.5,0.1-0.7,0.4s-0.3,0.6-0.3,1.2c0,0.7,0.1,1.3,0.4,1.6 c0.3,0.4,0.6,0.6,0.9,0.6c0.3,0,0.6-0.1,0.7-0.4c0.2-0.3,0.3-0.7,0.3-1.2c0-0.6-0.1-1.1-0.3-1.5 C-889.8,577.3-890.1,577.1-890.4,577.1z"/>
        <path class="SumColumnsSvg0" d="M-888.1,577.4l1.3-0.5h0.2v1c0.2-0.4,0.4-0.6,0.6-0.8c0.2-0.1,0.4-0.2,0.7-0.2c0.4,0,0.8,0.2,1,0.5 c0.3,0.4,0.5,0.9,0.5,1.5c0,0.7-0.2,1.3-0.6,1.7c-0.3,0.4-0.8,0.6-1.3,0.6c-0.2,0-0.4,0-0.6-0.1c-0.1,0-0.3-0.1-0.4-0.3v1.2 c0,0.3,0,0.5,0.1,0.5c0,0.1,0.1,0.1,0.2,0.2c0.1,0,0.2,0.1,0.5,0.1v0.2h-2.1v-0.2h0.1c0.2,0,0.3,0,0.4-0.1c0.1,0,0.1-0.1,0.1-0.2 c0-0.1,0-0.3,0-0.6v-3.9c0-0.3,0-0.4,0-0.5c0-0.1-0.1-0.1-0.1-0.2c-0.1,0-0.1-0.1-0.2-0.1c-0.1,0-0.2,0-0.3,0.1L-888.1,577.4z M-886.6,578.1v1.5c0,0.3,0,0.5,0,0.7c0,0.2,0.1,0.3,0.3,0.5c0.2,0.1,0.4,0.2,0.6,0.2c0.3,0,0.5-0.1,0.7-0.3 c0.2-0.3,0.4-0.7,0.4-1.3c0-0.6-0.1-1.1-0.4-1.4c-0.2-0.2-0.4-0.3-0.7-0.3c-0.1,0-0.3,0-0.4,0.1 C-886.2,577.7-886.4,577.8-886.6,578.1z"/>
        <path class="SumColumnsSvg0" d="M-881.9,578.8l0.5,0c1.2,0,1.8,0.4,1.8,1.1c0,0.3-0.1,0.6-0.4,0.8c-0.3,0.2-0.7,0.3-1.3,0.3h-2v-0.2 c0.3,0,0.4,0,0.5-0.1c0.1-0.1,0.1-0.3,0.1-0.6v-2.2c0-0.3,0-0.5,0-0.6c0-0.1-0.1-0.1-0.2-0.2c-0.1,0-0.2-0.1-0.4-0.1V577h2.1v0.2 c-0.3,0-0.5,0-0.5,0.1c-0.1,0-0.1,0.1-0.2,0.1c0,0.1-0.1,0.3-0.1,0.6V578.8z M-881.9,580.7c0.2,0,0.3,0.1,0.5,0.1 c0.3,0,0.5-0.1,0.7-0.2c0.2-0.2,0.3-0.4,0.3-0.6c0-0.6-0.4-0.9-1.2-0.9c-0.1,0-0.2,0-0.3,0V580.7z"/>
    </g>
</svg>
