<svg xmlns="http://www.w3.org/2000/svg" width="28.77mm" height="27.07mm" viewBox="0 0 81.54 76.74">
    <style>
        .SumColumnsSvgSelected{fill:#ff6b00;}
    </style>
    <g fill="#fff">
        <path d="M4.37,4.6v.19a.92.92,0,0,0-.45.08.39.39,0,0,0-.19.21,2.24,2.24,0,0,0,0,.57V8a2.5,2.5,0,0,0,0,.56.39.39,0,0,0,.19.22.91.91,0,0,0,.45.09v.18H2.21V8.9a.74.74,0,0,0,.54-.15A1.2,1.2,0,0,0,2.89,8v-1H2.53l-1.43,2H0V8.9a.64.64,0,0,0,.34-.07A2.27,2.27,0,0,0,.69,8.4l1-1.47Q.61,6.53.61,5.73A1,1,0,0,1,1,4.94,2.18,2.18,0,0,1,2.39,4.6ZM2.89,5a1.32,1.32,0,0,0-.36-.05,1,1,0,0,0-.74.24.79.79,0,0,0-.24.58.88.88,0,0,0,.35.71,1.34,1.34,0,0,0,.87.28h.12Z" transform="translate(0.01 -4.47)"/>
        <path d="M6.31,6.6H8.24V5.65a2.73,2.73,0,0,0,0-.55A.39.39,0,0,0,8,4.88a.91.91,0,0,0-.48-.09V4.6H9.73v.19a1.06,1.06,0,0,0-.44.07.36.36,0,0,0-.19.2,2.19,2.19,0,0,0,0,.6V8a2.69,2.69,0,0,0,0,.56.37.37,0,0,0,.18.22.94.94,0,0,0,.46.08v.18H7.56V8.9a.74.74,0,0,0,.54-.15A1.2,1.2,0,0,0,8.24,8V6.92H6.31V8a2.69,2.69,0,0,0,0,.56.37.37,0,0,0,.18.22A.94.94,0,0,0,7,8.9v.18H4.82V8.9q.43,0,.56-.16A1.32,1.32,0,0,0,5.5,8V5.65a2.69,2.69,0,0,0,0-.56.36.36,0,0,0-.18-.22,1,1,0,0,0-.46-.08V4.6H7v.19a1.06,1.06,0,0,0-.44.07.36.36,0,0,0-.19.2,2.19,2.19,0,0,0,0,.6Z" transform="translate(0.01 -4.47)"/>
        <path d="M13.1,6.71q1.23.25,1.23,1.15a1,1,0,0,1-.51.91,2.8,2.8,0,0,1-1.42.3H10.19V8.9q.43,0,.55-.16A1.4,1.4,0,0,0,10.85,8V5.65A2,2,0,0,0,10.8,5a.5.5,0,0,0-.16-.17.89.89,0,0,0-.45-.08V4.6h2.06a4.09,4.09,0,0,1,1,.09,1.15,1.15,0,0,1,.61.37,1,1,0,0,1,.24.66Q14.05,6.49,13.1,6.71ZM11.66,6.6h.26a1.48,1.48,0,0,0,1-.26.79.79,0,0,0,.3-.62.67.67,0,0,0-.3-.62,1.88,1.88,0,0,0-1-.19h-.25Zm0,2.08a1.93,1.93,0,0,0,.58.08,1.27,1.27,0,0,0,.86-.25.84.84,0,0,0,.28-.65A.77.77,0,0,0,13,7.16a1.85,1.85,0,0,0-1-.24h-.35Z" transform="translate(0.01 -4.47)"/>
        <path d="M17.39,8.43a7.46,7.46,0,0,1-.86.62,1.32,1.32,0,0,1-.56.12,1,1,0,0,1-.76-.32A1.17,1.17,0,0,1,14.9,8,1.06,1.06,0,0,1,15,7.45a1.93,1.93,0,0,1,.7-.62,10.87,10.87,0,0,1,1.65-.71V5.94A1.46,1.46,0,0,0,17.18,5a.77.77,0,0,0-.62-.25.7.7,0,0,0-.49.17.5.5,0,0,0-.19.38V5.6a.49.49,0,0,1-.11.35.39.39,0,0,1-.3.12.38.38,0,0,1-.3-.13.5.5,0,0,1-.11-.35,1,1,0,0,1,.43-.77,1.86,1.86,0,0,1,1.21-.35,2.09,2.09,0,0,1,1,.2.92.92,0,0,1,.42.47,2.67,2.67,0,0,1,.09.86V7.52a7,7,0,0,0,0,.78.33.33,0,0,0,.08.19.19.19,0,0,0,.13,0,.27.27,0,0,0,.14,0,3,3,0,0,0,.4-.36v.27q-.55.73-1,.73A.48.48,0,0,1,17.53,9,.9.9,0,0,1,17.39,8.43Zm0-.32V6.41a9.69,9.69,0,0,0-1,.42,1.65,1.65,0,0,0-.55.45.87.87,0,0,0-.17.51.84.84,0,0,0,.21.58.64.64,0,0,0,.48.23A1.77,1.77,0,0,0,17.39,8.12Z" transform="translate(0.01 -4.47)"/>
        <path d="M19,5l1.38-.56h.19v1a2.53,2.53,0,0,1,.7-.83A1.29,1.29,0,0,1,22,4.47,1.41,1.41,0,0,1,23.09,5a2.49,2.49,0,0,1,.55,1.68A2.8,2.8,0,0,1,23,8.59a1.76,1.76,0,0,1-1.38.62,1.72,1.72,0,0,1-.62-.1,1.46,1.46,0,0,1-.44-.29v1.36a1.82,1.82,0,0,0,.06.58.42.42,0,0,0,.2.2,1.2,1.2,0,0,0,.51.07v.18H18.95V11h.12a.89.89,0,0,0,.46-.1.35.35,0,0,0,.14-.17,2.07,2.07,0,0,0,.05-.61V5.92a2.31,2.31,0,0,0,0-.55.33.33,0,0,0-.12-.18.4.4,0,0,0-.23-.06.88.88,0,0,0-.3.07Zm1.56.78V7.5a3.58,3.58,0,0,0,0,.71.92.92,0,0,0,.33.5,1,1,0,0,0,.67.21,1,1,0,0,0,.79-.38,2.2,2.2,0,0,0,.4-1.4,2.44,2.44,0,0,0-.45-1.58.93.93,0,0,0-.74-.38,1,1,0,0,0-.46.12A2.72,2.72,0,0,0,20.53,5.83Z" transform="translate(0.01 -4.47)"/>
        <path d="M25.69,6.6h.56q2,0,2,1.23a1.07,1.07,0,0,1-.49.92,2.41,2.41,0,0,1-1.4.34H24.2V8.9q.43,0,.56-.16A1.32,1.32,0,0,0,24.88,8V5.65A1.9,1.9,0,0,0,24.83,5a.52.52,0,0,0-.17-.17.92.92,0,0,0-.46-.08V4.6h2.34v.19a1.78,1.78,0,0,0-.6.06.55.55,0,0,0-.19.15,1.56,1.56,0,0,0-.07.66Zm0,2.09a2,2,0,0,0,.52.07A1.18,1.18,0,0,0,27,8.5a.82.82,0,0,0,.31-.65q0-.94-1.3-.94h-.31Z" transform="translate(0.01 -4.47)"/>
    </g>
    <g fill="#fff">
        <path d="M2.08,16.69l1.32-.55h.21v2.75a1.34,1.34,0,0,1,.9-.41,1.29,1.29,0,0,1,1.08.69,3,3,0,0,1,.45,1.68,3,3,0,0,1-.46,1.67,1.32,1.32,0,0,1-1.11.7,1.13,1.13,0,0,1-.86-.43v1.38a2.06,2.06,0,0,0,.06.62.34.34,0,0,0,.2.19,2.12,2.12,0,0,0,.62.06v.18H2.08V25a1,1,0,0,0,.63-.14,1.14,1.14,0,0,0,.14-.73V22.78a1.1,1.1,0,0,1-.86.43,1.31,1.31,0,0,1-1.13-.7A3.12,3.12,0,0,1,.42,20.8a3,3,0,0,1,.43-1.62A1.28,1.28,0,0,1,2,18.47a1.1,1.1,0,0,1,.88.47V17.73a2.43,2.43,0,0,0-.08-.8.28.28,0,0,0-.27-.17.88.88,0,0,0-.35.08Zm.78,2.69q-.27-.58-.7-.58t-.65.54A4.32,4.32,0,0,0,1.28,21a3.44,3.44,0,0,0,.23,1.43.71.71,0,0,0,.65.49.89.89,0,0,0,.7-.44Zm.76,3a.79.79,0,0,0,.31.39.74.74,0,0,0,.4.14.71.71,0,0,0,.62-.47,3.41,3.41,0,0,0,.24-1.48q0-2.13-.84-2.13a1,1,0,0,0-.72.4Z" transform="translate(0.01 -4.47)"/>
        <path d="M7.54,20.29A2.3,2.3,0,0,0,8,21.85a1.47,1.47,0,0,0,1.15.57,1.25,1.25,0,0,0,.76-.24,1.79,1.79,0,0,0,.54-.83l.15.1a2.33,2.33,0,0,1-.6,1.22,1.59,1.59,0,0,1-1.24.55,1.8,1.8,0,0,1-1.38-.63,2.41,2.41,0,0,1-.57-1.69,2.55,2.55,0,0,1,.59-1.79,1.92,1.92,0,0,1,1.48-.64,1.65,1.65,0,0,1,1.24.5,1.81,1.81,0,0,1,.48,1.33Zm0-.28H9.61a1.91,1.91,0,0,0-.1-.61A1,1,0,0,0,9.15,19a.91.91,0,0,0-.51-.16,1,1,0,0,0-.73.32A1.36,1.36,0,0,0,7.54,20Z" transform="translate(0.01 -4.47)"/>
        <path d="M14.07,20.71q1.23.25,1.23,1.15a1,1,0,0,1-.51.91,2.8,2.8,0,0,1-1.42.3H11.15V22.9q.43,0,.55-.16a1.4,1.4,0,0,0,.11-.71V19.65a2,2,0,0,0-.05-.62.5.5,0,0,0-.16-.17.89.89,0,0,0-.45-.08V18.6h2.06a4.09,4.09,0,0,1,1,.09,1.15,1.15,0,0,1,.61.37,1,1,0,0,1,.24.66Q15,20.49,14.07,20.71Zm-1.44-.11h.26a1.48,1.48,0,0,0,1-.26.79.79,0,0,0,.3-.62.67.67,0,0,0-.3-.62,1.88,1.88,0,0,0-1-.19h-.25Zm0,2.08a1.93,1.93,0,0,0,.58.08,1.27,1.27,0,0,0,.86-.25.84.84,0,0,0,.28-.65.77.77,0,0,0-.37-.69,1.85,1.85,0,0,0-1-.24h-.35Z" transform="translate(0.01 -4.47)"/>
        <path d="M15.63,19,17,18.49h.19v1a2.53,2.53,0,0,1,.7-.83,1.29,1.29,0,0,1,.73-.24,1.41,1.41,0,0,1,1.12.53,2.49,2.49,0,0,1,.55,1.68,2.8,2.8,0,0,1-.66,1.91,1.76,1.76,0,0,1-1.38.62,1.72,1.72,0,0,1-.62-.1,1.46,1.46,0,0,1-.44-.29v1.36a1.82,1.82,0,0,0,.06.58.42.42,0,0,0,.2.2,1.2,1.2,0,0,0,.51.07v.18H15.61V25h.12a.89.89,0,0,0,.46-.1.35.35,0,0,0,.14-.17,2.07,2.07,0,0,0,.05-.61V19.92a2.31,2.31,0,0,0,0-.55.33.33,0,0,0-.12-.18.4.4,0,0,0-.23-.06.88.88,0,0,0-.3.07Zm1.56.78V21.5a3.58,3.58,0,0,0,0,.71.92.92,0,0,0,.33.5,1,1,0,0,0,.67.21,1,1,0,0,0,.79-.38,2.2,2.2,0,0,0,.4-1.4A2.44,2.44,0,0,0,19,19.56a.93.93,0,0,0-.74-.38,1,1,0,0,0-.46.12A2.72,2.72,0,0,0,17.19,19.83Z" transform="translate(0.01 -4.47)"/>
        <path d="M23.49,22.43a7.46,7.46,0,0,1-.86.62,1.32,1.32,0,0,1-.56.12,1,1,0,0,1-.76-.32A1.17,1.17,0,0,1,21,22a1.06,1.06,0,0,1,.15-.57,1.93,1.93,0,0,1,.7-.62,10.87,10.87,0,0,1,1.65-.71v-.18a1.46,1.46,0,0,0-.21-.92.77.77,0,0,0-.62-.25.7.7,0,0,0-.49.17.5.5,0,0,0-.19.38v.28a.49.49,0,0,1-.11.35.39.39,0,0,1-.3.12.38.38,0,0,1-.3-.13.5.5,0,0,1-.11-.35,1,1,0,0,1,.43-.77,1.86,1.86,0,0,1,1.21-.35,2.09,2.09,0,0,1,1,.2.92.92,0,0,1,.42.47,2.67,2.67,0,0,1,.09.86v1.52a7,7,0,0,0,0,.78.33.33,0,0,0,.08.19.19.19,0,0,0,.13,0,.27.27,0,0,0,.14,0,3,3,0,0,0,.4-.36v.27q-.55.73-1,.73a.48.48,0,0,1-.38-.17A.9.9,0,0,1,23.49,22.43Zm0-.32v-1.7a9.69,9.69,0,0,0-1,.42,1.65,1.65,0,0,0-.55.45.87.87,0,0,0-.17.51.84.84,0,0,0,.21.58.64.64,0,0,0,.48.23A1.77,1.77,0,0,0,23.49,22.12Z" transform="translate(0.01 -4.47)"/>
        <path d="M25.94,18.6h4v.19a1,1,0,0,0-.44.07.51.51,0,0,0-.17.16,1.7,1.7,0,0,0-.06.63V22a1.93,1.93,0,0,0,.05.62.5.5,0,0,0,.17.18.93.93,0,0,0,.46.08v.18H27.62V22.9a2.29,2.29,0,0,0,.52,0,.37.37,0,0,0,.23-.19,1.56,1.56,0,0,0,.08-.64V18.92H27v1.88a8,8,0,0,1-.1,1.5,1,1,0,0,1-.38.64,1.06,1.06,0,0,1-.64.21q-.62,0-.62-.52a.42.42,0,0,1,.1-.29.33.33,0,0,1,.26-.11.45.45,0,0,1,.32.14c.13.12.22.19.29.19s.25-.12.32-.37a5.64,5.64,0,0,0,.1-1.29v-1A2.23,2.23,0,0,0,26.5,19c-.07-.11-.26-.18-.56-.2Z" transform="translate(0.01 -4.47)"/>
        <path d="M31.87,20.6h.56q2,0,2,1.23a1.07,1.07,0,0,1-.49.92,2.41,2.41,0,0,1-1.4.34H30.38V22.9q.43,0,.56-.16a1.32,1.32,0,0,0,.12-.71V19.65A1.9,1.9,0,0,0,31,19a.52.52,0,0,0-.17-.17.92.92,0,0,0-.46-.08V18.6h2.34v.19a1.78,1.78,0,0,0-.6.06.55.55,0,0,0-.19.15,1.56,1.56,0,0,0-.07.66Zm0,2.09a2,2,0,0,0,.52.07,1.18,1.18,0,0,0,.79-.26.82.82,0,0,0,.31-.65q0-.94-1.3-.94h-.31Z" transform="translate(0.01 -4.47)"/>
    </g>
    <g fill="#fff">
        <path d="M3.2,35.91,4.6,32.6H6.11v.19a1,1,0,0,0-.44.07.51.51,0,0,0-.17.16,1.7,1.7,0,0,0-.06.63V36a2.35,2.35,0,0,0,0,.6.35.35,0,0,0,.19.2,1.08,1.08,0,0,0,.44.07v.18H3.95V36.9a.73.73,0,0,0,.54-.15A1.2,1.2,0,0,0,4.62,36V33.34L3,37.08H2.87L1.25,33.34V36a2.22,2.22,0,0,0,0,.6.36.36,0,0,0,.19.2,1.06,1.06,0,0,0,.44.07v.18H.22V36.9q.43,0,.56-.16A1.32,1.32,0,0,0,.9,36V33.65A1.9,1.9,0,0,0,.85,33a.52.52,0,0,0-.17-.17.92.92,0,0,0-.46-.08V32.6H1.8Z" transform="translate(0.01 -4.47)"/>
        <path d="M9.11,36.43a7.46,7.46,0,0,1-.86.62,1.32,1.32,0,0,1-.56.12,1,1,0,0,1-.76-.32,1.17,1.17,0,0,1-.3-.83,1.06,1.06,0,0,1,.15-.57,1.93,1.93,0,0,1,.7-.62,10.87,10.87,0,0,1,1.65-.71v-.18A1.46,1.46,0,0,0,8.89,33a.77.77,0,0,0-.62-.25.7.7,0,0,0-.49.17.5.5,0,0,0-.19.38v.28a.49.49,0,0,1-.11.35.39.39,0,0,1-.3.12.38.38,0,0,1-.3-.13.5.5,0,0,1-.11-.35,1,1,0,0,1,.43-.77,1.86,1.86,0,0,1,1.21-.35,2.09,2.09,0,0,1,1,.2.92.92,0,0,1,.42.47,2.67,2.67,0,0,1,.09.86v1.52a7,7,0,0,0,0,.78.33.33,0,0,0,.08.19.19.19,0,0,0,.13,0,.27.27,0,0,0,.14,0,3,3,0,0,0,.4-.36v.27q-.55.73-1,.73A.48.48,0,0,1,9.25,37,.9.9,0,0,1,9.11,36.43Zm0-.32v-1.7a9.69,9.69,0,0,0-1,.42,1.65,1.65,0,0,0-.55.45.87.87,0,0,0-.17.51.84.84,0,0,0,.21.58.64.64,0,0,0,.48.23A1.77,1.77,0,0,0,9.11,36.12Z" transform="translate(0.01 -4.47)"/>
        <path d="M10.69,33l1.38-.56h.19v1a2.53,2.53,0,0,1,.7-.83,1.29,1.29,0,0,1,.73-.24A1.41,1.41,0,0,1,14.8,33a2.49,2.49,0,0,1,.55,1.68,2.8,2.8,0,0,1-.66,1.91,1.76,1.76,0,0,1-1.38.62,1.72,1.72,0,0,1-.62-.1,1.46,1.46,0,0,1-.44-.29v1.36a1.82,1.82,0,0,0,.06.58.42.42,0,0,0,.2.2A1.2,1.2,0,0,0,13,39v.18H10.66V39h.12a.89.89,0,0,0,.46-.1.35.35,0,0,0,.14-.17,2.07,2.07,0,0,0,.05-.61V33.92a2.31,2.31,0,0,0,0-.55.33.33,0,0,0-.12-.18.4.4,0,0,0-.23-.06.88.88,0,0,0-.3.07Zm1.56.78V35.5a3.58,3.58,0,0,0,0,.71.92.92,0,0,0,.33.5,1,1,0,0,0,.67.21,1,1,0,0,0,.79-.38,2.2,2.2,0,0,0,.4-1.4A2.44,2.44,0,0,0,14,33.56a.93.93,0,0,0-.74-.38,1,1,0,0,0-.46.12A2.72,2.72,0,0,0,12.25,33.83Z" transform="translate(0.01 -4.47)"/>
        <path d="M15.81,32.6h3.87l.2,1.21h-.22a1.4,1.4,0,0,0-.2-.57.65.65,0,0,0-.31-.26,2,2,0,0,0-.6-.06h-.39V36a2,2,0,0,0,.06.63.31.31,0,0,0,.2.18,2.94,2.94,0,0,0,.63.06v.18H16.61V36.9a.9.9,0,0,0,.6-.15,1.2,1.2,0,0,0,.13-.72V32.92h-.4a2,2,0,0,0-.57.05.62.62,0,0,0-.29.24,1.74,1.74,0,0,0-.24.6h-.22Z" transform="translate(0.01 -4.47)"/>
    </g>
    <g fill="#fff">
        <path d="M2.85,50.43A7.46,7.46,0,0,1,2,51a1.32,1.32,0,0,1-.56.12,1,1,0,0,1-.76-.32A1.17,1.17,0,0,1,.36,50a1.06,1.06,0,0,1,.15-.57,1.93,1.93,0,0,1,.7-.62,10.87,10.87,0,0,1,1.65-.71v-.18A1.46,1.46,0,0,0,2.63,47,.77.77,0,0,0,2,46.77a.7.7,0,0,0-.49.17.5.5,0,0,0-.19.38v.28a.49.49,0,0,1-.11.35.39.39,0,0,1-.3.12.38.38,0,0,1-.3-.13.5.5,0,0,1-.11-.35A1,1,0,0,1,1,46.82a1.86,1.86,0,0,1,1.21-.35,2.09,2.09,0,0,1,1,.2.92.92,0,0,1,.42.47,2.67,2.67,0,0,1,.09.86v1.52a7,7,0,0,0,0,.78.33.33,0,0,0,.08.19.19.19,0,0,0,.13,0,.27.27,0,0,0,.14,0,3,3,0,0,0,.4-.36v.27q-.55.73-1,.73A.48.48,0,0,1,3,51,.9.9,0,0,1,2.85,50.43Zm0-.32v-1.7a9.69,9.69,0,0,0-1,.42,1.65,1.65,0,0,0-.55.45.87.87,0,0,0-.17.51.84.84,0,0,0,.21.58.64.64,0,0,0,.48.23A1.77,1.77,0,0,0,2.85,50.12Z" transform="translate(0.01 -4.47)"/>
        <path d="M7.95,46.92H6V50a1.93,1.93,0,0,0,.05.62.5.5,0,0,0,.17.18.93.93,0,0,0,.46.08v.18H4.53V50.9q.43,0,.56-.16A1.32,1.32,0,0,0,5.21,50V47.65A1.9,1.9,0,0,0,5.16,47,.52.52,0,0,0,5,46.87a.92.92,0,0,0-.46-.08V46.6h4.9v.19a1,1,0,0,0-.44.07.51.51,0,0,0-.18.16,1.7,1.7,0,0,0-.06.63V50a1.93,1.93,0,0,0,.05.62.5.5,0,0,0,.17.18.93.93,0,0,0,.46.08v.18H7.27V50.9a.74.74,0,0,0,.54-.15A1.2,1.2,0,0,0,7.95,50Z" transform="translate(0.01 -4.47)"/>
        <path d="M9.65,47,11,46.49h.19v1a2.53,2.53,0,0,1,.7-.83,1.29,1.29,0,0,1,.73-.24,1.41,1.41,0,0,1,1.12.53,2.49,2.49,0,0,1,.55,1.68,2.8,2.8,0,0,1-.66,1.91,1.76,1.76,0,0,1-1.38.62,1.72,1.72,0,0,1-.62-.1,1.46,1.46,0,0,1-.44-.29v1.36a1.82,1.82,0,0,0,.06.58.42.42,0,0,0,.2.2A1.2,1.2,0,0,0,12,53v.18H9.62V53h.12a.89.89,0,0,0,.46-.1.35.35,0,0,0,.14-.17,2.07,2.07,0,0,0,.05-.61V47.92a2.31,2.31,0,0,0,0-.55.33.33,0,0,0-.12-.18.4.4,0,0,0-.23-.06.88.88,0,0,0-.3.07Zm1.56.78V49.5a3.58,3.58,0,0,0,0,.71.92.92,0,0,0,.33.5,1,1,0,0,0,.67.21,1,1,0,0,0,.79-.38,2.2,2.2,0,0,0,.4-1.4A2.44,2.44,0,0,0,13,47.56a.93.93,0,0,0-.74-.38,1,1,0,0,0-.46.12A2.72,2.72,0,0,0,11.21,47.83Z" transform="translate(0.01 -4.47)"/>
        <path d="M15.72,48.29a2.3,2.3,0,0,0,.48,1.56,1.47,1.47,0,0,0,1.15.57,1.25,1.25,0,0,0,.76-.24,1.79,1.79,0,0,0,.54-.83l.15.1a2.33,2.33,0,0,1-.6,1.22,1.59,1.59,0,0,1-1.24.55,1.8,1.8,0,0,1-1.38-.63A2.41,2.41,0,0,1,15,48.9a2.55,2.55,0,0,1,.59-1.79,1.92,1.92,0,0,1,1.48-.64,1.65,1.65,0,0,1,1.24.5,1.81,1.81,0,0,1,.48,1.33Zm0-.28h2.07a1.91,1.91,0,0,0-.1-.61,1,1,0,0,0-.36-.43.91.91,0,0,0-.51-.16,1,1,0,0,0-.73.32A1.36,1.36,0,0,0,15.72,48Z" transform="translate(0.01 -4.47)"/>
        <path d="M19.87,46.6h4v.19a1,1,0,0,0-.44.07.51.51,0,0,0-.17.16,1.7,1.7,0,0,0-.06.63V50a1.93,1.93,0,0,0,.05.62.5.5,0,0,0,.17.18.93.93,0,0,0,.46.08v.18H21.55V50.9a2.29,2.29,0,0,0,.52,0,.37.37,0,0,0,.23-.19,1.56,1.56,0,0,0,.08-.64V46.92H20.89v1.88a8,8,0,0,1-.1,1.5,1,1,0,0,1-.38.64,1.06,1.06,0,0,1-.64.21q-.62,0-.62-.52a.42.42,0,0,1,.1-.29.33.33,0,0,1,.26-.11.45.45,0,0,1,.32.14c.13.12.22.19.29.19s.25-.12.32-.37a5.64,5.64,0,0,0,.1-1.29v-1a2.23,2.23,0,0,0-.11-.93c-.07-.11-.26-.18-.56-.2Z" transform="translate(0.01 -4.47)"/>
        <path d="M25.8,48.6h.56q2,0,2,1.23a1.07,1.07,0,0,1-.49.92,2.41,2.41,0,0,1-1.4.34H24.31V50.9q.43,0,.56-.16A1.32,1.32,0,0,0,25,50V47.65a1.9,1.9,0,0,0-.05-.62.52.52,0,0,0-.17-.17.92.92,0,0,0-.46-.08V46.6h2.34v.19a1.78,1.78,0,0,0-.6.06.55.55,0,0,0-.19.15,1.56,1.56,0,0,0-.07.66Zm0,2.09a2,2,0,0,0,.52.07,1.18,1.18,0,0,0,.79-.26.82.82,0,0,0,.31-.65q0-.94-1.3-.94H25.8Z" transform="translate(0.01 -4.47)"/>
    </g>
    <g fill="#fff">
        <path d="M3.2,63.91,4.6,60.6H6.11v.19a1,1,0,0,0-.44.07.51.51,0,0,0-.17.16,1.7,1.7,0,0,0-.06.63V64a2.35,2.35,0,0,0,0,.6.35.35,0,0,0,.19.2,1.08,1.08,0,0,0,.44.07v.18H3.95V64.9a.73.73,0,0,0,.54-.15A1.2,1.2,0,0,0,4.62,64V61.34L3,65.08H2.87L1.25,61.34V64a2.22,2.22,0,0,0,0,.6.36.36,0,0,0,.19.2,1.06,1.06,0,0,0,.44.07v.18H.22V64.9q.43,0,.56-.16A1.32,1.32,0,0,0,.9,64V61.65A1.9,1.9,0,0,0,.85,61a.52.52,0,0,0-.17-.17.92.92,0,0,0-.46-.08V60.6H1.8Z" transform="translate(0.01 -4.47)"/>
        <path d="M9.11,64.43a7.46,7.46,0,0,1-.86.62,1.32,1.32,0,0,1-.56.12,1,1,0,0,1-.76-.32,1.17,1.17,0,0,1-.3-.83,1.06,1.06,0,0,1,.15-.57,1.93,1.93,0,0,1,.7-.62,10.87,10.87,0,0,1,1.65-.71v-.18A1.46,1.46,0,0,0,8.89,61a.77.77,0,0,0-.62-.25.7.7,0,0,0-.49.17.5.5,0,0,0-.19.38v.28a.49.49,0,0,1-.11.35.39.39,0,0,1-.3.12.38.38,0,0,1-.3-.13.5.5,0,0,1-.11-.35,1,1,0,0,1,.43-.77,1.86,1.86,0,0,1,1.21-.35,2.09,2.09,0,0,1,1,.2.92.92,0,0,1,.42.47,2.67,2.67,0,0,1,.09.86v1.52a7,7,0,0,0,0,.78.33.33,0,0,0,.08.19.19.19,0,0,0,.13,0,.27.27,0,0,0,.14,0,3,3,0,0,0,.4-.36v.27q-.55.73-1,.73A.48.48,0,0,1,9.25,65,.9.9,0,0,1,9.11,64.43Zm0-.32v-1.7a9.69,9.69,0,0,0-1,.42,1.65,1.65,0,0,0-.55.45.87.87,0,0,0-.17.51.84.84,0,0,0,.21.58.64.64,0,0,0,.48.23A1.77,1.77,0,0,0,9.11,64.12Z" transform="translate(0.01 -4.47)"/>
        <path d="M12.41,63.7l1.93-2.24a.82.82,0,0,0-.14-.52.6.6,0,0,0-.45-.15V60.6h2.08v.19a1,1,0,0,0-.44.07.51.51,0,0,0-.18.16,1.7,1.7,0,0,0-.06.63V64a1.93,1.93,0,0,0,.05.62.5.5,0,0,0,.17.18.93.93,0,0,0,.46.08v.18H13.66V64.9a.74.74,0,0,0,.54-.15,1.2,1.2,0,0,0,.14-.72v-2.1l-1.93,2.24a1.12,1.12,0,0,0,.12.57.55.55,0,0,0,.46.16v.18H10.92V64.9q.43,0,.56-.16A1.32,1.32,0,0,0,11.6,64V61.65a1.9,1.9,0,0,0-.05-.62.52.52,0,0,0-.17-.17.92.92,0,0,0-.46-.08V60.6h2.16v.19a1,1,0,0,0-.44.07.51.51,0,0,0-.18.16,1.7,1.7,0,0,0-.06.63Zm-.63-4.89a.4.4,0,0,1,.1-.28.31.31,0,0,1,.24-.1q.32,0,.57.61a.77.77,0,0,0,.32.43.84.84,0,0,0,.36.09.7.7,0,0,0,.46-.13,1.22,1.22,0,0,0,.29-.47q.21-.51.5-.51a.33.33,0,0,1,.25.11.36.36,0,0,1,.1.26.88.88,0,0,1-.49.7,2,2,0,0,1-1.11.32,2,2,0,0,1-1.2-.29A.87.87,0,0,1,11.77,58.81Z" transform="translate(0.01 -4.47)"/>
    </g>
    <g fill="#fff">
        <path d="M1.71,77.7l1.93-2.24a.82.82,0,0,0-.14-.52A.6.6,0,0,0,3,74.79V74.6H5.13v.19a1,1,0,0,0-.44.07.51.51,0,0,0-.18.16,1.7,1.7,0,0,0-.06.63V78a1.93,1.93,0,0,0,.05.62.5.5,0,0,0,.17.18.93.93,0,0,0,.46.08v.18H3V78.9a.74.74,0,0,0,.54-.15A1.2,1.2,0,0,0,3.64,78v-2.1L1.71,78.16a1.12,1.12,0,0,0,.12.57.55.55,0,0,0,.46.16v.18H.22V78.9q.43,0,.56-.16A1.32,1.32,0,0,0,.9,78V75.65A1.9,1.9,0,0,0,.85,75a.52.52,0,0,0-.17-.17.92.92,0,0,0-.46-.08V74.6H2.39v.19a1,1,0,0,0-.44.07.51.51,0,0,0-.18.16,1.7,1.7,0,0,0-.06.63Z" transform="translate(0.01 -4.47)"/>
        <path d="M8.16,76.91H7.06V78a2.08,2.08,0,0,0,0,.61.45.45,0,0,0,.17.18.93.93,0,0,0,.46.08v.18H5.57V78.9A1.81,1.81,0,0,0,6,78.84a.32.32,0,0,0,.17-.19A1.84,1.84,0,0,0,6.25,78V75.65a1.34,1.34,0,0,0-.12-.72.79.79,0,0,0-.56-.14V74.6H7.73v.19a1,1,0,0,0-.45.07.46.46,0,0,0-.17.18,1.92,1.92,0,0,0-.05.61v.94H8.18a2.58,2.58,0,0,1,.72-1.53,2.06,2.06,0,0,1,3,.09,2.35,2.35,0,0,1,.6,1.6,2.87,2.87,0,0,1-.3,1.23,2,2,0,0,1-.81.92,2.14,2.14,0,0,1-1.11.3,1.88,1.88,0,0,1-1.5-.68A2.52,2.52,0,0,1,8.16,76.91Zm2-2.12a1,1,0,0,0-.79.41,2.13,2.13,0,0,0-.31,1.28,3.43,3.43,0,0,0,.39,1.68,1.16,1.16,0,0,0,1,.71q1.08,0,1.08-1.73a3.34,3.34,0,0,0-.38-1.68A1.14,1.14,0,0,0,10.17,74.79Z" transform="translate(0.01 -4.47)"/>
        <path d="M14.53,76.6h1.93v-.95a2.73,2.73,0,0,0,0-.55.39.39,0,0,0-.17-.22.91.91,0,0,0-.48-.09V74.6h2.16v.19a1.06,1.06,0,0,0-.44.07.36.36,0,0,0-.19.2,2.19,2.19,0,0,0,0,.6V78a2.69,2.69,0,0,0,0,.56.37.37,0,0,0,.18.22.94.94,0,0,0,.46.08v.18H15.79V78.9a.74.74,0,0,0,.54-.15,1.2,1.2,0,0,0,.14-.72V76.92H14.53V78a2.69,2.69,0,0,0,0,.56.37.37,0,0,0,.18.22.94.94,0,0,0,.46.08v.18H13V78.9q.43,0,.56-.16a1.32,1.32,0,0,0,.12-.71V75.65a2.69,2.69,0,0,0,0-.56.36.36,0,0,0-.18-.22,1,1,0,0,0-.46-.08V74.6h2.16v.19a1.06,1.06,0,0,0-.44.07.36.36,0,0,0-.19.2,2.19,2.19,0,0,0,0,.6Z" transform="translate(0.01 -4.47)"/>
        <path d="M19.88,76.6h.56q2,0,2,1.23a1.07,1.07,0,0,1-.49.92,2.41,2.41,0,0,1-1.4.34H18.4V78.9q.43,0,.56-.16a1.32,1.32,0,0,0,.12-.71V75.65A1.9,1.9,0,0,0,19,75a.52.52,0,0,0-.17-.17.92.92,0,0,0-.46-.08V74.6h2.34v.19a1.78,1.78,0,0,0-.6.06A.55.55,0,0,0,20,75a1.56,1.56,0,0,0-.07.66Zm0,2.09a2,2,0,0,0,.52.07,1.18,1.18,0,0,0,.79-.26.82.82,0,0,0,.31-.65q0-.94-1.3-.94h-.31Z" transform="translate(0.01 -4.47)"/>
    </g>
    <g fill="#fff">
        <path d="M45.71,7.7l1.93-2.24a.82.82,0,0,0-.14-.52A.6.6,0,0,0,47,4.79V4.6h2.08v.19a1,1,0,0,0-.44.07.51.51,0,0,0-.18.16,1.7,1.7,0,0,0-.06.63V8a1.93,1.93,0,0,0,.05.62.5.5,0,0,0,.17.18.93.93,0,0,0,.46.08v.18H47V8.9a.74.74,0,0,0,.54-.15A1.2,1.2,0,0,0,47.64,8V5.92L45.71,8.16a1.12,1.12,0,0,0,.12.57.55.55,0,0,0,.46.16v.18H44.22V8.9q.43,0,.56-.16A1.32,1.32,0,0,0,44.9,8V5.65A1.9,1.9,0,0,0,44.85,5a.52.52,0,0,0-.17-.17.92.92,0,0,0-.46-.08V4.6h2.16v.19a1,1,0,0,0-.44.07.51.51,0,0,0-.18.16,1.7,1.7,0,0,0-.06.63Z" transform="translate(0.01 -4.47)"/>
        <path d="M52.16,6.91H51.06V8a2.08,2.08,0,0,0,0,.61.45.45,0,0,0,.17.18.93.93,0,0,0,.46.08v.18H49.57V8.9A1.81,1.81,0,0,0,50,8.84a.32.32,0,0,0,.17-.19A1.84,1.84,0,0,0,50.25,8V5.65a1.34,1.34,0,0,0-.12-.72.79.79,0,0,0-.56-.14V4.6h2.16v.19a1,1,0,0,0-.45.07.46.46,0,0,0-.17.18,1.92,1.92,0,0,0-.05.61V6.6h1.12a2.58,2.58,0,0,1,.72-1.53,2.06,2.06,0,0,1,3,.09,2.35,2.35,0,0,1,.6,1.6A2.87,2.87,0,0,1,56.18,8a2,2,0,0,1-.81.92,2.14,2.14,0,0,1-1.11.3,1.88,1.88,0,0,1-1.5-.68A2.52,2.52,0,0,1,52.16,6.91Zm2-2.12a1,1,0,0,0-.79.41,2.13,2.13,0,0,0-.31,1.28,3.43,3.43,0,0,0,.39,1.68,1.16,1.16,0,0,0,1,.71q1.08,0,1.08-1.73a3.34,3.34,0,0,0-.38-1.68A1.14,1.14,0,0,0,54.17,4.79Z" transform="translate(0.01 -4.47)"/>
        <path d="M57.34,4.6h4v.19a1,1,0,0,0-.44.07.51.51,0,0,0-.17.16,1.7,1.7,0,0,0-.06.63V8a1.93,1.93,0,0,0,.05.62.5.5,0,0,0,.17.18.93.93,0,0,0,.46.08v.18H59V8.9a2.29,2.29,0,0,0,.52,0,.37.37,0,0,0,.23-.19A1.56,1.56,0,0,0,59.86,8V4.92H58.37V6.81a8,8,0,0,1-.1,1.5,1,1,0,0,1-.38.64,1.06,1.06,0,0,1-.64.21q-.62,0-.62-.52a.42.42,0,0,1,.1-.29A.33.33,0,0,1,57,8.24a.45.45,0,0,1,.32.14c.13.12.22.19.29.19s.25-.12.32-.37A5.64,5.64,0,0,0,58,6.9v-1A2.23,2.23,0,0,0,57.91,5c-.07-.11-.26-.18-.56-.2Z" transform="translate(0.01 -4.47)"/>
        <path d="M63.27,6.6h.56q2,0,2,1.23a1.07,1.07,0,0,1-.49.92,2.41,2.41,0,0,1-1.4.34H61.79V8.9q.43,0,.56-.16A1.32,1.32,0,0,0,62.47,8V5.65A1.9,1.9,0,0,0,62.41,5a.52.52,0,0,0-.17-.17.92.92,0,0,0-.46-.08V4.6h2.34v.19a1.78,1.78,0,0,0-.6.06.55.55,0,0,0-.19.15,1.56,1.56,0,0,0-.07.66Zm0,2.09a2,2,0,0,0,.52.07,1.18,1.18,0,0,0,.79-.26.82.82,0,0,0,.31-.65q0-.94-1.3-.94h-.31Z" transform="translate(0.01 -4.47)"/>
    </g>
    <g fill="#fff">
        <path d="M46.85,22.43A7.46,7.46,0,0,1,46,23a1.32,1.32,0,0,1-.56.12,1,1,0,0,1-.76-.32,1.17,1.17,0,0,1-.3-.83,1.06,1.06,0,0,1,.15-.57,1.93,1.93,0,0,1,.7-.62,10.87,10.87,0,0,1,1.65-.71v-.18a1.46,1.46,0,0,0-.21-.92.77.77,0,0,0-.62-.25.7.7,0,0,0-.49.17.5.5,0,0,0-.19.38v.28a.49.49,0,0,1-.11.35.39.39,0,0,1-.3.12.38.38,0,0,1-.3-.13.5.5,0,0,1-.11-.35,1,1,0,0,1,.43-.77,1.86,1.86,0,0,1,1.21-.35,2.09,2.09,0,0,1,1,.2.92.92,0,0,1,.42.47,2.67,2.67,0,0,1,.09.86v1.52a7,7,0,0,0,0,.78.33.33,0,0,0,.08.19.19.19,0,0,0,.13,0,.27.27,0,0,0,.14,0,3,3,0,0,0,.4-.36v.27q-.55.73-1,.73A.48.48,0,0,1,47,23,.9.9,0,0,1,46.85,22.43Zm0-.32v-1.7a9.69,9.69,0,0,0-1,.42,1.65,1.65,0,0,0-.55.45.87.87,0,0,0-.17.51.84.84,0,0,0,.21.58.64.64,0,0,0,.48.23A1.77,1.77,0,0,0,46.85,22.12Z" transform="translate(0.01 -4.47)"/>
        <path d="M51.59,20.71q1.23.25,1.23,1.15a1,1,0,0,1-.51.91,2.8,2.8,0,0,1-1.42.3H48.67V22.9q.43,0,.55-.16a1.4,1.4,0,0,0,.11-.71V19.65a2,2,0,0,0-.05-.62.5.5,0,0,0-.16-.17.89.89,0,0,0-.45-.08V18.6h2.06a4.09,4.09,0,0,1,1,.09,1.15,1.15,0,0,1,.61.37,1,1,0,0,1,.24.66Q52.54,20.49,51.59,20.71Zm-1.44-.11h.26a1.48,1.48,0,0,0,1-.26.79.79,0,0,0,.3-.62.67.67,0,0,0-.3-.62,1.88,1.88,0,0,0-1-.19h-.25Zm0,2.08a1.93,1.93,0,0,0,.58.08,1.27,1.27,0,0,0,.86-.25.84.84,0,0,0,.28-.65.77.77,0,0,0-.37-.69,1.85,1.85,0,0,0-1-.24h-.35Z" transform="translate(0.01 -4.47)"/>
        <path d="M57,18.6l.18,1.22H57a1.65,1.65,0,0,0-.37-.75,1.4,1.4,0,0,0-.79-.15h-.95V22a1.93,1.93,0,0,0,.05.62.5.5,0,0,0,.17.18.93.93,0,0,0,.46.08v.18H53.31V22.9a.94.94,0,0,0,.62-.15,1.17,1.17,0,0,0,.14-.72V19.65A2.09,2.09,0,0,0,54,19a.34.34,0,0,0-.19-.19,1.51,1.51,0,0,0-.51-.06V18.6Z" transform="translate(0.01 -4.47)"/>
        <path d="M57.32,18.6h2.08v.18h-.1a.5.5,0,0,0-.33.09.3.3,0,0,0-.11.24,1.34,1.34,0,0,0,.16.53l1.09,2.26,1-2.47a1,1,0,0,0,.08-.4.21.21,0,0,0,0-.13.25.25,0,0,0-.12-.08.91.91,0,0,0-.29,0V18.6H62.2v.18a.69.69,0,0,0-.28.08.81.81,0,0,0-.21.22,3.1,3.1,0,0,0-.17.38l-1.82,4.46a2.31,2.31,0,0,1-.69,1,1.35,1.35,0,0,1-.82.33.69.69,0,0,1-.47-.17.5.5,0,0,1-.19-.38.43.43,0,0,1,.13-.33.53.53,0,0,1,.37-.12,1.32,1.32,0,0,1,.44.11l.24.07a.51.51,0,0,0,.32-.15,1.59,1.59,0,0,0,.35-.59l.32-.78-1.61-3.37a2.7,2.7,0,0,0-.23-.38.71.71,0,0,0-.56-.37Z" transform="translate(0.01 -4.47)"/>
        <path d="M66.37,21.38a2.42,2.42,0,0,1-.71,1.36,1.7,1.7,0,0,1-1.17.48,1.72,1.72,0,0,1-1.33-.64,2.52,2.52,0,0,1-.57-1.73,2.38,2.38,0,0,1,.63-1.71,2,2,0,0,1,1.51-.66,1.65,1.65,0,0,1,1.08.35,1,1,0,0,1,.42.73.4.4,0,0,1-.12.3.46.46,0,0,1-.33.12.52.52,0,0,1-.43-.19.77.77,0,0,1-.11-.39.64.64,0,0,0-.2-.44.7.7,0,0,0-.47-.15,1,1,0,0,0-.79.36,1.92,1.92,0,0,0-.4,1.26,2.56,2.56,0,0,0,.39,1.41,1.21,1.21,0,0,0,1.06.61,1.29,1.29,0,0,0,.86-.33,2.21,2.21,0,0,0,.52-.82Z" transform="translate(0.01 -4.47)"/>
        <path d="M66.94,18.6h3.87l.2,1.21h-.22a1.4,1.4,0,0,0-.2-.57.65.65,0,0,0-.31-.26,2,2,0,0,0-.6-.06h-.39V22a2,2,0,0,0,.06.63.31.31,0,0,0,.2.18,2.94,2.94,0,0,0,.63.06v.18H67.74V22.9a.9.9,0,0,0,.6-.15,1.2,1.2,0,0,0,.13-.72V18.92h-.4a2,2,0,0,0-.57.05.62.62,0,0,0-.29.24,1.74,1.74,0,0,0-.24.6h-.22Z" transform="translate(0.01 -4.47)"/>
    </g>
    <g fill="#fff">
        <path d="M48.11,35.38a2.42,2.42,0,0,1-.71,1.36,1.7,1.7,0,0,1-1.17.48,1.72,1.72,0,0,1-1.33-.64,2.52,2.52,0,0,1-.57-1.73A2.38,2.38,0,0,1,45,33.13a2,2,0,0,1,1.51-.66,1.65,1.65,0,0,1,1.08.35,1,1,0,0,1,.42.73.4.4,0,0,1-.12.3.46.46,0,0,1-.33.12.52.52,0,0,1-.43-.19.77.77,0,0,1-.11-.39.64.64,0,0,0-.2-.44.7.7,0,0,0-.47-.15,1,1,0,0,0-.79.36,1.92,1.92,0,0,0-.4,1.26,2.56,2.56,0,0,0,.39,1.41,1.21,1.21,0,0,0,1.06.61,1.29,1.29,0,0,0,.86-.33,2.21,2.21,0,0,0,.52-.82Z" transform="translate(0.01 -4.47)"/>
        <path d="M49.62,34.29a2.3,2.3,0,0,0,.48,1.56,1.47,1.47,0,0,0,1.15.57,1.25,1.25,0,0,0,.76-.24,1.79,1.79,0,0,0,.54-.83l.15.1a2.33,2.33,0,0,1-.6,1.22,1.59,1.59,0,0,1-1.24.55,1.8,1.8,0,0,1-1.38-.63,2.41,2.41,0,0,1-.57-1.69,2.55,2.55,0,0,1,.59-1.79A1.92,1.92,0,0,1,51,32.47a1.65,1.65,0,0,1,1.24.5,1.81,1.81,0,0,1,.48,1.33Zm0-.28H51.7a1.91,1.91,0,0,0-.1-.61,1,1,0,0,0-.36-.43.91.91,0,0,0-.51-.16,1,1,0,0,0-.73.32A1.36,1.36,0,0,0,49.62,34Z" transform="translate(0.01 -4.47)"/>
        <path d="M54.71,34.6h1.93v-.95a2.73,2.73,0,0,0,0-.55.39.39,0,0,0-.17-.22.91.91,0,0,0-.48-.09V32.6h2.16v.19a1.06,1.06,0,0,0-.44.07.36.36,0,0,0-.19.2,2.19,2.19,0,0,0,0,.6V36a2.69,2.69,0,0,0,0,.56.37.37,0,0,0,.18.22.94.94,0,0,0,.46.08v.18H56V36.9a.74.74,0,0,0,.54-.15,1.2,1.2,0,0,0,.14-.72V34.92H54.71V36a2.69,2.69,0,0,0,0,.56.37.37,0,0,0,.18.22.94.94,0,0,0,.46.08v.18H53.22V36.9q.43,0,.56-.16A1.32,1.32,0,0,0,53.9,36V33.65a2.69,2.69,0,0,0,0-.56.36.36,0,0,0-.18-.22,1,1,0,0,0-.46-.08V32.6h2.16v.19a1.06,1.06,0,0,0-.44.07.36.36,0,0,0-.19.2,2.19,2.19,0,0,0,0,.6Z" transform="translate(0.01 -4.47)"/>
        <path d="M58.59,32.6h3.87l.2,1.21h-.22a1.4,1.4,0,0,0-.2-.57.65.65,0,0,0-.31-.26,2,2,0,0,0-.6-.06h-.39V36a2,2,0,0,0,.06.63.31.31,0,0,0,.2.18,2.94,2.94,0,0,0,.63.06v.18H59.39V36.9a.9.9,0,0,0,.6-.15,1.2,1.2,0,0,0,.13-.72V32.92h-.4a2,2,0,0,0-.57.05.62.62,0,0,0-.29.24,1.74,1.74,0,0,0-.24.6h-.22Z" transform="translate(0.01 -4.47)"/>
        <path d="M67,32.6v.19a.92.92,0,0,0-.45.08.39.39,0,0,0-.19.21,2.24,2.24,0,0,0,0,.57V36a2.5,2.5,0,0,0,0,.56.39.39,0,0,0,.19.22.91.91,0,0,0,.45.09v.18H64.8V36.9a.74.74,0,0,0,.54-.15,1.2,1.2,0,0,0,.14-.72v-1h-.36l-1.43,2H62.58V36.9a.64.64,0,0,0,.34-.07,2.27,2.27,0,0,0,.35-.43l1-1.47q-1.12-.39-1.12-1.2a1,1,0,0,1,.4-.79A2.18,2.18,0,0,1,65,32.6ZM65.48,33a1.32,1.32,0,0,0-.36-.05,1,1,0,0,0-.74.24.79.79,0,0,0-.24.58.88.88,0,0,0,.35.71,1.34,1.34,0,0,0,.87.28h.12Z" transform="translate(0.01 -4.47)"/>
        <path d="M67.92,33.88a2,2,0,0,1,1.89-1.41,1.91,1.91,0,0,1,1.53.7,2.4,2.4,0,0,1,.59,1.6,2.65,2.65,0,0,1-.6,1.69,2,2,0,0,1-1.63.76,1.77,1.77,0,0,1-1.59-.87,3.87,3.87,0,0,1-.55-2.11,5.6,5.6,0,0,1,.28-1.8,4.57,4.57,0,0,1,.6-1.25,1.92,1.92,0,0,1,.72-.61,3.92,3.92,0,0,1,1.45-.2,7,7,0,0,0,.9,0,.56.56,0,0,0,.3-.2H72a1.59,1.59,0,0,1-.39.68,1.2,1.2,0,0,1-.49.28,4.64,4.64,0,0,1-.94.09,4.13,4.13,0,0,0-1,.11,1.37,1.37,0,0,0-.58.44,2.44,2.44,0,0,0-.47.92A5.11,5.11,0,0,0,67.92,33.88Zm1.73-1.08a1,1,0,0,0-.8.41,2.09,2.09,0,0,0-.31,1.27A3.13,3.13,0,0,0,69,36.27a1.19,1.19,0,0,0,1,.61.92.92,0,0,0,.8-.42A2.44,2.44,0,0,0,71,35.1a3.22,3.22,0,0,0-.38-1.64A1.12,1.12,0,0,0,69.65,32.8Z" transform="translate(0.01 -4.47)"/>
        <path d="M72.27,33l1.38-.56h.19v1a2.53,2.53,0,0,1,.7-.83,1.29,1.29,0,0,1,.73-.24,1.41,1.41,0,0,1,1.12.53,2.49,2.49,0,0,1,.55,1.68,2.8,2.8,0,0,1-.66,1.91,1.76,1.76,0,0,1-1.38.62,1.72,1.72,0,0,1-.62-.1,1.46,1.46,0,0,1-.44-.29v1.36a1.82,1.82,0,0,0,.06.58.42.42,0,0,0,.2.2,1.2,1.2,0,0,0,.51.07v.18H72.24V39h.12a.89.89,0,0,0,.46-.1.35.35,0,0,0,.14-.17,2.07,2.07,0,0,0,.05-.61V33.92a2.31,2.31,0,0,0,0-.55.33.33,0,0,0-.12-.18.4.4,0,0,0-.23-.06.88.88,0,0,0-.3.07Zm1.56.78V35.5a3.58,3.58,0,0,0,0,.71.92.92,0,0,0,.33.5,1,1,0,0,0,.67.21,1,1,0,0,0,.79-.38,2.2,2.2,0,0,0,.4-1.4,2.44,2.44,0,0,0-.45-1.58.93.93,0,0,0-.74-.38,1,1,0,0,0-.46.12A2.72,2.72,0,0,0,73.83,33.83Z" transform="translate(0.01 -4.47)"/>
        <path d="M79,34.6h.56q2,0,2,1.23a1.07,1.07,0,0,1-.49.92,2.41,2.41,0,0,1-1.4.34H77.5V36.9q.43,0,.56-.16a1.32,1.32,0,0,0,.12-.71V33.65a1.9,1.9,0,0,0-.05-.62.52.52,0,0,0-.17-.17.92.92,0,0,0-.46-.08V32.6h2.34v.19a1.78,1.78,0,0,0-.6.06.55.55,0,0,0-.19.15,1.56,1.56,0,0,0-.07.66Zm0,2.09a2,2,0,0,0,.52.07,1.18,1.18,0,0,0,.79-.26.82.82,0,0,0,.31-.65q0-.94-1.3-.94H79Z" transform="translate(0.01 -4.47)"/>
    </g>
    <g fill="#fff">
        <path d="M46.5,46.47a2,2,0,0,1,1.63.77,2.37,2.37,0,0,1,.52,1.51A2.85,2.85,0,0,1,48.37,50a2,2,0,0,1-1.92,1.24,1.9,1.9,0,0,1-1.61-.81,2.49,2.49,0,0,1-.5-1.52,2.71,2.71,0,0,1,.31-1.22,2.09,2.09,0,0,1,.8-.9A2.06,2.06,0,0,1,46.5,46.47Zm-.15.32a1,1,0,0,0-.52.15,1.07,1.07,0,0,0-.42.54,2.6,2.6,0,0,0-.16,1,3.45,3.45,0,0,0,.39,1.68,1.16,1.16,0,0,0,1,.71,1,1,0,0,0,.78-.39,2.22,2.22,0,0,0,.31-1.34,3.06,3.06,0,0,0-.51-1.87A1.06,1.06,0,0,0,46.35,46.79Z" transform="translate(0.01 -4.47)"/>
        <path d="M53.8,51.08H52.48a18.69,18.69,0,0,1-1.11-1.83,1.67,1.67,0,0,0-.21-.32.33.33,0,0,0-.26-.11h-.19V50a2,2,0,0,0,.06.62.35.35,0,0,0,.2.19,1.46,1.46,0,0,0,.49.06v.18H49.22V50.9q.43,0,.56-.16A1.32,1.32,0,0,0,49.9,50V47.65a1.9,1.9,0,0,0-.05-.62.52.52,0,0,0-.17-.17.92.92,0,0,0-.46-.08V46.6h2.24v.19a1.24,1.24,0,0,0-.5.06.8.8,0,0,0-.17.14,1.45,1.45,0,0,0-.08.66v.88h.15a1,1,0,0,0,.56-.17,1.42,1.42,0,0,0,.47-.71,3.57,3.57,0,0,1,.31-.7.94.94,0,0,1,.35-.3,1,1,0,0,1,.47-.11.64.64,0,0,1,.42.13.41.41,0,0,1-.27.74.82.82,0,0,1-.27-.06,1,1,0,0,0-.31-.07q-.22,0-.37.39a4.26,4.26,0,0,1-.24.57,2,2,0,0,1-.3.34.81.81,0,0,1,.33.22,6.54,6.54,0,0,1,.66,1,4.29,4.29,0,0,0,.58.86.83.83,0,0,0,.56.19Z" transform="translate(0.01 -4.47)"/>
        <path d="M54,46.6h3.87l.2,1.21h-.22a1.4,1.4,0,0,0-.2-.57.65.65,0,0,0-.31-.26,2,2,0,0,0-.6-.06h-.39V50a2,2,0,0,0,.06.63.31.31,0,0,0,.2.18,2.94,2.94,0,0,0,.63.06v.18H54.77V50.9a.9.9,0,0,0,.6-.15A1.2,1.2,0,0,0,55.5,50V46.92h-.4a2,2,0,0,0-.57.05.62.62,0,0,0-.29.24,1.74,1.74,0,0,0-.24.6h-.22Z" transform="translate(0.01 -4.47)"/>
        <path d="M62.34,46.6v.19a.92.92,0,0,0-.45.08.39.39,0,0,0-.19.21,2.24,2.24,0,0,0,0,.57V50a2.5,2.5,0,0,0,0,.56.39.39,0,0,0,.19.22.91.91,0,0,0,.45.09v.18H60.18V50.9a.74.74,0,0,0,.54-.15,1.2,1.2,0,0,0,.14-.72v-1H60.5l-1.43,2H58V50.9a.64.64,0,0,0,.34-.07,2.27,2.27,0,0,0,.35-.43l1-1.47q-1.12-.39-1.12-1.2a1,1,0,0,1,.4-.79,2.18,2.18,0,0,1,1.37-.33ZM60.86,47a1.32,1.32,0,0,0-.36-.05,1,1,0,0,0-.74.24.79.79,0,0,0-.24.58.88.88,0,0,0,.35.71,1.34,1.34,0,0,0,.87.28h.12Z" transform="translate(0.01 -4.47)"/>
        <path d="M63.3,47.88a2,2,0,0,1,1.89-1.41,1.91,1.91,0,0,1,1.53.7,2.4,2.4,0,0,1,.59,1.6,2.65,2.65,0,0,1-.6,1.69,2,2,0,0,1-1.63.76,1.77,1.77,0,0,1-1.59-.87,3.87,3.87,0,0,1-.55-2.11,5.6,5.6,0,0,1,.28-1.8,4.57,4.57,0,0,1,.6-1.25,1.92,1.92,0,0,1,.72-.61,3.92,3.92,0,0,1,1.45-.2,7,7,0,0,0,.9,0,.56.56,0,0,0,.3-.2h.19a1.59,1.59,0,0,1-.39.68,1.2,1.2,0,0,1-.49.28,4.64,4.64,0,0,1-.94.09,4.13,4.13,0,0,0-1,.11,1.37,1.37,0,0,0-.58.44,2.44,2.44,0,0,0-.47.92A5.11,5.11,0,0,0,63.3,47.88ZM65,46.8a1,1,0,0,0-.8.41,2.09,2.09,0,0,0-.31,1.27,3.13,3.13,0,0,0,.42,1.78,1.19,1.19,0,0,0,1,.61.92.92,0,0,0,.8-.42,2.44,2.44,0,0,0,.29-1.35A3.22,3.22,0,0,0,66,47.46,1.12,1.12,0,0,0,65,46.8Z" transform="translate(0.01 -4.47)"/>
        <path d="M67.64,47,69,46.49h.19v1a2.53,2.53,0,0,1,.7-.83,1.29,1.29,0,0,1,.73-.24,1.41,1.41,0,0,1,1.12.53,2.49,2.49,0,0,1,.55,1.68,2.8,2.8,0,0,1-.66,1.91,1.76,1.76,0,0,1-1.38.62,1.72,1.72,0,0,1-.62-.1,1.46,1.46,0,0,1-.44-.29v1.36a1.82,1.82,0,0,0,.06.58.42.42,0,0,0,.2.2A1.2,1.2,0,0,0,70,53v.18H67.62V53h.12a.89.89,0,0,0,.46-.1.35.35,0,0,0,.14-.17,2.07,2.07,0,0,0,.05-.61V47.92a2.31,2.31,0,0,0,0-.55.33.33,0,0,0-.12-.18.4.4,0,0,0-.23-.06.88.88,0,0,0-.3.07Zm1.56.78V49.5a3.58,3.58,0,0,0,0,.71.92.92,0,0,0,.33.5,1,1,0,0,0,.67.21,1,1,0,0,0,.79-.38,2.2,2.2,0,0,0,.4-1.4A2.44,2.44,0,0,0,71,47.56a.93.93,0,0,0-.74-.38,1,1,0,0,0-.46.12A2.72,2.72,0,0,0,69.2,47.83Z" transform="translate(0.01 -4.47)"/>
        <path d="M74.36,48.6h.56q2,0,2,1.23a1.07,1.07,0,0,1-.49.92,2.41,2.41,0,0,1-1.4.34H72.88V50.9q.43,0,.56-.16a1.32,1.32,0,0,0,.12-.71V47.65A1.9,1.9,0,0,0,73.5,47a.52.52,0,0,0-.17-.17.92.92,0,0,0-.46-.08V46.6h2.34v.19a1.78,1.78,0,0,0-.6.06.55.55,0,0,0-.19.15,1.56,1.56,0,0,0-.07.66Zm0,2.09a2,2,0,0,0,.52.07,1.18,1.18,0,0,0,.79-.26.82.82,0,0,0,.31-.65q0-.94-1.3-.94h-.31Z" transform="translate(0.01 -4.47)"/>
    </g>
    <g fill="#fff" class="SumColumnsSvgSelected">
        <path d="M45.71,62.6h1.93v-.95a2.73,2.73,0,0,0,0-.55.39.39,0,0,0-.17-.22.91.91,0,0,0-.48-.09V60.6h2.16v.19a1.06,1.06,0,0,0-.44.07.36.36,0,0,0-.19.2,2.19,2.19,0,0,0,0,.6V64a2.69,2.69,0,0,0,0,.56.37.37,0,0,0,.18.22.94.94,0,0,0,.46.08v.18H47V64.9a.74.74,0,0,0,.54-.15,1.2,1.2,0,0,0,.14-.72V62.92H45.71V64a2.69,2.69,0,0,0,0,.56.37.37,0,0,0,.18.22.94.94,0,0,0,.46.08v.18H44.22V64.9q.43,0,.56-.16A1.32,1.32,0,0,0,44.9,64V61.65a2.69,2.69,0,0,0,0-.56.36.36,0,0,0-.18-.22,1,1,0,0,0-.46-.08V60.6h2.16v.19a1.06,1.06,0,0,0-.44.07.36.36,0,0,0-.19.2,2.19,2.19,0,0,0,0,.6Z" transform="translate(0.01 -4.47)"/>
        <path d="M51.85,60.47a2,2,0,0,1,1.63.77A2.37,2.37,0,0,1,54,62.76,2.85,2.85,0,0,1,53.72,64a2,2,0,0,1-1.92,1.24,1.9,1.9,0,0,1-1.61-.81,2.49,2.49,0,0,1-.5-1.52A2.71,2.71,0,0,1,50,61.66a2.09,2.09,0,0,1,.8-.9A2.06,2.06,0,0,1,51.85,60.47Zm-.15.32a1,1,0,0,0-.52.15,1.07,1.07,0,0,0-.42.54,2.6,2.6,0,0,0-.16,1A3.45,3.45,0,0,0,51,64.16a1.16,1.16,0,0,0,1,.71,1,1,0,0,0,.78-.39,2.22,2.22,0,0,0,.31-1.34,3.06,3.06,0,0,0-.51-1.87A1.06,1.06,0,0,0,51.7,60.79Z" transform="translate(0.01 -4.47)"/>
        <path d="M58.54,60.6v.19a.92.92,0,0,0-.45.08.39.39,0,0,0-.19.21,2.24,2.24,0,0,0,0,.57V64a2.5,2.5,0,0,0,0,.56.39.39,0,0,0,.19.22.91.91,0,0,0,.45.09v.18H56.37V64.9a.74.74,0,0,0,.54-.15,1.2,1.2,0,0,0,.14-.72v-1H56.7l-1.43,2H54.16V64.9a.64.64,0,0,0,.34-.07,2.27,2.27,0,0,0,.35-.43l1-1.47q-1.12-.39-1.12-1.2a1,1,0,0,1,.4-.79,2.18,2.18,0,0,1,1.37-.33ZM57.05,61a1.32,1.32,0,0,0-.36-.05,1,1,0,0,0-.74.24.79.79,0,0,0-.24.58.88.88,0,0,0,.35.71,1.34,1.34,0,0,0,.87.28h.12Z" transform="translate(0.01 -4.47)"/>
        <path d="M59.49,61.88a2,2,0,0,1,1.89-1.41,1.91,1.91,0,0,1,1.53.7,2.4,2.4,0,0,1,.59,1.6,2.65,2.65,0,0,1-.6,1.69,2,2,0,0,1-1.63.76,1.77,1.77,0,0,1-1.59-.87,3.87,3.87,0,0,1-.55-2.11,5.6,5.6,0,0,1,.28-1.8,4.57,4.57,0,0,1,.6-1.25,1.92,1.92,0,0,1,.72-.61,3.92,3.92,0,0,1,1.45-.2,7,7,0,0,0,.9,0,.56.56,0,0,0,.3-.2h.19a1.59,1.59,0,0,1-.39.68,1.2,1.2,0,0,1-.49.28,4.64,4.64,0,0,1-.94.09,4.13,4.13,0,0,0-1,.11,1.37,1.37,0,0,0-.58.44,2.44,2.44,0,0,0-.47.92A5.11,5.11,0,0,0,59.49,61.88Zm1.73-1.08a1,1,0,0,0-.8.41,2.09,2.09,0,0,0-.31,1.27,3.13,3.13,0,0,0,.42,1.78,1.19,1.19,0,0,0,1,.61.92.92,0,0,0,.8-.42,2.44,2.44,0,0,0,.29-1.35,3.22,3.22,0,0,0-.38-1.64A1.12,1.12,0,0,0,61.22,60.8Z" transform="translate(0.01 -4.47)"/>
        <path d="M63.84,61l1.38-.56h.19v1a2.53,2.53,0,0,1,.7-.83,1.29,1.29,0,0,1,.73-.24A1.41,1.41,0,0,1,68,61a2.49,2.49,0,0,1,.55,1.68,2.8,2.8,0,0,1-.66,1.91,1.76,1.76,0,0,1-1.38.62,1.72,1.72,0,0,1-.62-.1,1.46,1.46,0,0,1-.44-.29v1.36a1.82,1.82,0,0,0,.06.58.42.42,0,0,0,.2.2,1.2,1.2,0,0,0,.51.07v.18H63.81V67h.12a.89.89,0,0,0,.46-.1.35.35,0,0,0,.14-.17,2.07,2.07,0,0,0,.05-.61V61.92a2.31,2.31,0,0,0,0-.55.33.33,0,0,0-.12-.18.4.4,0,0,0-.23-.06.88.88,0,0,0-.3.07Zm1.56.78V63.5a3.58,3.58,0,0,0,0,.71.92.92,0,0,0,.33.5,1,1,0,0,0,.67.21,1,1,0,0,0,.79-.38,2.2,2.2,0,0,0,.4-1.4,2.44,2.44,0,0,0-.45-1.58.93.93,0,0,0-.74-.38,1,1,0,0,0-.46.12A2.72,2.72,0,0,0,65.4,61.83Z" transform="translate(0.01 -4.47)"/>
        <path d="M70.56,62.6h.56q2,0,2,1.23a1.07,1.07,0,0,1-.49.92,2.41,2.41,0,0,1-1.4.34H69.07V64.9q.43,0,.56-.16a1.32,1.32,0,0,0,.12-.71V61.65A1.9,1.9,0,0,0,69.7,61a.52.52,0,0,0-.17-.17.92.92,0,0,0-.46-.08V60.6h2.34v.19a1.78,1.78,0,0,0-.6.06.55.55,0,0,0-.19.15,1.56,1.56,0,0,0-.07.66Zm0,2.09a2,2,0,0,0,.52.07,1.18,1.18,0,0,0,.79-.26.82.82,0,0,0,.31-.65q0-.94-1.3-.94h-.31Z" transform="translate(0.01 -4.47)"/>
    </g>
    <g fill="#fff">
        <path d="M44.92,74.6h3.95v.19a1,1,0,0,0-.44.07.51.51,0,0,0-.17.16,1.7,1.7,0,0,0-.06.63v2.21a1.8,1.8,0,0,0,.12.86q.12.16.56.17v1.42h-.19a1.48,1.48,0,0,0-.2-.7,1,1,0,0,0-.5-.42,2.76,2.76,0,0,0-.94-.12H45.9a2.88,2.88,0,0,0-.84.1.94.94,0,0,0-.51.4,1.61,1.61,0,0,0-.25.75h-.18V78.9a1.11,1.11,0,0,0,.73-.32,2.64,2.64,0,0,0,.58-1.19,6.39,6.39,0,0,0,.25-1.74q0-.84-.76-.86Zm1.08.32v.27a6,6,0,0,1-.87,3.57h1.66q.45,0,.52-.08a1.21,1.21,0,0,0,.07-.56v-3.2Z" transform="translate(0.01 -4.47)"/>
        <path d="M50.15,76.29a2.3,2.3,0,0,0,.48,1.56,1.47,1.47,0,0,0,1.15.57,1.25,1.25,0,0,0,.76-.24,1.79,1.79,0,0,0,.54-.83l.15.1a2.33,2.33,0,0,1-.6,1.22,1.59,1.59,0,0,1-1.24.55A1.8,1.8,0,0,1,50,78.59a2.41,2.41,0,0,1-.57-1.69A2.55,2.55,0,0,1,50,75.11a1.92,1.92,0,0,1,1.48-.64,1.65,1.65,0,0,1,1.24.5,1.81,1.81,0,0,1,.48,1.33Zm0-.28h2.07a1.91,1.91,0,0,0-.1-.61,1,1,0,0,0-.36-.43.91.91,0,0,0-.51-.16,1,1,0,0,0-.73.32A1.36,1.36,0,0,0,50.15,76Z" transform="translate(0.01 -4.47)"/>
        <path d="M58.33,79.08H57a18.69,18.69,0,0,1-1.11-1.83,1.67,1.67,0,0,0-.21-.32.33.33,0,0,0-.26-.11h-.19V78a2,2,0,0,0,.06.62.35.35,0,0,0,.2.19,1.46,1.46,0,0,0,.49.06v.18H53.75V78.9q.43,0,.56-.16a1.32,1.32,0,0,0,.12-.71V75.65a1.9,1.9,0,0,0-.05-.62.52.52,0,0,0-.17-.17.92.92,0,0,0-.46-.08V74.6H56v.19a1.24,1.24,0,0,0-.5.06.8.8,0,0,0-.17.14,1.45,1.45,0,0,0-.08.66v.88h.15a1,1,0,0,0,.56-.17,1.42,1.42,0,0,0,.47-.71,3.57,3.57,0,0,1,.31-.7.94.94,0,0,1,.35-.3,1,1,0,0,1,.47-.11.64.64,0,0,1,.42.13.41.41,0,0,1-.27.74.82.82,0,0,1-.27-.06,1,1,0,0,0-.31-.07q-.22,0-.37.39a4.26,4.26,0,0,1-.24.57,2,2,0,0,1-.3.34.81.81,0,0,1,.33.22,6.54,6.54,0,0,1,.66,1,4.29,4.29,0,0,0,.58.86.83.83,0,0,0,.56.19Z" transform="translate(0.01 -4.47)"/>
        <path d="M61.08,78.43a7.46,7.46,0,0,1-.86.62,1.32,1.32,0,0,1-.56.12,1,1,0,0,1-.76-.32,1.17,1.17,0,0,1-.3-.83,1.06,1.06,0,0,1,.15-.57,1.93,1.93,0,0,1,.7-.62,10.87,10.87,0,0,1,1.65-.71v-.18a1.46,1.46,0,0,0-.21-.92.77.77,0,0,0-.62-.25.7.7,0,0,0-.49.17.5.5,0,0,0-.19.38v.28a.49.49,0,0,1-.11.35.39.39,0,0,1-.3.12.38.38,0,0,1-.3-.13.5.5,0,0,1-.11-.35,1,1,0,0,1,.43-.77,1.86,1.86,0,0,1,1.21-.35,2.09,2.09,0,0,1,1,.2.92.92,0,0,1,.42.47,2.67,2.67,0,0,1,.09.86v1.52a7,7,0,0,0,0,.78.33.33,0,0,0,.08.19.19.19,0,0,0,.13,0,.27.27,0,0,0,.14,0,3,3,0,0,0,.4-.36v.27q-.55.73-1,.73a.48.48,0,0,1-.38-.17A.9.9,0,0,1,61.08,78.43Zm0-.32v-1.7a9.69,9.69,0,0,0-1,.42,1.65,1.65,0,0,0-.55.45.87.87,0,0,0-.17.51.84.84,0,0,0,.21.58.64.64,0,0,0,.48.23A1.77,1.77,0,0,0,61.08,78.12Z" transform="translate(0.01 -4.47)"/>
        <path d="M63.4,75.88a2,2,0,0,1,1.89-1.41,1.91,1.91,0,0,1,1.53.7,2.4,2.4,0,0,1,.59,1.6,2.65,2.65,0,0,1-.6,1.69,2,2,0,0,1-1.63.76,1.77,1.77,0,0,1-1.59-.87,3.87,3.87,0,0,1-.55-2.11,5.6,5.6,0,0,1,.28-1.8,4.57,4.57,0,0,1,.6-1.25,1.92,1.92,0,0,1,.72-.61,3.92,3.92,0,0,1,1.45-.2,7,7,0,0,0,.9,0,.56.56,0,0,0,.3-.2h.19a1.59,1.59,0,0,1-.39.68,1.2,1.2,0,0,1-.49.28,4.64,4.64,0,0,1-.94.09,4.13,4.13,0,0,0-1,.11,1.37,1.37,0,0,0-.58.44,2.44,2.44,0,0,0-.47.92A5.11,5.11,0,0,0,63.4,75.88Zm1.73-1.08a1,1,0,0,0-.8.41A2.09,2.09,0,0,0,64,76.48a3.13,3.13,0,0,0,.42,1.78,1.19,1.19,0,0,0,1,.61.92.92,0,0,0,.8-.42,2.44,2.44,0,0,0,.29-1.35,3.22,3.22,0,0,0-.38-1.64A1.12,1.12,0,0,0,65.13,74.8Z" transform="translate(0.01 -4.47)"/>
        <path d="M67.75,75l1.38-.56h.19v1a2.53,2.53,0,0,1,.7-.83,1.29,1.29,0,0,1,.73-.24,1.41,1.41,0,0,1,1.12.53,2.49,2.49,0,0,1,.55,1.68,2.8,2.8,0,0,1-.66,1.91,1.76,1.76,0,0,1-1.38.62,1.72,1.72,0,0,1-.62-.1,1.46,1.46,0,0,1-.44-.29v1.36a1.82,1.82,0,0,0,.06.58.42.42,0,0,0,.2.2,1.2,1.2,0,0,0,.51.07v.18H67.73V81h.12a.89.89,0,0,0,.46-.1.35.35,0,0,0,.14-.17,2.07,2.07,0,0,0,.05-.61V75.92a2.31,2.31,0,0,0,0-.55.33.33,0,0,0-.12-.18.4.4,0,0,0-.23-.06.88.88,0,0,0-.3.07Zm1.56.78V77.5a3.58,3.58,0,0,0,0,.71.92.92,0,0,0,.33.5,1,1,0,0,0,.67.21,1,1,0,0,0,.79-.38,2.2,2.2,0,0,0,.4-1.4,2.44,2.44,0,0,0-.45-1.58.93.93,0,0,0-.74-.38,1,1,0,0,0-.46.12A2.72,2.72,0,0,0,69.31,75.83Z" transform="translate(0.01 -4.47)"/>
        <path d="M74.47,76.6H75q2,0,2,1.23a1.07,1.07,0,0,1-.49.92,2.41,2.41,0,0,1-1.4.34H73V78.9q.43,0,.56-.16a1.32,1.32,0,0,0,.12-.71V75.65a1.9,1.9,0,0,0-.05-.62.52.52,0,0,0-.17-.17.92.92,0,0,0-.46-.08V74.6h2.34v.19a1.78,1.78,0,0,0-.6.06.55.55,0,0,0-.19.15,1.56,1.56,0,0,0-.07.66Zm0,2.09a2,2,0,0,0,.52.07,1.18,1.18,0,0,0,.79-.26.82.82,0,0,0,.31-.65q0-.94-1.3-.94h-.31Z" transform="translate(0.01 -4.47)"/>
    </g>
</svg>
