<svg xmlns="http://www.w3.org/2000/svg" x="0px" y="0px" viewBox="-940.9 500.8 47.9 82.2">
    <style>
        .AroundSvg0{fill:#EB2226;}
    </style>
    <path class="AroundSvg0" d="M-930.5,500.8h1.9c-1,2-1.7,3.4-2.2,4.2c-0.5,0.8-1.4,2-2.7,3.6h40.4v2.6h-40.4c1.8,1.8,3.4,4.4,5,7.8h-2 c-2.2-2.4-4.1-4.3-5.6-5.5c-1.6-1.3-3.2-2.3-4.9-3.1v-1.1c1.5-0.6,3-1.6,4.7-2.9C-934.6,505.1-932.7,503.2-930.5,500.8z"/>
    <path class="AroundSvg0" d="M-893.1,543.5h-47.9V541h47.9V543.5z"/>
    <path class="AroundSvg0" d="M-903.5,564.8c2.2,2.4,4.2,4.3,5.8,5.6c1.6,1.3,3.2,2.2,4.6,2.9v1.1c-1.7,0.8-3.3,1.8-4.9,3.1 c-1.6,1.3-3.4,3.1-5.6,5.5h-2c1.6-3.4,3.3-6,5-7.8h-40.4v-2.6h40.4c-1.3-1.6-2.2-2.9-2.7-3.7c-0.5-0.8-1.3-2.2-2.3-4.2H-903.5z"/>
</svg>
