<svg xmlns="http://www.w3.org/2000/svg" x="0px" y="0px" viewBox="-958.3 500.8 82.7 82.2">
    <style>
        .SquareSvg0{fill:#FFFFFF;}
    </style>
    <g>
        <rect x="-892.7" y="510.1" class="SquareSvg0" width="7.4" height="7.4"/>
        <rect x="-892.7" y="519.5" class="SquareSvg0" width="7.4" height="7.4"/>
        <rect x="-892.7" y="528.8" class="SquareSvg0" width="7.4" height="7.4"/>
        <rect x="-892.7" y="538.2" class="SquareSvg0" width="7.4" height="7.4"/>
        <rect x="-892.7" y="547.5" class="SquareSvg0" width="7.4" height="7.4"/>
        <rect x="-892.7" y="556.9" class="SquareSvg0" width="7.4" height="7.4"/>
        <rect x="-892.7" y="566.2" class="SquareSvg0" width="7.4" height="7.4"/>
        <rect x="-902" y="510.1" class="SquareSvg0" width="7.4" height="7.4"/>
        <rect x="-902" y="519.5" class="SquareSvg0" width="7.4" height="7.4"/>
        <rect x="-902" y="528.8" class="SquareSvg0" width="7.4" height="7.4"/>
        <rect x="-902" y="538.2" class="SquareSvg0" width="7.4" height="7.4"/>
        <rect x="-902" y="547.5" class="SquareSvg0" width="7.4" height="7.4"/>
        <rect x="-902" y="556.9" class="SquareSvg0" width="7.4" height="7.4"/>
        <rect x="-902" y="566.2" class="SquareSvg0" width="7.4" height="7.4"/>
        <rect x="-911.4" y="510.1" class="SquareSvg0" width="7.4" height="7.4"/>
        <rect x="-911.4" y="519.5" class="SquareSvg0" width="7.4" height="7.4"/>
        <rect x="-911.4" y="528.8" class="SquareSvg0" width="7.4" height="7.4"/>
        <rect x="-911.4" y="538.2" class="SquareSvg0" width="7.4" height="7.4"/>
        <rect x="-911.4" y="547.5" class="SquareSvg0" width="7.4" height="7.4"/>
        <rect x="-911.4" y="556.9" class="SquareSvg0" width="7.4" height="7.4"/>
        <rect x="-911.4" y="566.2" class="SquareSvg0" width="7.4" height="7.4"/>
        <rect x="-920.7" y="510.1" class="SquareSvg0" width="7.4" height="7.4"/>
        <rect x="-920.7" y="519.5" class="SquareSvg0" width="7.4" height="7.4"/>
        <rect x="-920.7" y="528.8" class="SquareSvg0" width="7.4" height="7.4"/>
        <rect x="-920.7" y="538.2" class="SquareSvg0" width="7.4" height="7.4"/>
        <rect x="-920.7" y="547.5" class="SquareSvg0" width="7.4" height="7.4"/>
        <rect x="-920.7" y="556.9" class="SquareSvg0" width="7.4" height="7.4"/>
        <rect x="-920.7" y="566.2" class="SquareSvg0" width="7.4" height="7.4"/>
        <rect x="-930.1" y="510.1" class="SquareSvg0" width="7.4" height="7.4"/>
        <rect x="-930.1" y="519.5" class="SquareSvg0" width="7.4" height="7.4"/>
        <rect x="-930.1" y="528.8" class="SquareSvg0" width="7.4" height="7.4"/>
        <rect x="-930.1" y="538.2" class="SquareSvg0" width="7.4" height="7.4"/>
        <rect x="-930.1" y="547.5" class="SquareSvg0" width="7.4" height="7.4"/>
        <rect x="-930.1" y="556.9" class="SquareSvg0" width="7.4" height="7.4"/>
        <rect x="-930.1" y="566.2" class="SquareSvg0" width="7.4" height="7.4"/>
        <rect x="-939.4" y="510.1" class="SquareSvg0" width="7.4" height="7.4"/>
        <rect x="-939.4" y="519.5" class="SquareSvg0" width="7.4" height="7.4"/>
        <rect x="-939.4" y="528.8" class="SquareSvg0" width="7.4" height="7.4"/>
        <rect x="-939.4" y="538.2" class="SquareSvg0" width="7.4" height="7.4"/>
        <rect x="-939.4" y="547.5" class="SquareSvg0" width="7.4" height="7.4"/>
        <rect x="-939.4" y="556.9" class="SquareSvg0" width="7.4" height="7.4"/>
        <rect x="-939.4" y="566.2" class="SquareSvg0" width="7.4" height="7.4"/>
        <rect x="-948.8" y="510.1" class="SquareSvg0" width="7.4" height="7.4"/>
        <rect x="-948.8" y="519.5" class="SquareSvg0" width="7.4" height="7.4"/>
        <rect x="-948.8" y="528.8" class="SquareSvg0" width="7.4" height="7.4"/>
        <rect x="-948.8" y="538.2" class="SquareSvg0" width="7.4" height="7.4"/>
        <rect x="-948.8" y="547.5" class="SquareSvg0" width="7.4" height="7.4"/>
        <rect x="-948.8" y="556.9" class="SquareSvg0" width="7.4" height="7.4"/>
        <rect x="-948.8" y="566.2" class="SquareSvg0" width="7.4" height="7.4"/>
    </g>
    <g>
        <rect x="-958.1" y="500.8" class="SquareSvg0" width="7.4" height="7.4"/>
        <rect x="-948.8" y="500.8" class="SquareSvg0" width="7.4" height="7.4"/>
        <rect x="-939.4" y="500.8" class="SquareSvg0" width="7.4" height="7.4"/>
        <rect x="-930.1" y="500.8" class="SquareSvg0" width="7.4" height="7.4"/>
        <rect x="-920.7" y="500.8" class="SquareSvg0" width="7.4" height="7.4"/>
        <rect x="-911.4" y="500.8" class="SquareSvg0" width="7.4" height="7.4"/>
        <rect x="-902" y="500.8" class="SquareSvg0" width="7.4" height="7.4"/>
        <rect x="-892.7" y="500.8" class="SquareSvg0" width="7.4" height="7.4"/>
        <rect x="-883.3" y="500.8" class="SquareSvg0" width="7.4" height="7.4"/>
        <rect x="-958.1" y="510.1" class="SquareSvg0" width="7.4" height="7.4"/>
        <rect x="-958.1" y="519.5" class="SquareSvg0" width="7.4" height="7.4"/>
        <rect x="-958.1" y="528.8" class="SquareSvg0" width="7.4" height="7.4"/>
        <rect x="-958.1" y="538.2" class="SquareSvg0" width="7.4" height="7.4"/>
        <rect x="-958.1" y="547.5" class="SquareSvg0" width="7.4" height="7.4"/>
        <rect x="-958.1" y="556.9" class="SquareSvg0" width="7.4" height="7.4"/>
        <rect x="-958.1" y="566.2" class="SquareSvg0" width="7.4" height="7.4"/>
        <rect x="-958.1" y="575.6" class="SquareSvg0" width="7.4" height="7.4"/>
        <rect x="-883.3" y="510.1" class="SquareSvg0" width="7.4" height="7.4"/>
        <rect x="-883.3" y="519.5" class="SquareSvg0" width="7.4" height="7.4"/>
        <rect x="-883.3" y="528.8" class="SquareSvg0" width="7.4" height="7.4"/>
        <rect x="-883.3" y="538.2" class="SquareSvg0" width="7.4" height="7.4"/>
        <rect x="-883.3" y="547.5" class="SquareSvg0" width="7.4" height="7.4"/>
        <rect x="-883.3" y="556.9" class="SquareSvg0" width="7.4" height="7.4"/>
        <rect x="-883.3" y="566.2" class="SquareSvg0" width="7.4" height="7.4"/>
        <rect x="-883.3" y="575.6" class="SquareSvg0" width="7.4" height="7.4"/>
        <rect x="-892.7" y="575.6" class="SquareSvg0" width="7.4" height="7.4"/>
        <rect x="-902" y="575.6" class="SquareSvg0" width="7.4" height="7.4"/>
        <rect x="-911.4" y="575.6" class="SquareSvg0" width="7.4" height="7.4"/>
        <rect x="-920.7" y="575.6" class="SquareSvg0" width="7.4" height="7.4"/>
        <rect x="-930.1" y="575.6" class="SquareSvg0" width="7.4" height="7.4"/>
        <rect x="-939.4" y="575.6" class="SquareSvg0" width="7.4" height="7.4"/>
        <rect x="-948.8" y="575.6" class="SquareSvg0" width="7.4" height="7.4"/>
    </g>
</svg>
