<svg xmlns="http://www.w3.org/2000/svg" x="0px" y="0px" viewBox="-958.3 500.8 82.7 82.2">
    <style>
        .DayInMonthHistogramSvg0{fill:#CD5E60;} .DayInMonthHistogramSvg1{fill:#F9A42B;} .DayInMonthHistogramSvg2{fill:#7F8033;} .DayInMonthHistogramSvg3{fill:#C178B1;} .DayInMonthHistogramSvg4{fill:#D9A52E;} .DayInMonthHistogramSvg5{fill:#FFFCF5;} .DayInMonthHistogramSvg6{fill:#7C1517;} .DayInMonthHistogramSvg7{fill:#2A2B69;} .DayInMonthHistogramSvg8{fill:#FFEBCF;} .DayInMonthHistogramSvg9{fill:#89181B;} .DayInMonthHistogramSvg10{fill:#2A161B;} .DayInMonthHistogramSvg11{fill:#EF4B26;} .DayInMonthHistogramSvg12{fill:#F3FAFD;} .DayInMonthHistogramSvg13{fill:#B2E0E6;} .DayInMonthHistogramSvg14{fill:#4882B3;} .DayInMonthHistogramSvg15{fill:#8FBB90;} .DayInMonthHistogramSvg16{fill:#3DB272;} .DayInMonthHistogramSvg17{fill:#ED2229;}
    </style>
    <g id="Layer_10">
        <rect x="-924.5" y="500.8" class="DayInMonthHistogramSvg0" width="4.8" height="82.2"/>
        <rect x="-881" y="500.8" class="DayInMonthHistogramSvg1" width="4.8" height="61.2"/>
    </g>
    <rect x="-885.8" y="500.8" class="DayInMonthHistogramSvg2" width="4.8" height="71" id="Layer_14"/>
    <rect x="-890.6" y="500.8" class="DayInMonthHistogramSvg3" width="4.8" height="79.1" id="Layer_15"/>
    <rect x="-895.5" y="500.8" class="DayInMonthHistogramSvg4" width="4.8" height="82.2" id="Layer_16"/>
    <rect x="-900.3" y="500.8" class="DayInMonthHistogramSvg5" width="4.8" height="80" id="Layer_17"/>
    <rect x="-905.1" y="500.8" class="DayInMonthHistogramSvg6" width="4.8" height="82.2" id="Layer_1"/>
    <rect x="-910" y="500.8" class="DayInMonthHistogramSvg7" width="4.8" height="82.2" id="Layer_11"/>
    <rect x="-914.8" y="500.8" class="DayInMonthHistogramSvg8" width="4.8" height="82.2" id="Layer_12"/>
    <rect x="-919.7" y="500.8" class="DayInMonthHistogramSvg9" width="4.8" height="82.2" id="Layer_13"/>
    <rect x="-924.5" y="500.8" class="DayInMonthHistogramSvg10" width="4.8" height="82.2" id="Layer_9"/>
    <rect x="-929.3" y="500.8" class="DayInMonthHistogramSvg11" width="4.8" height="82.2" id="Layer_8"/>
    <rect x="-934.2" y="500.8" class="DayInMonthHistogramSvg12" width="4.8" height="82.2" id="Layer_7"/>
    <rect x="-939" y="500.8" class="DayInMonthHistogramSvg13" width="4.8" height="82.2" id="Layer_6"/>
    <rect x="-943.8" y="500.8" class="DayInMonthHistogramSvg14" width="4.8" height="81.2" id="Layer_5"/>
    <rect x="-948.7" y="500.8" class="DayInMonthHistogramSvg15" width="4.8" height="82.2" id="Layer_4"/>
    <rect x="-953.5" y="500.8" class="DayInMonthHistogramSvg16" width="4.8" height="82.2" id="Layer_3"/>
    <rect x="-958.3" y="500.8" class="DayInMonthHistogramSvg17" width="4.8" height="82.2" id="Layer_2"/>
</svg>
